<svg width="48" height="48" viewBox="0 0 48 48" fill="none" xmlns="http://www.w3.org/2000/svg">
<g clip-path="url(#clip0_41_291)">
<path d="M33 45.1875H30.6562V41.7188H17.3438V45.1875H15C14.2234 45.1875 13.5938 45.8171 13.5938 46.5938C13.5938 47.3704 14.2234 48 15 48H18.75H29.25H33C33.7766 48 34.4062 47.3704 34.4062 46.5938C34.4062 45.8171 33.7766 45.1875 33 45.1875Z" fill="#01FFC3"/>
<path d="M32.4375 8.15625H25.2328L26.5528 10.005C26.8162 10.3734 27.2447 10.5938 27.6975 10.5938H33.8437V9.5625C33.8437 8.78719 33.2128 8.15625 32.4375 8.15625Z" fill="#01FFC3"/>
<path d="M24.2644 11.64L22.1972 8.745C21.9338 8.37656 21.5062 8.15625 21.0525 8.15625H15.5625C14.7872 8.15625 14.1562 8.78719 14.1562 9.5625V21.9375C14.1562 22.7128 14.7872 23.3438 15.5625 23.3438H32.4375C33.2128 23.3438 33.8438 22.7128 33.8438 21.9375V13.4062H27.6975C26.3381 13.4062 25.0547 12.7463 24.2644 11.64Z" fill="#01FFC3"/>
<path d="M43.7812 0H4.21875C1.89281 0 0 1.89281 0 4.21875V30.0938H48V4.21875C48 1.89281 46.1072 0 43.7812 0ZM36.6562 21.9375C36.6562 24.2634 34.7634 26.1562 32.4375 26.1562H15.5625C13.2366 26.1562 11.3438 24.2634 11.3438 21.9375V9.5625C11.3438 7.23656 13.2366 5.34375 15.5625 5.34375H32.4375C34.7634 5.34375 36.6562 7.23656 36.6562 9.5625V21.9375Z" fill="#01FFC3"/>
<path d="M0 34.6875C0 37.0134 1.89281 38.9062 4.21875 38.9062H43.7812C46.1072 38.9062 48 37.0134 48 34.6875V32.9062H0V34.6875Z" fill="#01FFC3"/>
</g>
<defs>
<clipPath id="clip0_41_291">
<rect width="48" height="48" fill="white"/>
</clipPath>
</defs>
</svg>
