<svg width="48" height="42" viewBox="0 0 48 42" fill="none" xmlns="http://www.w3.org/2000/svg">
<path d="M9.65626 12H38.5314C40.0848 12 41.3439 10.741 41.3439 9.18754V2.81251C41.3439 1.25907 40.0848 0 38.5314 0H9.65626C8.10282 0 6.84375 1.25907 6.84375 2.81251V9.18754C6.84375 10.741 8.10282 12 9.65626 12ZM27.8438 4.59377H35.3439C36.1201 4.59377 36.7501 5.22377 36.7501 6.00002C36.7501 6.77628 36.1201 7.40628 35.3439 7.40628H27.8438C27.0676 7.40628 26.4376 6.77628 26.4376 6.00002C26.4376 5.22377 27.0676 4.59377 27.8438 4.59377ZM18.8447 4.59377H18.8457C19.6219 4.59377 20.2519 5.22377 20.2519 6.00002C20.2519 6.77628 19.6219 7.40628 18.8457 7.40628C18.0694 7.40628 17.4394 6.77628 17.4394 6.00002C17.4394 5.22377 18.0685 4.59377 18.8447 4.59377ZM12.8447 4.59377H12.8456C13.6219 4.59377 14.2519 5.22377 14.2519 6.00002C14.2519 6.77628 13.6219 7.40628 12.8456 7.40628C12.0694 7.40628 11.4394 6.77628 11.4394 6.00002C11.4394 5.22377 12.0685 4.59377 12.8447 4.59377Z" fill="#0EFFC6"/>
<path d="M44.2502 33.7501C42.6766 33.7501 41.3302 34.7197 40.7738 36.0938H28.2747C27.8296 34.7401 26.7601 33.6706 25.4064 33.2254V27H38.5314C40.0848 27 41.3439 25.741 41.3439 24.1875V17.8125C41.3439 16.2591 40.0848 15 38.5314 15H9.65629C8.10285 15 6.84378 16.2591 6.84378 17.8125V24.1875C6.84378 25.741 8.10285 27 9.65629 27H22.5938V33.2254C21.2401 33.6706 20.1706 34.7401 19.7255 36.0938H7.22637C6.66996 34.7197 5.32362 33.7501 3.75001 33.7501C1.67898 33.7501 0 35.4291 0 37.5001C0 39.5711 1.67898 41.2501 3.75001 41.2501C5.32362 41.2501 6.66996 40.2804 7.22637 38.9063H19.7254C20.316 40.7027 22.006 42.0001 24 42.0001C25.994 42.0001 27.684 40.7027 28.2746 38.9063H40.7736C41.33 40.2804 42.6764 41.2501 44.25 41.2501C46.321 41.2501 48 39.5711 48 37.5001C48 35.4291 46.3212 33.7501 44.2502 33.7501ZM27.8439 19.5938H35.3439C36.1201 19.5938 36.7501 20.2238 36.7501 21C36.7501 21.7763 36.1201 22.4063 35.3439 22.4063H27.8439C27.0676 22.4063 26.4376 21.7763 26.4376 21C26.4376 20.2238 27.0676 19.5938 27.8439 19.5938ZM12.8457 22.4063C12.0694 22.4063 11.4394 21.7763 11.4394 21C11.4394 20.2238 12.0685 19.5938 12.8447 19.5938H12.8457C13.6219 19.5938 14.2519 20.2238 14.2519 21C14.2519 21.7763 13.6219 22.4063 12.8457 22.4063ZM18.8457 22.4063C18.0694 22.4063 17.4394 21.7763 17.4394 21C17.4394 20.2238 18.0685 19.5938 18.8448 19.5938H18.8457C19.622 19.5938 20.252 20.2238 20.252 21C20.252 21.7763 19.622 22.4063 18.8457 22.4063Z" fill="#0EFFC6"/>
</svg>
