<svg width="32" height="48" viewBox="0 0 32 48" fill="none" xmlns="http://www.w3.org/2000/svg">
<path d="M8.26392 7.40625H23.7341V10.5938H8.26392V7.40625Z" fill="#03FFC5"/>
<path d="M15.9992 33.0938C16.994 33.0938 17.8005 32.3802 17.8005 31.5C17.8005 30.6198 16.994 29.9062 15.9992 29.9062C15.0044 29.9062 14.1979 30.6198 14.1979 31.5C14.1979 32.3802 15.0044 33.0938 15.9992 33.0938Z" fill="#03FFC5"/>
<path d="M27.7604 47.9732C30.1408 47.7391 31.9988 45.9485 31.9988 43.7811V28.4971L27.7604 30.1638V47.9732Z" fill="#03FFC5"/>
<path d="M27.2318 0H4.76821C2.13934 0 0 1.89281 0 4.21875V25.4195L6.47332 27.965C7.04731 28.1906 7.41722 28.6943 7.41722 29.25V48H24.5828V29.25C24.5828 28.6943 24.9527 28.1906 25.5267 27.965L32 25.4195V4.21875C32 1.89281 29.8607 0 27.2318 0ZM16.0021 41.9062C15.1243 41.9062 14.4122 41.2766 14.4122 40.5C14.4122 39.7234 15.1232 39.0938 16.0011 39.0938H16.0021C16.8799 39.0938 17.5915 39.7234 17.5915 40.5C17.5915 41.2766 16.8799 41.9062 16.0021 41.9062ZM16 35.9062C13.2539 35.9062 11.0199 33.9296 11.0199 31.5C11.0199 29.0704 13.2539 27.0938 16 27.0938C18.7461 27.0938 20.9801 29.0704 20.9801 31.5C20.9801 33.9296 18.7461 35.9062 16 35.9062ZM25.3245 19.4062H6.6755C5.79772 19.4062 5.08609 18.7766 5.08609 18C5.08609 17.2234 5.79772 16.5938 6.6755 16.5938H25.3245C26.2023 16.5938 26.9139 17.2234 26.9139 18C26.9139 18.7766 26.2023 19.4062 25.3245 19.4062ZM26.9139 12C26.9139 12.7766 26.2023 13.4062 25.3245 13.4062H6.6755C5.79772 13.4062 5.08609 12.7766 5.08609 12V6C5.08609 5.22337 5.79772 4.59375 6.6755 4.59375H25.3245C26.2023 4.59375 26.9139 5.22337 26.9139 6V12Z" fill="#02FFC4"/>
<path d="M0 43.7811C0 45.9486 1.85801 47.7392 4.23841 47.9732V30.1638L0 28.4971V43.7811Z" fill="#03FFC5"/>
</svg>
