<svg width="486" height="618" viewBox="0 0 486 618" fill="none" xmlns="http://www.w3.org/2000/svg">
<path d="M252.583 157.899L128.789 281.693L107.473 303.435C77.3642 333.544 71.3957 378.468 89.248 414.599C89.6743 416.837 90.1539 419.075 90.7401 421.26C90.9533 422.273 91.2197 423.232 91.4862 424.191L28.3371 361.042C-9.44571 323.259 -9.44571 262.029 28.3371 224.246L252.583 0C252.583 0 252.903 0.319742 253.062 0.479613C296.174 44.0711 296.014 114.414 252.583 157.846" fill="#01FFC3" fill-opacity="0.5"/>
<path d="M352.715 257.979L228.922 381.826L207.606 403.568C176.005 435.116 170.942 483.078 192.205 520.061C192.578 521.5 192.951 522.885 193.431 524.218C193.644 525.124 193.963 526.03 194.283 526.989L128.47 461.229C116.213 448.972 107.953 434.264 103.636 418.703C94.6303 386.196 102.89 349.958 128.47 324.432L344.775 108.074L352.715 100.133C353.568 100.986 354.421 101.839 355.167 102.745C396.36 146.496 395.507 215.294 352.715 258.033" fill="#01FFC3" fill-opacity="0.5"/>
<path d="M452.795 358.056L329.002 481.849L307.685 503.592C274.752 536.525 270.702 587.151 295.162 624.614C295.215 625.147 295.322 625.68 295.375 626.213C295.482 626.959 295.589 627.705 295.748 628.398L228.549 561.199C216.293 548.942 208.033 534.234 203.769 518.673C194.763 486.219 203.023 449.982 228.549 424.402L444.855 208.097L452.848 200.104C454.554 201.809 456.206 203.567 457.751 205.326C496.386 249.184 494.734 316.063 452.848 357.949" fill="#01FFC3" fill-opacity="0.5"/>
</svg>
