<svg width="52" height="52" viewBox="0 0 52 52" fill="none" xmlns="http://www.w3.org/2000/svg">
<g filter="url(#filter0_i_53_937)">
<g clip-path="url(#clip0_53_937)">
<path d="M52 52H0V0H52V52Z" fill="#01FFC3"/>
<path d="M25.9101 7C20.7749 7 20.1304 7.02245 18.1135 7.11424C16.1005 7.20642 14.7265 7.52512 13.5242 7.99273C12.2806 8.4757 11.2257 9.12176 10.1747 10.1732C9.12288 11.2242 8.47683 12.2792 7.9923 13.5225C7.52353 14.7252 7.20445 16.0996 7.11384 18.1118C7.02364 20.1288 7 20.7737 7 25.9091C7 31.0445 7.02285 31.687 7.11424 33.704C7.20681 35.717 7.5255 37.0911 7.9927 38.2934C8.47605 39.537 9.12209 40.592 10.1735 41.643C11.2241 42.6948 12.279 43.3425 13.5219 43.8255C14.7249 44.2931 16.0993 44.6118 18.1119 44.7039C20.1288 44.7957 20.7729 44.8182 25.9077 44.8182C31.0434 44.8182 31.6859 44.7957 33.7028 44.7039C35.7157 44.6118 37.0913 44.2931 38.2944 43.8255C39.5376 43.3425 40.591 42.6948 41.6416 41.643C42.6934 40.592 43.3394 39.537 43.8239 38.2938C44.2888 37.0911 44.6079 35.7166 44.7024 33.7044C44.793 31.6874 44.8166 31.0445 44.8166 25.9091C44.8166 20.7737 44.793 20.1292 44.7024 18.1122C44.6079 16.0992 44.2888 14.7252 43.8239 13.5228C43.3394 12.2792 42.6934 11.2242 41.6416 10.1732C40.5898 9.12136 39.538 8.4753 38.2932 7.99273C37.0878 7.52512 35.713 7.20642 33.7 7.11424C31.6831 7.02245 31.041 7 25.9042 7H25.9101ZM24.2138 10.4076C24.7173 10.4068 25.279 10.4076 25.9101 10.4076C30.9587 10.4076 31.557 10.4257 33.5507 10.5163C35.3943 10.6006 36.3949 10.9087 37.0614 11.1675C37.9438 11.5102 38.5729 11.9199 39.2343 12.5817C39.8961 13.2435 40.3058 13.8738 40.6493 14.7563C40.9081 15.422 41.2165 16.4226 41.3004 18.2663C41.391 20.2596 41.4107 20.8584 41.4107 25.9048C41.4107 30.9511 41.391 31.5499 41.3004 33.5432C41.2161 35.3869 40.9081 36.3875 40.6493 37.0532C40.3066 37.9357 39.8961 38.564 39.2343 39.2254C38.5725 39.8872 37.9442 40.2969 37.0614 40.6397C36.3957 40.8997 35.3943 41.2069 33.5507 41.2912C31.5574 41.3818 30.9587 41.4015 25.9101 41.4015C20.8611 41.4015 20.2627 41.3818 18.2695 41.2912C16.4259 41.2062 15.4253 40.8981 14.7584 40.6393C13.876 40.2965 13.2457 39.8868 12.5839 39.225C11.9221 38.5632 11.5124 37.9345 11.1689 37.0517C10.9101 36.3859 10.6017 35.3853 10.5178 33.5417C10.4272 31.5483 10.409 30.9495 10.409 25.9C10.409 20.8505 10.4272 20.2549 10.5178 18.2615C10.6021 16.4179 10.9101 15.4173 11.1689 14.7508C11.5117 13.8683 11.9221 13.238 12.5839 12.5762C13.2457 11.9144 13.876 11.5047 14.7584 11.1612C15.4249 10.9012 16.4259 10.5939 18.2695 10.5092C20.0138 10.4304 20.6898 10.4068 24.2138 10.4028V10.4076ZM36.0033 13.5473C34.7506 13.5473 33.7343 14.5625 33.7343 15.8156C33.7343 17.0683 34.7506 18.0847 36.0033 18.0847C37.256 18.0847 38.2723 17.0683 38.2723 15.8156C38.2723 14.5628 37.256 13.5473 36.0033 13.5473ZM25.9101 16.1985C20.5476 16.1985 16.1998 20.5464 16.1998 25.9091C16.1998 31.2718 20.5476 35.6177 25.9101 35.6177C31.2726 35.6177 35.6188 31.2718 35.6188 25.9091C35.6188 20.5464 31.2726 16.1985 25.9101 16.1985ZM25.9101 19.6061C29.3908 19.6061 32.2129 22.4278 32.2129 25.9091C32.2129 29.3899 29.3908 32.2121 25.9101 32.2121C22.429 32.2121 19.6073 29.3899 19.6073 25.9091C19.6073 22.4278 22.429 19.6061 25.9101 19.6061Z" fill="#070707"/>
</g>
</g>
<defs>
<filter id="filter0_i_53_937" x="0" y="0" width="52" height="56" filterUnits="userSpaceOnUse" color-interpolation-filters="sRGB">
<feFlood flood-opacity="0" result="BackgroundImageFix"/>
<feBlend mode="normal" in="SourceGraphic" in2="BackgroundImageFix" result="shape"/>
<feColorMatrix in="SourceAlpha" type="matrix" values="0 0 0 0 0 0 0 0 0 0 0 0 0 0 0 0 0 0 127 0" result="hardAlpha"/>
<feOffset dy="4"/>
<feGaussianBlur stdDeviation="3"/>
<feComposite in2="hardAlpha" operator="arithmetic" k2="-1" k3="1"/>
<feColorMatrix type="matrix" values="0 0 0 0 0 0 0 0 0 0 0 0 0 0 0 0 0 0 0.25 0"/>
<feBlend mode="normal" in2="shape" result="effect1_innerShadow_53_937"/>
</filter>
<clipPath id="clip0_53_937">
<rect width="52" height="52" rx="12" fill="white"/>
</clipPath>
</defs>
</svg>
