<svg width="52" height="52" viewBox="0 0 52 52" fill="none" xmlns="http://www.w3.org/2000/svg">
<g filter="url(#filter0_i_53_941)">
<g clip-path="url(#clip0_53_941)">
<path d="M52 52H0V0H52V52Z" fill="#01FEC2"/>
<path d="M11.511 16.022C14.0023 16.022 16.022 14.0023 16.022 11.511C16.022 9.01964 14.0023 7 11.511 7C9.01964 7 7 9.01964 7 11.511C7 14.0023 9.01964 16.022 11.511 16.022Z" fill="#070707"/>
<path d="M20.1533 19.3557H27.6294V22.7806C27.6294 22.7806 29.6582 18.7231 35.1782 18.7231C40.1022 18.7231 44.1812 21.1488 44.1812 28.5425V44.1338H36.4338V30.4318C36.4338 26.0702 34.1052 25.5905 32.3309 25.5905C28.6484 25.5905 28.018 28.7668 28.018 31.0007V44.1338H20.1533V19.3557Z" fill="#070707"/>
<path d="M7.57865 19.3557H15.4433V44.1338H7.57865V19.3557Z" fill="#070707"/>
</g>
</g>
<defs>
<filter id="filter0_i_53_941" x="0" y="0" width="52" height="56" filterUnits="userSpaceOnUse" color-interpolation-filters="sRGB">
<feFlood flood-opacity="0" result="BackgroundImageFix"/>
<feBlend mode="normal" in="SourceGraphic" in2="BackgroundImageFix" result="shape"/>
<feColorMatrix in="SourceAlpha" type="matrix" values="0 0 0 0 0 0 0 0 0 0 0 0 0 0 0 0 0 0 127 0" result="hardAlpha"/>
<feOffset dy="4"/>
<feGaussianBlur stdDeviation="3"/>
<feComposite in2="hardAlpha" operator="arithmetic" k2="-1" k3="1"/>
<feColorMatrix type="matrix" values="0 0 0 0 0 0 0 0 0 0 0 0 0 0 0 0 0 0 0.25 0"/>
<feBlend mode="normal" in2="shape" result="effect1_innerShadow_53_941"/>
</filter>
<clipPath id="clip0_53_941">
<rect width="52" height="52" rx="12" fill="white"/>
</clipPath>
</defs>
</svg>
