<svg width="52" height="52" viewBox="0 0 52 52" fill="none" xmlns="http://www.w3.org/2000/svg">
<g filter="url(#filter0_i_53_945)">
<g clip-path="url(#clip0_53_945)">
<path d="M52 52H0V0H52V52Z" fill="#01FEC2"/>
<path fill-rule="evenodd" clip-rule="evenodd" d="M39.1344 18.352C39.147 18.6767 39.1512 19.0014 39.1512 19.3262C39.1512 29.1731 32.2243 40.5408 19.5575 40.5408C15.6665 40.5408 12.0484 39.3007 9 37.1896C9.53886 37.2487 10.0861 37.2931 10.6418 37.2931C13.868 37.2931 16.8394 36.097 19.1964 34.0892C16.183 34.0449 13.6384 31.8748 12.7609 28.9222C13.1822 29.0107 13.616 29.0552 14.0597 29.0552C14.6854 29.0552 15.2928 28.9667 15.875 28.7895C12.7216 28.1104 10.3465 25.0988 10.3465 21.4819C10.3465 21.4376 10.3465 21.4228 10.3465 21.3932C11.2758 21.9395 12.3395 22.2788 13.4691 22.3231C11.6187 20.9797 10.4024 18.6915 10.4024 16.108C10.4024 14.7498 10.7411 13.4653 11.3374 12.3581C14.7329 16.8756 19.8095 19.843 25.5326 20.153C25.4151 19.6068 25.3549 19.0312 25.3549 18.4554C25.3549 14.3365 28.4383 11 32.2425 11C34.223 11 36.0118 11.9007 37.2672 13.3475C38.8391 13.0227 40.3115 12.4027 41.644 11.5464C41.1275 13.2884 40.0371 14.7497 38.6123 15.665C40.0064 15.4878 41.3361 15.0895 42.5691 14.499C41.644 15.9901 40.4795 17.3038 39.1344 18.352Z" fill="#070707"/>
</g>
</g>
<defs>
<filter id="filter0_i_53_945" x="0" y="0" width="52" height="56" filterUnits="userSpaceOnUse" color-interpolation-filters="sRGB">
<feFlood flood-opacity="0" result="BackgroundImageFix"/>
<feBlend mode="normal" in="SourceGraphic" in2="BackgroundImageFix" result="shape"/>
<feColorMatrix in="SourceAlpha" type="matrix" values="0 0 0 0 0 0 0 0 0 0 0 0 0 0 0 0 0 0 127 0" result="hardAlpha"/>
<feOffset dy="4"/>
<feGaussianBlur stdDeviation="3.5"/>
<feComposite in2="hardAlpha" operator="arithmetic" k2="-1" k3="1"/>
<feColorMatrix type="matrix" values="0 0 0 0 0 0 0 0 0 0 0 0 0 0 0 0 0 0 0.25 0"/>
<feBlend mode="normal" in2="shape" result="effect1_innerShadow_53_945"/>
</filter>
<clipPath id="clip0_53_945">
<rect width="52" height="52" rx="12" fill="white"/>
</clipPath>
</defs>
</svg>
