<svg width="52" height="52" viewBox="0 0 52 52" fill="none" xmlns="http://www.w3.org/2000/svg">
<g filter="url(#filter0_i_53_933)">
<g clip-path="url(#clip0_53_933)">
<path d="M52 40C52 46.6274 46.6274 52 40 52H12C5.37258 52 0 46.6274 0 40V12C0 5.37258 5.37258 0 12 0H40C46.6274 0 52 5.37258 52 12V40Z" fill="#01DAA7"/>
<path fill-rule="evenodd" clip-rule="evenodd" d="M26.5874 7.02287C31.1902 7.24908 35.4791 9.14714 38.7549 12.4252C42.2491 15.9215 44.1724 20.5692 44.1706 25.5118C44.1664 35.7112 35.8632 44.0099 25.6631 44.0099H25.6555C22.5579 44.0088 19.5144 43.2321 16.8111 41.7584L7 44.3307L9.62569 34.7449C8.00608 31.9396 7.15385 28.7575 7.15518 25.4971C7.15928 15.2979 15.4618 7 25.6629 7L26.5874 7.02287ZM17.2657 38.4095L17.8275 38.7427C20.1893 40.1436 22.8965 40.8848 25.6568 40.8858H25.663C34.1416 40.8858 41.0423 33.9885 41.0456 25.5107C41.0472 21.4025 39.4487 17.5396 36.5445 14.6334C33.6401 11.7271 29.7779 10.1257 25.6692 10.1243C17.1841 10.1243 10.2834 17.021 10.28 25.4981C10.2788 28.4034 11.0921 31.2327 12.6319 33.6805L12.9977 34.2624L11.4437 39.936L17.2657 38.4095ZM34.987 29.9106C34.8714 29.7177 34.5632 29.6021 34.1008 29.3707C33.6383 29.1393 31.3648 28.0212 30.9409 27.8668C30.517 27.7127 30.2087 27.6357 29.9004 28.0982C29.5922 28.5609 28.7059 29.6021 28.4361 29.9106C28.1664 30.219 27.8966 30.2577 27.4343 30.0263C26.9718 29.795 25.4818 29.3068 23.7154 27.7321C22.3407 26.5065 21.4126 24.993 21.1428 24.5302C20.8731 24.0676 21.114 23.8173 21.3455 23.5869C21.5536 23.3798 21.8081 23.047 22.0393 22.7771C22.2705 22.5073 22.3475 22.3144 22.5017 22.006C22.6558 21.6975 22.5787 21.4277 22.4632 21.1963C22.3475 20.9648 21.4227 18.6897 21.0374 17.7642C20.6619 16.8631 20.2807 16.9851 19.9969 16.9708C19.7274 16.9575 19.4189 16.9545 19.1106 16.9545C18.8023 16.9545 18.3013 17.0701 17.8774 17.533C17.4535 17.9956 16.2589 19.114 16.2589 21.3889C16.2589 23.6641 17.916 25.8618 18.1472 26.1703C18.3784 26.4789 21.408 31.1473 26.047 33.1495C27.1503 33.6258 28.0117 33.9101 28.6832 34.1232C29.7911 34.475 30.7991 34.4254 31.596 34.3063C32.4844 34.1736 34.332 33.1882 34.7173 32.1086C35.1027 31.0287 35.1027 30.1033 34.987 29.9106Z" fill="#070707"/>
</g>
</g>
<defs>
<filter id="filter0_i_53_933" x="0" y="0" width="52" height="56" filterUnits="userSpaceOnUse" color-interpolation-filters="sRGB">
<feFlood flood-opacity="0" result="BackgroundImageFix"/>
<feBlend mode="normal" in="SourceGraphic" in2="BackgroundImageFix" result="shape"/>
<feColorMatrix in="SourceAlpha" type="matrix" values="0 0 0 0 0 0 0 0 0 0 0 0 0 0 0 0 0 0 127 0" result="hardAlpha"/>
<feOffset dy="4"/>
<feGaussianBlur stdDeviation="3"/>
<feComposite in2="hardAlpha" operator="arithmetic" k2="-1" k3="1"/>
<feColorMatrix type="matrix" values="0 0 0 0 0 0 0 0 0 0 0 0 0 0 0 0 0 0 0.25 0"/>
<feBlend mode="normal" in2="shape" result="effect1_innerShadow_53_933"/>
</filter>
<clipPath id="clip0_53_933">
<rect width="52" height="52" rx="12" fill="white"/>
</clipPath>
</defs>
</svg>
