<svg width="394" height="62" viewBox="0 0 394 62" fill="none" xmlns="http://www.w3.org/2000/svg">
<path d="M0 46.8074C1.41063 41.8916 3.03499 36.8154 4.87309 31.579C6.71118 26.3425 8.64546 21.1916 10.6759 16.1261C12.7277 11.0393 14.7796 6.30511 16.8314 1.92359H24.9105C26.9623 6.30511 29.0141 11.0393 31.0659 16.1261C33.1178 21.1916 35.052 26.3425 36.8688 31.579C38.7069 36.8154 40.3312 41.8916 41.7419 46.8074H34.4002C33.9086 44.9266 33.3636 42.9923 32.7651 41.0046C32.188 39.0169 31.5789 36.9971 30.9377 34.9453H10.5797C9.93854 36.9971 9.31871 39.0169 8.72026 41.0046C8.14319 42.9923 7.60886 44.9266 7.11727 46.8074H0ZM12.6957 28.6615H28.8218C27.5394 24.9853 26.2035 21.3732 24.8143 17.8253C23.4464 14.256 22.0892 10.911 20.7427 7.79055C19.4175 10.911 18.0604 14.256 16.6711 17.8253C15.3032 21.3732 13.9781 24.9853 12.6957 28.6615Z" fill="white" fill-opacity="0.6"/>
<path d="M59.9874 47.5768C57.1447 47.5768 54.6548 46.8608 52.5175 45.4288C50.4015 43.9755 48.7558 41.9877 47.5802 39.4657C46.4047 36.9223 45.817 34.0262 45.817 30.7775C45.817 27.5287 46.4047 24.6434 47.5802 22.1213C48.7558 19.5779 50.4015 17.5902 52.5175 16.1582C54.6548 14.7048 57.1447 13.9781 59.9874 13.9781H60.6927C62.8086 13.9781 64.7643 14.4376 66.5596 15.3567C68.3764 16.2544 69.8725 17.6009 71.048 19.3962V0H77.46V46.8074H71.048V41.774C69.9366 43.6976 68.4832 45.151 66.6879 46.1342C64.8925 47.096 62.8941 47.5768 60.6927 47.5768H59.9874ZM61.5904 41.6458H62.2316C64.1338 41.6458 65.8436 41.0794 67.3611 39.9466C68.9 38.8138 70.129 37.2643 71.048 35.2979V26.257C70.129 24.2907 68.9 22.7411 67.3611 21.6084C65.8436 20.4756 64.1338 19.9092 62.2316 19.9092H61.5904C58.7905 19.9092 56.5677 20.8496 54.9219 22.7304C53.2762 24.6113 52.4533 27.2936 52.4533 30.7775C52.4533 34.2613 53.2762 36.9437 54.9219 38.8245C56.5677 40.7053 58.7905 41.6458 61.5904 41.6458Z" fill="white" fill-opacity="0.6"/>
<path d="M98.4772 47.5768C95.2498 47.5768 92.4713 47.0532 90.1416 46.0059C87.8119 44.9586 85.867 43.3984 84.3067 41.3252L88.6669 37.3177C90.9752 40.4168 94.2239 41.9664 98.413 41.9664H99.0542C101.17 41.9664 102.805 41.6458 103.959 41.0046C105.135 40.342 105.723 39.3909 105.723 38.1512C105.723 37.1253 105.338 36.2811 104.569 35.6185C103.82 34.9559 102.442 34.4216 100.433 34.0155L94.9506 32.8614C88.5814 31.5362 85.3968 28.5653 85.3968 23.9487C85.3968 20.9565 86.5616 18.552 88.8913 16.7353C91.221 14.8972 94.3094 13.9781 98.1566 13.9781H98.8619C104.333 13.9781 108.533 16.0086 111.461 20.0695L107.101 23.6922C105.99 22.2175 104.74 21.1702 103.35 20.5504C101.982 19.9092 100.465 19.5886 98.7978 19.5886H98.1566C96.2544 19.5886 94.7048 19.9199 93.5079 20.5824C92.3324 21.245 91.7446 22.1854 91.7446 23.4037C91.7446 24.3228 92.108 25.0601 92.8346 25.6158C93.5827 26.1502 94.833 26.6097 96.5856 26.9944L102.998 28.373C105.755 28.9714 107.956 30.0401 109.602 31.579C111.248 33.0965 112.071 35.159 112.071 37.7665C112.071 40.6092 110.97 42.9602 108.768 44.8197C106.588 46.6578 103.393 47.5768 99.1825 47.5768H98.4772Z" fill="white" fill-opacity="0.6"/>
<path d="M134.809 46.8074V1.92359H142.824L158.534 29.463L174.147 1.92359H182.162V46.8074H175.622V11.2851L161.579 36.0353H155.392L141.35 11.4454V46.8074H134.809Z" fill="white" fill-opacity="0.6"/>
<path d="M201.822 47.4486C198.445 47.4486 195.816 46.583 193.935 44.8518C192.076 43.0992 191.146 40.8015 191.146 37.9589C191.146 35.1376 192.193 32.7759 194.288 30.8737C196.404 28.9714 199.77 28.0203 204.387 28.0203H213.107V27.9241C213.107 22.5381 210.628 19.8451 205.669 19.8451C203.596 19.8451 201.843 20.2191 200.411 20.9672C199.001 21.7152 197.857 22.7625 196.981 24.109L192.589 20.5504C193.957 18.4344 195.752 16.8101 197.975 15.6773C200.219 14.5445 202.762 13.9781 205.605 13.9781H206.31C210.243 13.9781 213.406 15.1109 215.8 17.3764C218.194 19.642 219.391 23.0297 219.391 27.5394V46.8074H213.235V41.5817C211.996 43.4625 210.403 44.9159 208.458 45.9418C206.513 46.9463 204.301 47.4486 201.822 47.4486ZM203.233 41.7419C205.712 41.7419 207.774 41.1862 209.42 40.0748C211.066 38.9421 212.295 37.4139 213.107 35.4903V33.0537H204.643C202.121 33.0537 200.315 33.4598 199.225 34.272C198.156 35.0628 197.622 36.1422 197.622 37.51C197.622 40.3313 199.492 41.7419 203.233 41.7419Z" fill="white" fill-opacity="0.6"/>
<path d="M228.292 46.8074V14.7475H234.704V20.1015C235.88 18.1993 237.344 16.7032 239.096 15.6132C240.87 14.5231 242.922 13.9781 245.252 13.9781H245.957C249.505 13.9781 252.284 15.2284 254.293 17.7291C256.323 20.2298 257.338 23.7457 257.338 28.2768V46.8074H250.926V29.0462C250.926 22.9762 248.725 19.9412 244.322 19.9412H243.681C241.501 19.9412 239.641 20.6145 238.103 21.961C236.585 23.3075 235.452 25.0067 234.704 27.0585V46.8074H228.292Z" fill="white" fill-opacity="0.6"/>
<path d="M274.958 47.4486C271.581 47.4486 268.952 46.583 267.072 44.8518C265.212 43.0992 264.282 40.8015 264.282 37.9589C264.282 35.1376 265.33 32.7759 267.424 30.8737C269.54 28.9714 272.906 28.0203 277.523 28.0203H286.243V27.9241C286.243 22.5381 283.764 19.8451 278.805 19.8451C276.732 19.8451 274.98 20.2191 273.548 20.9672C272.137 21.7152 270.994 22.7625 270.117 24.109L265.725 20.5504C267.093 18.4344 268.888 16.8101 271.111 15.6773C273.355 14.5445 275.899 13.9781 278.741 13.9781H279.447C283.379 13.9781 286.543 15.1109 288.936 17.3764C291.33 19.642 292.527 23.0297 292.527 27.5394V46.8074H286.372V41.5817C285.132 43.4625 283.54 44.9159 281.595 45.9418C279.65 46.9463 277.438 47.4486 274.958 47.4486ZM276.369 41.7419C278.848 41.7419 280.911 41.1862 282.556 40.0748C284.202 38.9421 285.431 37.4139 286.243 35.4903V33.0537H277.78C275.258 33.0537 273.452 33.4598 272.361 34.272C271.293 35.0628 270.758 36.1422 270.758 37.51C270.758 40.3313 272.629 41.7419 276.369 41.7419Z" fill="white" fill-opacity="0.6"/>
<path d="M313.836 46.9356C310.993 46.9356 308.503 46.2303 306.366 44.8197C304.25 43.3877 302.604 41.432 301.429 38.9527C300.253 36.4734 299.665 33.6415 299.665 30.4569C299.665 27.2723 300.253 24.4403 301.429 21.961C302.604 19.4817 304.25 17.5367 306.366 16.1261C308.503 14.6941 310.993 13.9781 313.836 13.9781H314.541C316.55 13.9781 318.41 14.3842 320.12 15.1964C321.851 16.0086 323.304 17.2055 324.48 18.7871V14.7475H330.828V44.0823C330.828 47.9081 330.165 51.0714 328.84 53.572C327.515 56.0941 325.687 57.9642 323.358 59.1825C321.049 60.4222 318.399 61.042 315.407 61.042H314.766C311.923 61.042 309.347 60.4756 307.039 59.3428C304.731 58.21 302.829 56.5643 301.332 54.4056L305.981 50.5264C306.986 52.0225 308.193 53.1553 309.604 53.9247C311.036 54.6941 312.756 55.0789 314.766 55.0789C317.886 55.0789 320.28 54.2346 321.947 52.5461C323.635 50.879 324.48 48.2715 324.48 44.7235V41.8061C323.347 43.4946 321.926 44.7769 320.216 45.6533C318.506 46.5082 316.614 46.9356 314.541 46.9356H313.836ZM315.439 41.0046H316.08C317.854 41.0046 319.457 40.5237 320.889 39.5619C322.342 38.5787 323.539 37.2215 324.48 35.4903V25.4235C323.539 23.6922 322.342 22.3457 320.889 21.3839C319.457 20.4008 317.854 19.9092 316.08 19.9092H315.439C312.639 19.9092 310.416 20.8282 308.77 22.6663C307.125 24.4831 306.302 27.0799 306.302 30.4569C306.302 33.8339 307.125 36.4414 308.77 38.2795C310.416 40.0962 312.639 41.0046 315.439 41.0046Z" fill="white" fill-opacity="0.6"/>
<path d="M353.377 47.5768C350.299 47.5768 347.596 46.8715 345.266 45.4609C342.958 44.0503 341.152 42.0839 339.848 39.5619C338.565 37.0398 337.924 34.1224 337.924 30.8095C337.924 27.4967 338.565 24.5792 339.848 22.0572C341.152 19.5138 342.958 17.5367 345.266 16.1261C347.596 14.6941 350.299 13.9781 353.377 13.9781H354.082C356.882 13.9781 359.34 14.6727 361.456 16.062C363.593 17.4299 365.261 19.4176 366.457 22.0251C367.654 24.6113 368.253 27.7318 368.253 31.3866V33.3423H344.561C344.945 35.9712 345.929 38.0444 347.51 39.5619C349.113 41.058 351.197 41.8061 353.762 41.8061H354.403C355.942 41.8061 357.417 41.4962 358.827 40.8763C360.238 40.2351 361.424 39.3802 362.386 38.3115L366.329 42.4793C364.876 44.0396 363.081 45.2792 360.943 46.1983C358.827 47.1173 356.54 47.5768 354.082 47.5768H353.377ZM353.185 19.7489C350.898 19.7489 348.985 20.5076 347.446 22.0251C345.929 23.5213 344.967 25.5731 344.561 28.1806H361.809C361.616 25.8082 360.836 23.8098 359.468 22.1854C358.122 20.5611 356.241 19.7489 353.826 19.7489H353.185Z" fill="white" fill-opacity="0.6"/>
<path d="M375.755 46.8074V14.7475H382.167V19.6206C384.304 15.8589 387.243 13.9781 390.983 13.9781C392.009 13.9781 392.939 14.0636 393.772 14.2346V20.7107C393.259 20.6466 392.704 20.5931 392.105 20.5504C391.528 20.5076 390.962 20.4863 390.406 20.4863C388.29 20.4863 386.559 21.0954 385.212 22.3137C383.866 23.5319 382.851 25.1991 382.167 27.315V46.8074H375.755Z" fill="white" fill-opacity="0.6"/>
</svg>
