<svg width="182" height="29" viewBox="0 0 182 29" fill="none" xmlns="http://www.w3.org/2000/svg">
<path d="M0 21.5351C0.649 19.2734 1.39633 16.938 2.242 14.5288C3.08767 12.1196 3.97758 9.74978 4.91175 7.41927C5.85575 5.07893 6.79975 2.90084 7.74375 0.885001H11.4608C12.4048 2.90084 13.3488 5.07893 14.2928 7.41927C15.2368 9.74978 16.1267 12.1196 16.9625 14.5288C17.8082 16.938 18.5555 19.2734 19.2045 21.5351H15.8268C15.6006 20.6697 15.3498 19.7798 15.0745 18.8653C14.809 17.9508 14.5288 17.0215 14.2338 16.0775H4.8675C4.5725 17.0215 4.28733 17.9508 4.012 18.8653C3.7465 19.7798 3.50067 20.6697 3.2745 21.5351H0ZM5.841 13.1865H13.2603C12.6703 11.4952 12.0557 9.83336 11.4165 8.20102C10.7872 6.55885 10.1628 5.01993 9.54325 3.58426C8.93359 5.01993 8.30917 6.55885 7.67 8.20102C7.04067 9.83336 6.431 11.4952 5.841 13.1865Z" fill="white" fill-opacity="0.6"/>
<path d="M27.5989 21.8891C26.291 21.8891 25.1455 21.5596 24.1621 20.9008C23.1886 20.2321 22.4315 19.3176 21.8906 18.1573C21.3498 16.9871 21.0794 15.6547 21.0794 14.16C21.0794 12.6654 21.3498 11.3379 21.8906 10.1775C22.4315 9.00736 23.1886 8.09285 24.1621 7.43402C25.1455 6.76535 26.291 6.43102 27.5989 6.43102H27.9234C28.8969 6.43102 29.7966 6.64243 30.6226 7.06527C31.4585 7.47827 32.1468 8.09777 32.6876 8.92377V0H35.6376V21.5351H32.6876V19.2193C32.1763 20.1043 31.5076 20.773 30.6816 21.2253C29.8556 21.6678 28.9362 21.8891 27.9234 21.8891H27.5989ZM28.3364 19.1603H28.6314C29.5065 19.1603 30.2932 18.8997 30.9914 18.3785C31.6994 17.8574 32.2648 17.1445 32.6876 16.2398V12.0803C32.2648 11.1756 31.6994 10.4627 30.9914 9.94153C30.2932 9.42036 29.5065 9.15977 28.6314 9.15977H28.3364C27.0482 9.15977 26.0255 9.59244 25.2684 10.4578C24.5112 11.3231 24.1326 12.5572 24.1326 14.16C24.1326 15.7629 24.5112 16.997 25.2684 17.8623C26.0255 18.7276 27.0482 19.1603 28.3364 19.1603Z" fill="white" fill-opacity="0.6"/>
<path d="M45.3072 21.8891C43.8223 21.8891 42.544 21.6481 41.4722 21.1663C40.4003 20.6845 39.5055 19.9666 38.7877 19.0128L40.7937 17.169C41.8557 18.5949 43.3503 19.3078 45.2777 19.3078H45.5727C46.5462 19.3078 47.2984 19.1603 47.8294 18.8653C48.3703 18.5605 48.6407 18.1229 48.6407 17.5525C48.6407 17.0805 48.4637 16.6921 48.1097 16.3873C47.7655 16.0825 47.1313 15.8366 46.2069 15.6498L43.6847 15.1188C40.7543 14.5091 39.2892 13.1423 39.2892 11.0183C39.2892 9.64161 39.8251 8.53536 40.8969 7.69952C41.9688 6.85385 43.3897 6.43102 45.1597 6.43102H45.4842C48.0015 6.43102 49.9338 7.36519 51.2809 9.23352L49.2749 10.9003C48.7636 10.2218 48.1883 9.73994 47.5492 9.45477C46.9198 9.15977 46.2217 9.01227 45.4547 9.01227H45.1597C44.2845 9.01227 43.5716 9.16469 43.0209 9.46952C42.4801 9.77436 42.2097 10.207 42.2097 10.7675C42.2097 11.1904 42.3768 11.5296 42.7112 11.7853C43.0553 12.0311 43.6306 12.2425 44.4369 12.4195L47.3869 13.0538C48.6554 13.3291 49.6683 13.8208 50.4254 14.5288C51.1826 15.227 51.5612 16.1759 51.5612 17.3755C51.5612 18.6834 51.0548 19.7651 50.0419 20.6206C49.0389 21.4662 47.5688 21.8891 45.6317 21.8891H45.3072Z" fill="white" fill-opacity="0.6"/>
<path d="M62.0228 21.5351V0.885001H65.7104L72.9379 13.5553L80.1211 0.885001H83.8086V21.5351H80.7996V5.19201L74.3391 16.579H71.4923L65.0318 5.26576V21.5351H62.0228Z" fill="white" fill-opacity="0.6"/>
<path d="M92.8538 21.8301C91.3001 21.8301 90.0906 21.4318 89.2253 20.6353C88.3698 19.829 87.9421 18.7719 87.9421 17.464C87.9421 16.166 88.4239 15.0795 89.3876 14.2043C90.3611 13.3291 91.9098 12.8915 94.0338 12.8915H98.0458V12.8473C98.0458 10.3693 96.9052 9.13027 94.6238 9.13027C93.67 9.13027 92.8636 9.30236 92.2048 9.64653C91.5558 9.99069 91.0297 10.4725 90.6266 11.092L88.6058 9.45477C89.2351 8.48127 90.0611 7.73394 91.0838 7.21277C92.1163 6.6916 93.2865 6.43102 94.5943 6.43102H94.9188C96.7281 6.43102 98.1835 6.95218 99.2848 7.99452C100.386 9.03686 100.937 10.5954 100.937 12.6703V21.5351H98.1048V19.1308C97.5345 19.9961 96.8019 20.6648 95.9071 21.1368C95.0122 21.599 93.9945 21.8301 92.8538 21.8301ZM93.5028 19.2045C94.6435 19.2045 95.5924 18.9489 96.3496 18.4375C97.1067 17.9164 97.6721 17.2133 98.0458 16.3283V15.2073H94.1518C92.9915 15.2073 92.1606 15.3941 91.6591 15.7678C91.1674 16.1316 90.9216 16.6282 90.9216 17.2575C90.9216 18.5555 91.782 19.2045 93.5028 19.2045Z" fill="white" fill-opacity="0.6"/>
<path d="M105.032 21.5351V6.78502H107.982V9.24827C108.523 8.37311 109.197 7.68477 110.003 7.18327C110.819 6.68177 111.763 6.43102 112.835 6.43102H113.16C114.792 6.43102 116.07 7.00627 116.994 8.15677C117.929 9.30727 118.396 10.9249 118.396 13.0095V21.5351H115.446V13.3635C115.446 10.5709 114.433 9.17452 112.407 9.17452H112.112C111.109 9.17452 110.254 9.48427 109.546 10.1038C108.848 10.7233 108.326 11.505 107.982 12.449V21.5351H105.032Z" fill="white" fill-opacity="0.6"/>
<path d="M126.502 21.8301C124.949 21.8301 123.739 21.4318 122.874 20.6353C122.018 19.829 121.591 18.7719 121.591 17.464C121.591 16.166 122.072 15.0795 123.036 14.2043C124.01 13.3291 125.558 12.8915 127.682 12.8915H131.694V12.8473C131.694 10.3693 130.554 9.13027 128.272 9.13027C127.318 9.13027 126.512 9.30236 125.853 9.64653C125.204 9.99069 124.678 10.4725 124.275 11.092L122.254 9.45477C122.884 8.48127 123.71 7.73394 124.732 7.21277C125.765 6.6916 126.935 6.43102 128.243 6.43102H128.567C130.377 6.43102 131.832 6.95218 132.933 7.99452C134.035 9.03686 134.585 10.5954 134.585 12.6703V21.5351H131.753V19.1308C131.183 19.9961 130.45 20.6648 129.556 21.1368C128.661 21.599 127.643 21.8301 126.502 21.8301ZM127.151 19.2045C128.292 19.2045 129.241 18.9489 129.998 18.4375C130.755 17.9164 131.321 17.2133 131.694 16.3283V15.2073H127.8C126.64 15.2073 125.809 15.3941 125.308 15.7678C124.816 16.1316 124.57 16.6282 124.57 17.2575C124.57 18.5555 125.43 19.2045 127.151 19.2045Z" fill="white" fill-opacity="0.6"/>
<path d="M144.389 21.5941C143.081 21.5941 141.936 21.2696 140.952 20.6206C139.979 19.9617 139.222 19.062 138.681 17.9213C138.14 16.7806 137.869 15.4777 137.869 14.0125C137.869 12.5474 138.14 11.2444 138.681 10.1038C139.222 8.96311 139.979 8.06827 140.952 7.41927C141.936 6.76043 143.081 6.43102 144.389 6.43102H144.713C145.638 6.43102 146.493 6.61785 147.28 6.99152C148.076 7.36518 148.745 7.91585 149.286 8.64352V6.78502H152.206V20.2813C152.206 22.0415 151.902 23.4968 151.292 24.6473C150.682 25.8076 149.842 26.6681 148.77 27.2286C147.708 27.7989 146.488 28.0841 145.112 28.0841H144.817C143.509 28.0841 142.324 27.8235 141.262 27.3023C140.2 26.7812 139.325 26.024 138.636 25.0308L140.775 23.2461C141.237 23.9344 141.793 24.4556 142.442 24.8096C143.101 25.1636 143.892 25.3406 144.817 25.3406C146.252 25.3406 147.354 24.9521 148.121 24.1753C148.898 23.4083 149.286 22.2086 149.286 20.5763V19.234C148.765 20.0109 148.111 20.6009 147.324 21.0041C146.538 21.3974 145.667 21.5941 144.713 21.5941H144.389ZM145.126 18.8653H145.421C146.238 18.8653 146.975 18.644 147.634 18.2015C148.303 17.7492 148.853 17.1248 149.286 16.3283V11.6968C148.853 10.9003 148.303 10.2808 147.634 9.83828C146.975 9.38594 146.238 9.15977 145.421 9.15977H145.126C143.838 9.15977 142.816 9.58261 142.058 10.4283C141.301 11.2641 140.923 12.4589 140.923 14.0125C140.923 15.5662 141.301 16.7659 142.058 17.6115C142.816 18.4474 143.838 18.8653 145.126 18.8653Z" fill="white" fill-opacity="0.6"/>
<path d="M162.581 21.8891C161.165 21.8891 159.921 21.5646 158.849 20.9156C157.787 20.2666 156.956 19.3619 156.357 18.2015C155.766 17.0412 155.471 15.699 155.471 14.1748C155.471 12.6506 155.766 11.3084 156.357 10.148C156.956 8.97786 157.787 8.06827 158.849 7.41927C159.921 6.76043 161.165 6.43102 162.581 6.43102H162.906C164.194 6.43102 165.324 6.7506 166.298 7.38977C167.281 8.0191 168.048 8.93361 168.599 10.1333C169.15 11.3231 169.425 12.7588 169.425 14.4403V15.34H158.525C158.702 16.5495 159.154 17.5034 159.882 18.2015C160.619 18.8899 161.578 19.234 162.758 19.234H163.053C163.761 19.234 164.439 19.0915 165.089 18.8063C165.738 18.5113 166.283 18.118 166.726 17.6263L168.54 19.5438C167.871 20.2616 167.045 20.832 166.062 21.2548C165.089 21.6776 164.036 21.8891 162.906 21.8891H162.581ZM162.493 9.08602C161.44 9.08602 160.56 9.43511 159.852 10.1333C159.154 10.8216 158.712 11.7656 158.525 12.9653H166.46C166.372 11.8738 166.013 10.9544 165.383 10.207C164.764 9.45969 163.899 9.08602 162.787 9.08602H162.493Z" fill="white" fill-opacity="0.6"/>
<path d="M172.877 21.5351V6.78502H175.826V9.02702C176.81 7.29635 178.162 6.43102 179.883 6.43102C180.355 6.43102 180.783 6.47035 181.166 6.54902V9.52852C180.93 9.49902 180.674 9.47444 180.399 9.45477C180.134 9.43511 179.873 9.42527 179.617 9.42527C178.644 9.42527 177.847 9.70553 177.228 10.266C176.608 10.8265 176.141 11.5935 175.826 12.567V21.5351H172.877Z" fill="white" fill-opacity="0.6"/>
</svg>
