<svg width="267" height="41" viewBox="0 0 267 41" fill="none" xmlns="http://www.w3.org/2000/svg">
<path d="M12.7551 13.0317C16.5662 13.0317 19.732 14.9987 21.238 17.1195V13.5542H27.0469V40.0172H22.8669C22.6487 40.018 22.4325 39.9757 22.2307 39.8926C22.029 39.8095 21.8457 39.6873 21.6914 39.533C21.5371 39.3787 21.4148 39.1954 21.3318 38.9937C21.2487 38.7919 21.2063 38.5757 21.2072 38.3575V36.4519C19.732 38.6033 16.5662 40.5704 12.7551 40.5704C5.50159 40.5704 0 34.3619 0 26.801C0 19.2402 5.47085 13.0317 12.7551 13.0317ZM13.7693 18.3181C9.06686 18.3181 5.87041 22.0371 5.87041 26.801C5.87041 31.565 9.03613 35.2839 13.7693 35.2839C18.4718 35.2839 21.6683 31.565 21.6683 26.801C21.6683 22.0371 18.5333 18.3181 13.7693 18.3181ZM33.655 13.5542H39.4946V17.1502C41.0929 14.507 44.1049 13.0317 47.5473 13.0317C53.6943 13.0317 57.6591 17.3654 57.6591 24.0964V40.0172H53.4791C53.2609 40.018 53.0447 39.9757 52.8429 39.8926C52.6412 39.8095 52.4579 39.6873 52.3036 39.533C52.1493 39.3787 52.027 39.1954 51.944 38.9937C51.8609 38.7919 51.8185 38.5757 51.8194 38.3575V25.0491C51.8194 20.8692 49.6987 18.3181 46.3179 18.3181C42.4452 18.3181 39.4946 21.3302 39.4946 26.9855V40.0172H35.3147C35.0965 40.018 34.8802 39.9757 34.6785 39.8926C34.4767 39.8095 34.2934 39.6873 34.1391 39.533C33.9848 39.3787 33.8626 39.1954 33.7795 38.9937C33.6964 38.7919 33.6541 38.5757 33.655 38.3575V13.5542ZM75.0245 13.0317C78.8356 13.0317 82.0013 14.9987 83.5074 17.1195V0.338087H89.3163V40.0479H85.1363C84.9181 40.0488 84.7019 40.0065 84.5001 39.9234C84.2984 39.8403 84.115 39.7181 83.9607 39.5638C83.8064 39.4095 83.6842 39.2262 83.6011 39.0244C83.5181 38.8226 83.4757 38.6064 83.4766 38.3882V36.4826C82.0013 38.6033 78.8049 40.5704 74.9937 40.5704C67.7402 40.5704 62.2386 34.3619 62.2386 26.801C62.2694 19.2402 67.771 13.0317 75.0245 13.0317ZM76.0695 18.3181C71.367 18.3181 68.1705 22.0371 68.1705 26.801C68.1705 31.565 71.3363 35.2839 76.0695 35.2839C80.7719 35.2839 83.9684 31.565 83.9684 26.801C83.9684 22.0371 80.7719 18.3181 76.0695 18.3181ZM95.9244 13.5542H101.733V18.2567C102.243 16.8099 103.186 15.5555 104.435 14.6644C105.683 13.7734 107.176 13.2891 108.71 13.2776C109.473 13.2758 110.235 13.3479 110.985 13.4927V19.4861C110.043 19.1687 109.058 19.0027 108.065 18.9943C104.715 18.9943 101.703 21.7912 101.703 27.1084V40.0172H97.5226C97.3044 40.018 97.0882 39.9757 96.8864 39.8926C96.6846 39.8095 96.5013 39.6873 96.347 39.533C96.1927 39.3787 96.0705 39.1954 95.9874 38.9937C95.9043 38.7919 95.862 38.5757 95.8629 38.3575V13.5542H95.9244ZM126.721 40.5704C118.884 40.5704 112.859 34.4848 112.859 26.801C112.859 19.1173 118.884 13.0317 126.721 13.0317C134.558 13.0317 140.583 19.1173 140.583 26.801C140.583 34.4848 134.558 40.5704 126.721 40.5704ZM126.721 35.161C131.393 35.161 134.651 31.5035 134.651 26.801C134.651 22.0986 131.362 18.4411 126.721 18.4411C122.018 18.4411 118.73 22.0986 118.73 26.801C118.73 31.5035 122.018 35.161 126.721 35.161ZM148.205 7.77599C147.174 7.77599 146.185 7.36636 145.456 6.63722C144.726 5.90808 144.317 4.91916 144.317 3.888C144.317 2.85684 144.726 1.86791 145.456 1.13877C146.185 0.409627 147.174 0 148.205 0C149.236 0 150.225 0.409627 150.954 1.13877C151.683 1.86791 152.093 2.85684 152.093 3.888C152.093 4.91916 151.683 5.90808 150.954 6.63722C150.225 7.36636 149.236 7.77599 148.205 7.77599ZM145.316 13.5542H151.125V40.0172H146.945C146.726 40.018 146.51 39.9757 146.308 39.8926C146.107 39.8095 145.923 39.6873 145.769 39.533C145.615 39.3787 145.493 39.1954 145.41 38.9937C145.326 38.7919 145.284 38.5757 145.285 38.3575C145.316 38.3575 145.316 13.5542 145.316 13.5542ZM168.674 13.0317C172.486 13.0317 175.651 14.9987 177.157 17.1195V0.338087H182.966V40.0479H178.786C178.568 40.0488 178.352 40.0065 178.15 39.9234C177.948 39.8403 177.765 39.7181 177.611 39.5638C177.456 39.4095 177.334 39.2262 177.251 39.0244C177.168 38.8226 177.126 38.6064 177.127 38.3882V36.4826C175.651 38.6033 172.455 40.5704 168.644 40.5704C161.39 40.5704 155.889 34.3619 155.889 26.801C155.919 19.2402 161.421 13.0317 168.674 13.0317ZM169.75 18.3181C165.048 18.3181 161.851 22.0371 161.851 26.801C161.851 31.565 165.017 35.2839 169.75 35.2839C174.453 35.2839 177.649 31.565 177.649 26.801C177.649 22.0371 174.453 18.3181 169.75 18.3181Z" fill="white" fill-opacity="0.6"/>
<path d="M247.234 30.1238C246.651 30.1238 246.08 29.9508 245.595 29.6265C245.11 29.3023 244.732 28.8415 244.508 28.3024C244.285 27.7632 244.226 27.17 244.34 26.5976C244.454 26.0253 244.735 25.4995 245.148 25.0869C245.56 24.6742 246.086 24.3932 246.659 24.2794C247.231 24.1655 247.824 24.2239 248.363 24.4473C248.902 24.6706 249.363 25.0488 249.687 25.534C250.012 26.0192 250.185 26.5897 250.185 27.1732C250.185 27.9557 249.874 28.7061 249.32 29.2594C248.767 29.8127 248.017 30.1236 247.234 30.1238ZM214.747 30.1238C214.164 30.1238 213.593 29.9508 213.108 29.6265C212.623 29.3023 212.244 28.8415 212.021 28.3024C211.798 27.7632 211.739 27.17 211.853 26.5976C211.967 26.0253 212.248 25.4995 212.661 25.0869C213.073 24.6742 213.599 24.3932 214.171 24.2794C214.744 24.1655 215.337 24.2239 215.876 24.4473C216.415 24.6706 216.876 25.0488 217.2 25.534C217.525 26.0192 217.698 26.5897 217.698 27.1732C217.698 27.9557 217.387 28.7061 216.833 29.2594C216.28 29.8127 215.53 30.1236 214.747 30.1238ZM248.279 12.4204L254.18 2.24704C254.26 2.10774 254.311 1.95409 254.331 1.79489C254.351 1.6357 254.34 1.47411 254.297 1.31941C254.255 1.16471 254.182 1.01995 254.083 0.89343C253.985 0.766915 253.862 0.661144 253.722 0.582192C253.583 0.503241 253.429 0.452666 253.269 0.433372C253.11 0.414078 252.949 0.426445 252.794 0.469764C252.64 0.513082 252.495 0.586498 252.369 0.685793C252.243 0.785089 252.138 0.908308 252.06 1.04837L246.097 11.3446C241.361 9.18058 236.213 8.06907 231.006 8.08672C225.793 8.07396 220.638 9.17421 215.884 11.3139L209.891 1.01764C209.813 0.877573 209.708 0.754354 209.582 0.655059C209.455 0.555763 209.311 0.482347 209.157 0.439029C209.002 0.395711 208.841 0.383343 208.681 0.402637C208.522 0.421931 208.368 0.472507 208.228 0.551458C208.089 0.630409 207.966 0.73618 207.867 0.862695C207.769 0.989211 207.696 1.13398 207.653 1.28868C207.611 1.44338 207.599 1.60497 207.619 1.76416C207.639 1.92335 207.691 2.07701 207.77 2.21631L213.641 12.3896C208.565 15.1579 204.26 19.1484 201.115 23.9999C197.97 28.8513 196.085 34.4105 195.63 40.1742H266.228C265.787 34.4185 263.914 28.8645 260.779 24.0173C257.644 19.1701 253.347 15.1836 248.279 12.4204Z" fill="white" fill-opacity="0.6"/>
</svg>
