<svg width="92" height="54" viewBox="0 0 92 54" fill="none" xmlns="http://www.w3.org/2000/svg">
<path fill-rule="evenodd" clip-rule="evenodd" d="M26.2631 22.2848C26.0489 21.624 25.9265 20.723 25.9265 19.6118H25.8653V9.88098C25.8653 6.57731 25.0086 4.11457 23.3257 2.49277C21.6122 0.870968 18.9501 0.0600667 15.3089 0.0600667C13.626 0.0600667 12.0349 0.240267 10.5356 0.630701C9.03629 0.991101 7.75116 1.4416 6.68023 1.9822C6.25185 2.19244 5.97647 2.40267 5.82347 2.6129C5.67048 2.82314 5.60929 3.18354 5.60929 3.66407V5.13571C5.60929 5.76641 5.82348 6.06674 6.25185 6.06674C6.37424 6.06674 6.52724 6.03671 6.74142 5.97664C6.95561 5.91657 7.32279 5.79644 7.81236 5.58621C8.8833 5.16574 9.98484 4.83537 11.117 4.56507C12.2491 4.29477 13.3506 4.17464 14.4216 4.17464C16.7776 4.17464 18.4299 4.62514 19.4091 5.55617C20.3576 6.48721 20.8472 8.07898 20.8472 10.3615V12.5539C19.6233 12.2836 18.4605 12.0434 17.3284 11.8932C16.1963 11.743 15.1253 11.6529 14.085 11.6529C10.9334 11.6529 8.45492 12.4338 6.58843 13.9956C4.72194 15.5573 3.80399 17.6296 3.80399 20.1824C3.80399 22.5851 4.56895 24.5072 6.06826 25.9488C7.56757 27.3904 9.61766 28.1112 12.1879 28.1112C15.7985 28.1112 18.7971 26.7297 21.1838 23.9666C21.5204 24.6574 21.8264 25.228 22.1323 25.7386C22.4383 26.2191 22.8055 26.6997 23.2339 27.1502C23.5399 27.4205 23.8458 27.5706 24.1518 27.5706C24.3966 27.5706 24.672 27.4805 24.9474 27.3003L26.8751 26.0389C27.2728 25.7386 27.4564 25.4383 27.4564 25.1379C27.4564 24.9277 27.3952 24.6874 27.2422 24.4472C26.8139 23.6663 26.5079 22.9455 26.2631 22.2848ZM16.6553 23.6363C15.5537 23.9967 14.5134 24.1769 13.5036 24.1769C12.0961 24.1769 11.0252 23.8165 10.2908 23.0656C9.52586 22.3448 9.15868 21.2937 9.15868 19.8821C9.15868 18.3804 9.64826 17.2392 10.658 16.4283C11.6677 15.6174 13.1671 15.2269 15.2171 15.2269C16.1657 15.2269 17.1142 15.287 18.0934 15.4071C19.0725 15.5273 20.0211 15.7075 20.9084 15.9177V17.1791C20.9084 18.2002 20.786 19.0712 20.6024 19.792C20.4188 20.5128 20.0517 21.1435 19.5621 21.7141C18.7359 22.6151 17.7568 23.2759 16.6553 23.6363Z" fill="white" fill-opacity="0.6"/>
<path d="M36.9113 27.1201C37.1561 27.3304 37.5232 27.4205 38.074 27.4205H40.7055C41.2562 27.4205 41.6846 27.3304 41.9294 27.1201C42.1742 26.9099 42.3578 26.5195 42.5108 25.9188L47.2229 6.57731L51.9656 25.9488C52.088 26.5495 52.3022 26.9399 52.547 27.1502C52.7918 27.3604 53.1895 27.4505 53.7709 27.4505H56.4024C56.9225 27.4505 57.3203 27.3304 57.5651 27.1502C57.8099 26.97 58.0241 26.5795 58.2076 25.9789L65.5818 2.76307C65.7042 2.4327 65.7654 2.19244 65.796 2.01224C65.8005 1.98594 65.8049 1.96029 65.8093 1.93519C65.8349 1.78822 65.8572 1.65996 65.8572 1.5317C65.8572 1.02113 65.5818 0.780868 65.0923 0.780868H62.2466C61.6959 0.780868 61.2981 0.901001 61.0533 1.0812C60.8391 1.2614 60.6249 1.65184 60.4413 2.2525L55.1478 22.3749L50.3133 2.2525C50.1909 1.68187 49.9767 1.2614 49.7319 1.0812C49.4872 0.870968 49.0894 0.780868 48.508 0.780868H46.0602C45.5094 0.780868 45.081 0.901001 44.8362 1.0812C44.5914 1.2614 44.4078 1.65184 44.2549 2.2525L39.4815 22.1346L34.341 2.2525C34.1574 1.68187 33.9739 1.2614 33.7291 1.0812C33.5149 0.870968 33.1171 0.780868 32.5357 0.780868H29.5371C29.0475 0.780868 28.8027 1.05117 28.8027 1.5317C28.8027 1.74194 28.8945 2.13237 29.0781 2.73304L36.2687 25.9488C36.4523 26.5195 36.6665 26.9399 36.9113 27.1201Z" fill="white" fill-opacity="0.6"/>
<path d="M72.6806 27.6908C74.2105 28.0512 75.8016 28.2314 77.3927 28.2314C78.9533 28.2314 80.3914 28.0211 81.7683 27.6007C83.084 27.2102 84.2162 26.6696 85.1647 25.9188C86.1132 25.198 86.8476 24.297 87.3984 23.2759C87.9185 22.2547 88.1939 21.0834 88.1939 19.792C88.1939 18.2303 87.7349 16.8187 86.7864 15.5873C85.8379 14.356 84.2467 13.3949 82.0437 12.7041L77.6987 11.3526C76.077 10.842 74.9449 10.2714 74.3329 9.70078C73.721 9.13015 73.415 8.40934 73.415 7.56841C73.415 6.33704 73.9045 5.46607 74.8531 4.89544C75.8016 4.32481 77.1786 4.0545 78.9227 4.0545C81.0951 4.0545 83.0534 4.44494 84.7975 5.22581C85.3177 5.46607 85.7155 5.58621 85.9603 5.58621C86.4192 5.58621 86.664 5.25584 86.664 4.62514V3.21357C86.664 2.7931 86.5722 2.46274 86.3886 2.22247C86.205 1.95217 85.8991 1.7119 85.4707 1.47163C85.1647 1.29143 84.7363 1.11123 84.1856 0.931035C83.6348 0.750834 83.0534 0.600667 82.4415 0.450501C81.7989 0.33037 81.1563 0.210231 80.4526 0.120133C79.7794 0.0300334 79.0757 0 78.4025 0C77.0562 0 75.771 0.150167 74.5471 0.510567C73.3232 0.870968 72.2828 1.38154 71.3649 2.0723C70.4469 2.73304 69.7126 3.57397 69.1618 4.53504C68.6111 5.49611 68.3357 6.60734 68.3357 7.86874C68.3357 9.43048 68.8558 10.9021 69.8656 12.2236C70.8753 13.5751 72.5276 14.5962 74.7613 15.287L79.198 16.6385C80.6974 17.119 81.7377 17.6296 82.2885 18.2002C82.8392 18.7709 83.1146 19.4616 83.1146 20.3026C83.1146 21.5339 82.5638 22.495 81.5235 23.1557C80.4832 23.8165 78.9839 24.1468 77.0562 24.1468C75.8322 24.1468 74.6389 24.0267 73.415 23.7864C72.2216 23.5462 71.0895 23.1858 70.0492 22.7353C69.9408 22.6927 69.8362 22.6501 69.7382 22.6103C69.5596 22.5376 69.4028 22.4737 69.2842 22.4349C69.1006 22.3749 68.917 22.3448 68.7334 22.3448C68.2745 22.3448 68.0297 22.6452 68.0297 23.2759V24.8076C68.0297 25.0779 68.0909 25.3782 68.2133 25.6485C68.3357 25.9188 68.6722 26.2191 69.1618 26.4894C69.9574 26.9399 71.1507 27.3304 72.6806 27.6908Z" fill="white" fill-opacity="0.6"/>
<path d="M45.9072 54C58.483 54 73.109 50.1257 83.1758 42.8276C84.8281 41.6263 83.39 39.7942 81.7071 40.545C70.4163 45.2303 58.1464 47.5128 46.9781 47.5128C30.4244 47.5128 14.4216 43.0378 1.44791 35.6496C0.315779 34.9889 -0.540972 36.1301 0.407574 36.9711C12.4021 47.6029 28.2826 54 45.9072 54Z" fill="white" fill-opacity="0.6"/>
<path d="M75.5874 37.7519C78.8614 37.3615 86.0826 36.5206 87.3678 38.1424C88.6529 39.7341 85.9296 46.4316 84.7057 49.4049C84.3385 50.3059 85.1341 50.6663 85.9602 49.9755C91.3455 45.5306 92.753 36.2503 91.6515 34.8988C90.55 33.5773 81.0951 32.436 75.3426 36.4004C74.4553 37.0311 74.6083 37.8721 75.5874 37.7519Z" fill="white" fill-opacity="0.6"/>
</svg>
