<svg width="188" height="26" viewBox="0 0 188 26" fill="none" xmlns="http://www.w3.org/2000/svg">
<mask id="mask0_121_179" style="mask-type:luminance" maskUnits="userSpaceOnUse" x="0" y="0" width="188" height="26">
<path d="M187.962 0H0V25.9258H187.962V0Z" fill="white"/>
</mask>
<g mask="url(#mask0_121_179)">
<path d="M9.33147 21.464L5.75944 23.9635L4.27907 22.8892L5.81099 18.32L5.45011 17.833L0.559741 17.7972L0 16.0712L3.96237 13.2494V12.6478L0.036825 9.79021L0.618661 8.06421H5.00084L9.33147 21.464Z" fill="white" fill-opacity="0.6"/>
<path d="M10.5913 4.07533L11.9907 0.000244141H13.8319L15.3196 4.57666L15.9088 4.7557L19.9007 1.96259L21.381 3.0297L19.8491 7.59895L20.21 8.0788L25.1077 8.12177L25.6601 9.84777L22.1102 12.3759L10.5913 4.07533Z" fill="white" fill-opacity="0.6"/>
<path d="M5.90696 1.92651L4.41187 2.98646L11.8358 25.9115H13.677L15.4226 20.8696L19.7679 23.985L21.263 22.925L19.6648 17.8759L25.056 17.8473L25.6378 16.1284L5.90696 1.92651Z" fill="white" fill-opacity="0.6"/>
<path d="M34.6301 12.9198C34.6301 7.07577 37.5688 3.94604 43.4019 3.94604C48.4911 3.94604 51.4297 6.38108 51.6875 10.9575H47.5189C47.3642 8.34342 46.0606 7.12591 43.4019 7.12591C40.2791 7.12591 38.8503 9.01663 38.8503 12.9198C38.8503 16.823 40.2791 18.7138 43.4019 18.7138C46.0901 18.7138 47.4452 17.4175 47.541 14.832H51.7096C51.6065 19.4586 48.6384 21.8936 43.4019 21.8936C37.5688 21.8936 34.6301 18.7854 34.6301 12.9198ZM57.1523 21.6215H53.3446V4.23252H57.1523V21.6215ZM63.4641 4.23252V7.51264H59.627V4.23252H63.4641ZM63.442 9.27445V21.6215H59.6343V9.27445H63.442ZM78.8791 13.4928H75.1745C75.0714 11.5806 74.2023 10.6352 72.2359 10.6352C69.9822 10.6352 68.9879 11.9029 68.9879 14.8106C68.9879 17.7183 69.9822 18.9859 72.2359 18.9859C74.2023 18.9859 75.0714 18.0692 75.1745 16.0281H78.8791C78.8054 19.831 76.5297 21.8936 72.258 21.8936C67.6033 21.8936 65.0697 19.4299 65.0697 14.8106C65.0697 10.1912 67.6033 7.72749 72.258 7.72749C76.4781 7.72749 78.776 9.84024 78.8791 13.4928ZM80.4478 21.6215V4.23252H84.1819V13.5429L89.4479 8.02113H93.7711L89.4552 12.483L93.9037 21.6215H90.096L86.823 15.1787L84.1893 17.8185V21.6215H80.4552H80.4478ZM95.1631 21.6215V4.21819H107.949V7.4267H99.2581V11.9029H107.75V15.1114H99.2581V21.6286H95.1705L95.1631 21.6215ZM118.098 16.4506V8.02113H121.883V21.6215H118.834L118.098 19.6806C117.229 21.07 115.77 21.8936 113.701 21.8936C110.814 21.8936 109.201 20.6475 109.201 17.6395V8.01397H112.986V16.9663C112.986 18.3342 113.752 19.0074 115.365 19.0074C116.978 19.0074 118.098 18.1337 118.098 16.4435V16.4506ZM124.358 21.6215V8.02113H127.429L128.166 10.2127C129.035 8.64421 130.545 7.72749 132.791 7.72749C135.936 7.72749 137.365 9.36757 137.365 12.4257V21.6286H133.579V13.0774C133.579 11.4087 132.835 10.6639 131.075 10.6639C129.182 10.6639 128.158 11.6594 128.158 13.6002V21.6286H124.351L124.358 21.6215ZM139.685 21.6215V8.02113H142.756L143.492 10.2127C144.361 8.64421 145.871 7.72749 148.118 7.72749C151.262 7.72749 152.691 9.36757 152.691 12.4257V21.6286H148.906V13.0774C148.906 11.4087 148.162 10.6639 146.401 10.6639C144.509 10.6639 143.485 11.6594 143.485 13.6002V21.6286H139.677L139.685 21.6215ZM161.323 21.8936C156.595 21.8936 154.164 19.4299 154.164 14.8106C154.164 10.1912 156.617 7.72749 161.323 7.72749C166.029 7.72749 168.077 10.1124 168.077 14.2448C168.077 14.7891 168.025 15.1615 167.974 15.6342H157.876C158.053 18.0978 159.055 19.0647 161.456 19.0647C163.37 19.0647 164.343 18.4703 164.424 17.1525H167.981C167.723 20.2607 165.447 21.9008 161.33 21.9008L161.323 21.8936ZM161.352 10.3845C159.231 10.3845 158.23 11.2296 157.928 13.3424H164.549C164.446 11.4015 163.606 10.3845 161.352 10.3845ZM173.571 21.6215H169.763V4.23252H173.571V21.6215ZM181.621 10.3058C179.728 10.3058 178.984 10.7784 178.984 11.6952C178.984 12.6119 179.441 12.9127 181.032 13.1347L183.028 13.3854C186.659 13.8294 187.962 14.9753 187.962 17.5392C187.962 20.3252 185.966 21.8936 181.569 21.8936C177.172 21.8936 175.073 20.5758 175.073 17.1453H178.601C178.601 18.6636 179.522 19.3082 181.569 19.3082C183.462 19.3082 184.331 18.8642 184.331 17.7899C184.331 16.8445 183.823 16.5222 182.181 16.3002L180.03 16.0281C176.907 15.6055 175.375 14.3379 175.375 12.0246C175.375 9.31743 177.526 7.72034 181.614 7.72034C185.701 7.72034 187.594 9.10973 187.594 12.1464H184.191C184.191 10.8501 183.396 10.3058 181.606 10.3058H181.621Z" fill="white" fill-opacity="0.6"/>
</g>
</svg>
