<svg width="107" height="38" viewBox="0 0 107 38" fill="none" xmlns="http://www.w3.org/2000/svg">
<path d="M0 0V29.6526L3.86389 29.6673V15.547H13.1521V11.811H3.84903V3.72128H15.9608V0H0ZM22.8861 6.03054C23.5562 6.03054 24.1988 5.7671 24.6725 5.29817C25.1463 4.82924 25.4125 4.19324 25.4125 3.53007C25.4125 2.86691 25.1463 2.2309 24.6725 1.76197C24.1988 1.29305 23.5562 1.0296 22.8861 1.0296C22.2161 1.0296 21.5735 1.29305 21.0997 1.76197C20.6259 2.2309 20.3597 2.86691 20.3597 3.53007C20.3597 4.19324 20.6259 4.82924 21.0997 5.29817C21.5735 5.7671 22.2161 6.03054 22.8861 6.03054ZM20.9393 9.75182V29.6673H24.8032V9.75182H20.9393Z" fill="white" fill-opacity="0.6"/>
<path fill-rule="evenodd" clip-rule="evenodd" d="M39.0847 9.17817C33.9724 9.17817 30.4058 13.4584 30.4058 18.5476C30.4058 23.6368 33.9724 27.917 39.0847 27.917C41.4327 27.917 43.3647 27.0345 44.7765 25.5636V28.2111C44.7863 29.0022 44.6376 29.7874 44.339 30.5212C44.0403 31.2551 43.5977 31.9231 43.0366 32.4866C42.4756 33.0501 41.8072 33.4979 41.0702 33.8042C40.3332 34.1105 39.5422 34.2692 38.7429 34.2711C37.5094 34.2711 36.2908 33.8004 35.3248 33.1238L33.3929 36.4333C34.8867 37.389 36.6135 37.9279 38.3911 37.9933C40.1687 38.0586 41.9311 37.6478 43.4924 36.8044C45.0538 35.9609 46.3562 34.716 47.2623 33.201C48.1683 31.686 48.6444 29.957 48.6404 28.1964V9.76652H44.7765V11.5463C43.3647 10.0754 41.4327 9.19288 39.0847 9.19288V9.17817ZM34.2548 18.5476C34.2548 15.3852 36.692 12.8995 39.5156 12.8995C42.3393 12.8995 44.7616 15.3999 44.7616 18.5476C44.7616 21.7099 42.3244 24.181 39.5156 24.181C36.692 24.181 34.2548 21.7099 34.2548 18.5476Z" fill="white" fill-opacity="0.6"/>
<path d="M62.5206 12.8995C61.4156 12.9189 60.3626 13.368 59.5894 14.1497C58.8163 14.9314 58.3852 15.9829 58.3892 17.0768V29.6674H54.5253V9.7519H58.3892V11.5758C58.9673 10.8175 59.7182 10.205 60.5808 9.7884C61.4434 9.37177 62.3932 9.16271 63.3528 9.17826C66.0576 9.17826 68.1381 10.502 69.327 12.5318C69.9903 11.5143 70.8981 10.6753 71.9692 10.0901C73.0403 9.50487 74.2412 9.19157 75.4646 9.17826C79.8487 9.17826 82.598 12.6789 82.598 17.018V29.6674H78.7638V17.0621C78.7679 15.9682 78.3367 14.9167 77.5636 14.135C76.7905 13.3532 75.7375 12.9042 74.6324 12.8848C73.5274 12.9042 72.4744 13.3532 71.7012 14.135C70.9281 14.9167 70.497 15.9682 70.501 17.0621V29.6527H66.6372V17.0621C66.6413 15.9707 66.2122 14.9213 65.4422 14.14C64.6723 13.3587 63.6231 12.908 62.5206 12.8848V12.8995Z" fill="white" fill-opacity="0.6"/>
<path fill-rule="evenodd" clip-rule="evenodd" d="M103.151 12.017C102.274 11.1115 101.219 10.3927 100.051 9.90455C98.8832 9.41644 97.6271 9.16929 96.3595 9.17823C90.6231 9.17823 86.5511 13.9732 86.5511 19.7096C86.5511 25.446 90.6231 30.241 96.3595 30.241C97.6267 30.2474 98.882 29.999 100.049 29.5111C101.217 29.0231 102.272 28.3057 103.151 27.4022V29.6674H107V9.75187H103.136V12.017H103.151ZM90.4001 19.7096C90.4001 15.9148 93.3427 12.8995 96.7756 12.8995C100.194 12.8995 103.151 15.9148 103.151 19.7096C103.151 23.5044 100.208 26.505 96.7756 26.505C93.3575 26.505 90.4001 23.5044 90.4001 19.7096Z" fill="white" fill-opacity="0.6"/>
</svg>
