<svg width="169" height="40" viewBox="0 0 169 40" fill="none" xmlns="http://www.w3.org/2000/svg">
<path d="M48.0505 32.4739V5.80726H63.5885V10.9686H53.9372V18.137H63.5885V23.2266H53.9372V32.4739H48.0505Z" fill="white" fill-opacity="0.6"/>
<path d="M67.489 32.4737V14.1224H73.0334V17.9217C73.3072 16.6314 73.9232 15.5561 74.8131 14.8392C75.7029 14.1224 76.7296 13.764 77.8248 13.764C78.3724 13.764 78.92 13.8357 79.2623 13.9073V19.3554C78.5778 19.2837 78.0302 19.212 77.6195 19.212C74.5393 19.212 73.0334 21.2909 73.0334 25.3052V32.402H67.489V32.4737Z" fill="white" fill-opacity="0.6"/>
<path d="M88.8472 32.9039C86.3146 32.9039 84.2612 31.972 82.8237 30.1799C81.3179 28.3878 80.6334 26.0222 80.6334 23.2265C80.6334 20.4308 81.3863 18.1369 82.8922 16.2731C84.3981 14.481 86.4515 13.5491 88.9157 13.5491C90.1478 13.5491 91.243 13.8358 92.2012 14.4093C93.1595 14.9828 93.9125 15.6996 94.3916 16.7032V14.0509H99.936V32.4021H94.3916V29.8215C93.9125 30.7534 93.1595 31.4702 92.1328 32.0437C91.1745 32.6888 90.0793 32.9039 88.8472 32.9039ZM90.4216 28.101C91.7221 28.101 92.8173 27.6709 93.5018 26.739C94.1863 25.8071 94.597 24.6602 94.597 23.2982C94.597 21.9362 94.2547 20.7892 93.5018 19.8573C92.7488 18.9254 91.7221 18.4953 90.4216 18.4953C89.1895 18.4953 88.1628 18.9254 87.4098 19.8573C86.6569 20.7175 86.2462 21.9362 86.2462 23.2982C86.2462 24.7319 86.6569 25.8788 87.4098 26.8107C88.1628 27.6709 89.1895 28.101 90.4216 28.101Z" fill="white" fill-opacity="0.6"/>
<path d="M104.521 32.4742V14.123H110.065V16.7753C110.476 15.8434 111.092 15.0549 111.982 14.4814C112.872 13.9079 113.899 13.6212 115.062 13.6212C117.8 13.6212 119.648 14.7681 120.538 16.9903C121.017 15.9868 121.77 15.1265 122.728 14.5531C123.755 13.9079 124.85 13.6212 126.082 13.6212C130.258 13.6212 132.311 16.1301 132.311 21.0764V32.4742H126.699V22.1516C126.699 19.7144 125.809 18.5674 124.097 18.5674C122.112 18.5674 121.154 20.0728 121.154 23.0835V32.5459H115.678V22.0799C115.678 19.7144 114.788 18.4957 113.077 18.4957C112.119 18.4957 111.366 18.8541 110.887 19.4993C110.408 20.1445 110.134 21.3631 110.134 23.0118V32.4742H104.521Z" fill="white" fill-opacity="0.6"/>
<path d="M154.079 22.295C154.079 23.0835 154.01 23.8721 153.942 24.8756H141.005C141.073 26.0943 141.416 27.0262 142.169 27.6713C142.921 28.3165 143.88 28.6749 145.112 28.6749C146.823 28.6749 147.918 28.1014 148.397 26.9545H153.873C153.6 28.7466 152.641 30.252 151.067 31.3273C149.424 32.4742 147.508 33.0477 145.18 33.0477C142.169 33.0477 139.841 32.1875 138.13 30.467C136.419 28.7466 135.529 26.381 135.529 23.2986C135.529 20.2878 136.419 17.9222 138.13 16.2018C139.841 14.4814 142.169 13.6212 144.975 13.6212C147.713 13.6212 149.903 14.4097 151.614 16.0584C153.189 17.6355 154.079 19.7144 154.079 22.295ZM140.936 21.2197H148.534C148.534 20.0011 148.192 19.0692 147.576 18.424C146.96 17.7789 146.07 17.4204 144.838 17.4204C143.674 17.4204 142.716 17.7789 142.032 18.4957C141.347 19.2126 141.005 20.1445 140.936 21.2197Z" fill="white" fill-opacity="0.6"/>
<path d="M157.227 32.4737V14.1224H162.771V17.9217C163.045 16.6314 163.661 15.5561 164.551 14.8392C165.441 14.1224 166.467 13.764 167.563 13.764C168.11 13.764 168.658 13.8357 169 13.9073V19.3554C168.316 19.2837 167.768 19.212 167.357 19.212C164.277 19.212 162.771 21.2909 162.771 25.3052V32.402H157.227V32.4737Z" fill="white" fill-opacity="0.6"/>
<path d="M25.463 0V13.3333H12.7315L0 0H25.463ZM0 13.3333H12.7315L25.463 26.6667H12.7315V40L0 26.6667V13.3333Z" fill="white" fill-opacity="0.6"/>
</svg>
