<svg width="66" height="66" viewBox="0 0 66 66" fill="none" xmlns="http://www.w3.org/2000/svg">
<path d="M66 0H0V66H66V0Z" fill="#808080"/>
<path d="M44.3353 51.5628C45.6647 53.7335 47.3943 55.329 50.4534 55.329C53.0232 55.329 54.6648 54.0446 54.6648 52.27C54.6648 50.1433 52.9781 49.3901 50.1496 48.1528L48.5991 47.4876C44.1236 45.5809 41.1505 43.1923 41.1505 38.1428C41.1505 33.4914 44.6946 29.9504 50.2334 29.9504C54.1766 29.9504 57.0115 31.3228 59.0543 34.9162L54.2248 38.0171C53.1615 36.1104 52.0143 35.3593 50.2334 35.3593C48.4168 35.3593 47.2655 36.5117 47.2655 38.0171C47.2655 39.8777 48.4178 40.6309 51.0788 41.7833L52.6293 42.4475C57.8988 44.7072 60.874 47.0109 60.874 52.1903C60.874 57.7742 56.4876 60.8332 50.5969 60.8332C44.8371 60.8332 41.1159 58.0884 39.2952 54.4909L44.3353 51.5628ZM22.4264 52.1002C23.4007 53.8288 24.287 55.2902 26.4178 55.2902C28.4555 55.2902 29.7409 54.493 29.7409 51.3931V30.3045H35.9428V51.4769C35.9428 57.8988 32.1776 60.8217 26.6818 60.8217C21.7161 60.8217 18.8404 58.2519 17.3779 55.1567L22.4264 52.1002Z" fill="black"/>
</svg>
