<svg width="126" height="26" viewBox="0 0 126 26" fill="none" xmlns="http://www.w3.org/2000/svg">
<path d="M83.7607 0.0107422H105.708V4.12749H97.0016V25.7852H92.6482V4.12749H83.7607V0.0107422Z" fill="#808080"/>
<path d="M47.6662 0.0107422V4.12749H30.0742V10.7501H44.2216V14.8668H30.0742V21.6684H47.6662V25.7852H25.7211V4.12749H25.7192V0.0107422H47.6662Z" fill="#808080"/>
<path d="M58.6251 0.0214844H52.9282L73.3332 25.7959H79.0467L68.8429 12.9176L79.0304 0.0411486L73.3332 0.0500959L65.9907 9.31764L58.6251 0.0214844Z" fill="#808080"/>
<path d="M64.4712 18.4323L61.6183 14.8274L52.9121 25.8155H58.6253L64.4712 18.4323Z" fill="#808080"/>
<path fill-rule="evenodd" clip-rule="evenodd" d="M25.8738 25.7852L5.44138 0H0V25.7744H4.35311V5.50927L20.4052 25.7852H25.8738Z" fill="#808080"/>
<path d="M106.686 25.6277C106.367 25.6277 106.096 25.5155 105.869 25.291C105.642 25.0665 105.53 24.7948 105.533 24.4728C105.53 24.1597 105.642 23.8909 105.869 23.6664C106.096 23.442 106.367 23.3297 106.686 23.3297C106.993 23.3297 107.261 23.442 107.488 23.6664C107.719 23.8909 107.833 24.1597 107.837 24.4728C107.833 24.6855 107.78 24.8804 107.674 25.0547C107.565 25.2319 107.427 25.3708 107.252 25.4712C107.081 25.5746 106.893 25.6277 106.686 25.6277Z" fill="#808080"/>
<path d="M114.116 14.7698H116.045V22.3225C116.042 23.0167 115.895 23.6104 115.606 24.1096C115.314 24.6088 114.91 24.9898 114.391 25.2586C113.875 25.5244 113.27 25.6603 112.583 25.6603C111.954 25.6603 111.391 25.5451 110.89 25.3206C110.388 25.0961 109.99 24.7594 109.698 24.3163C109.403 23.8733 109.258 23.3209 109.258 22.6593H111.191C111.193 22.9488 111.258 23.1998 111.382 23.4095C111.506 23.6192 111.677 23.7787 111.895 23.891C112.116 24.0032 112.37 24.0593 112.656 24.0593C112.966 24.0593 113.231 23.9943 113.447 23.8614C113.662 23.7315 113.827 23.5365 113.942 23.2766C114.054 23.0196 114.113 22.7006 114.116 22.3225V14.7698Z" fill="#808080"/>
<path d="M123.982 17.7235C123.935 17.2657 123.729 16.9083 123.369 16.6542C123.006 16.3973 122.537 16.2702 121.962 16.2702C121.558 16.2702 121.21 16.3323 120.921 16.4534C120.632 16.5774 120.407 16.7428 120.254 16.9526C120.101 17.1623 120.024 17.4015 120.018 17.6703C120.018 17.8948 120.071 18.0898 120.174 18.2522C120.278 18.4176 120.416 18.5565 120.596 18.6687C120.773 18.7839 120.971 18.8784 121.186 18.9552C121.404 19.032 121.623 19.097 121.841 19.1502L122.847 19.4012C123.251 19.4957 123.643 19.6228 124.018 19.7852C124.392 19.9447 124.731 20.1485 125.029 20.3937C125.327 20.6389 125.563 20.9342 125.737 21.2798C125.911 21.6254 126 22.0301 126 22.4968C126 23.1259 125.841 23.6783 125.519 24.1568C125.197 24.6323 124.734 25.0045 124.127 25.2733C123.522 25.5392 122.791 25.675 121.929 25.675C121.098 25.675 120.372 25.5451 119.762 25.2851C119.148 25.0282 118.67 24.65 118.325 24.1538C117.98 23.6576 117.794 23.0521 117.768 22.3402H119.679C119.706 22.7124 119.824 23.0225 120.024 23.2736C120.227 23.5217 120.493 23.7049 120.817 23.8289C121.145 23.95 121.51 24.012 121.915 24.012C122.337 24.012 122.708 23.947 123.03 23.82C123.348 23.693 123.599 23.5158 123.779 23.2854C123.962 23.058 124.053 22.7892 124.056 22.482C124.053 22.2014 123.97 21.968 123.811 21.7849C123.649 21.6018 123.425 21.4482 123.139 21.3241C122.85 21.2001 122.513 21.0878 122.13 20.9904L120.909 20.6772C120.027 20.4498 119.328 20.1042 118.817 19.6405C118.305 19.1768 118.051 18.5624 118.051 17.7914C118.051 17.1594 118.222 16.6041 118.567 16.1285C118.909 15.6529 119.378 15.2837 119.971 15.0208C120.567 14.755 121.239 14.625 121.988 14.625C122.749 14.625 123.416 14.755 123.991 15.0208C124.566 15.2837 125.018 15.65 125.345 16.1167C125.672 16.5834 125.843 17.118 125.852 17.7235H123.982Z" fill="#808080"/>
</svg>
