<svg width="84" height="84" viewBox="0 0 84 84" fill="none" xmlns="http://www.w3.org/2000/svg">
<path d="M41.6975 0C20.373 0 21.7044 9.24757 21.7044 9.24757L21.7281 18.8283H42.0777V21.7047H13.6456C13.6456 21.7047 0 20.1572 0 41.6734C0 63.1903 11.9102 62.4273 11.9102 62.4273H19.0181V52.4426C19.0181 52.4426 18.6349 40.5324 30.7382 40.5324H50.9214C50.9214 40.5324 62.2609 40.7156 62.2609 29.5731V11.1497C62.2609 11.1497 63.9831 0 41.6975 0ZM30.4767 6.44287C30.9576 6.44244 31.4338 6.53684 31.8782 6.72066C32.3225 6.90448 32.7263 7.17412 33.0663 7.51415C33.4063 7.85418 33.676 8.25793 33.8598 8.70228C34.0436 9.14663 34.138 9.62287 34.1376 10.1037C34.138 10.5846 34.0436 11.0609 33.8598 11.5052C33.676 11.9496 33.4063 12.3533 33.0663 12.6933C32.7263 13.0334 32.3225 13.303 31.8782 13.4868C31.4338 13.6707 30.9576 13.7651 30.4767 13.7646C29.9958 13.7651 29.5196 13.6707 29.0752 13.4868C28.6309 13.303 28.2271 13.0334 27.8871 12.6933C27.5471 12.3533 27.2774 11.9496 27.0936 11.5052C26.9098 11.0609 26.8154 10.5846 26.8158 10.1037C26.8154 9.62287 26.9098 9.14663 27.0936 8.70228C27.2774 8.25793 27.5471 7.85418 27.8871 7.51415C28.2271 7.17412 28.6309 6.90448 29.0752 6.72066C29.5196 6.53684 29.9958 6.44244 30.4767 6.44287Z" fill="#808080"/>
<path d="M42.3031 83.5635C63.6276 83.5635 62.2961 74.3159 62.2961 74.3159L62.2724 64.7355H41.9225V61.8591H70.3547C70.3547 61.8591 84.0002 63.4067 84.0002 41.8897C84.0002 20.3731 72.09 21.1362 72.09 21.1362H64.9821V31.1205C64.9821 31.1205 65.3653 43.0307 53.262 43.0307H33.0788C33.0788 43.0307 21.7393 42.8475 21.7393 53.9903V72.4141C21.7393 72.4141 20.0175 83.5635 42.3027 83.5635H42.3031ZM53.5238 77.1213C53.043 77.1217 52.5667 77.0273 52.1224 76.8435C51.678 76.6597 51.2743 76.39 50.9342 76.05C50.5942 75.71 50.3246 75.3062 50.1407 74.8619C49.9569 74.4175 49.8625 73.9413 49.863 73.4604C49.8625 72.9795 49.9568 72.5032 50.1407 72.0588C50.3245 71.6145 50.5941 71.2107 50.9341 70.8706C51.2742 70.5305 51.6779 70.2609 52.1223 70.077C52.5667 69.8932 53.0429 69.7988 53.5238 69.7992C54.0047 69.7988 54.481 69.8932 54.9253 70.077C55.3697 70.2608 55.7734 70.5305 56.1134 70.8705C56.4535 71.2105 56.7231 71.6143 56.9069 72.0586C57.0908 72.503 57.1852 72.9792 57.1847 73.4601C57.1852 73.941 57.0908 74.4172 56.9069 74.8616C56.7231 75.3059 56.4535 75.7097 56.1134 76.0497C55.7734 76.3897 55.3697 76.6594 54.9253 76.8432C54.481 77.027 54.0047 77.1214 53.5238 77.121V77.1213Z" fill="#808080"/>
</svg>
