<svg width="69" height="67" viewBox="0 0 69 67" fill="none" xmlns="http://www.w3.org/2000/svg">
<path d="M34.1931 39.4044C37.4552 39.4044 40.0996 36.76 40.0996 33.4979C40.0996 30.2359 37.4552 27.5914 34.1931 27.5914C30.9311 27.5914 28.2866 30.2359 28.2866 33.4979C28.2866 36.76 30.9311 39.4044 34.1931 39.4044Z" fill="white" fill-opacity="0.6"/>
<path d="M34.1935 45.599C51.6973 45.599 65.8869 40.1811 65.8869 33.4979C65.8869 26.8146 51.6973 21.3967 34.1935 21.3967C16.6896 21.3967 2.5 26.8146 2.5 33.4979C2.5 40.1811 16.6896 45.599 34.1935 45.599Z" stroke="white" stroke-opacity="0.6" stroke-width="5"/>
<path d="M23.7136 39.5485C32.4655 54.7072 44.2523 64.2869 50.0402 60.9452C55.8281 57.6036 53.4253 42.6061 44.6734 27.4473C35.9215 12.2886 24.1347 2.70893 18.3468 6.05057C12.5589 9.3922 14.9617 24.3897 23.7136 39.5485Z" stroke="white" stroke-opacity="0.6" stroke-width="5"/>
<path d="M23.7135 27.4474C14.9616 42.6061 12.5588 57.6037 18.3467 60.9453C24.1346 64.2869 35.9214 54.7073 44.6733 39.5485C53.4252 24.3898 55.828 9.39227 50.0401 6.05063C44.2522 2.70899 32.4654 12.2886 23.7135 27.4474Z" stroke="white" stroke-opacity="0.6" stroke-width="5"/>
</svg>
