<svg width="106" height="34" viewBox="0 0 106 34" fill="none" xmlns="http://www.w3.org/2000/svg">
<path d="M9.09509 15.2555C7.82119 14.5755 7.16942 13.9842 7.16942 13.1859C7.16942 12.1807 8.08782 11.5303 9.50985 11.5303C11.1689 11.5303 12.6502 12.2103 12.6502 12.2103L13.8056 8.66241C13.8056 8.66241 12.7391 7.83457 9.59873 7.83457C5.21413 7.83457 2.16268 10.3476 2.16268 13.8659C2.16268 15.8764 3.58471 17.3842 5.48076 18.4781C7.02129 19.3355 7.55455 19.9564 7.55455 20.8729C7.55455 21.819 6.78429 22.5877 5.36225 22.5877C3.25883 22.5877 1.24428 21.4938 1.24428 21.4938L0 25.0417C0 25.0417 1.83679 26.2834 4.94749 26.2834C9.4506 26.2834 12.7094 24.066 12.7094 20.0747C12.6798 17.9164 11.0504 16.379 9.09509 15.2555Z" fill="white" fill-opacity="0.6"/>
<path d="M27.0484 7.7757C24.8264 7.7757 23.0785 8.84005 21.7454 10.4366L21.6861 10.407L23.6118 0.354766H18.605L13.7168 25.9585H18.7235L20.3826 17.2071C21.0343 13.8958 22.7526 11.8557 24.3524 11.8557C25.4782 11.8557 25.9226 12.6244 25.9226 13.7184C25.9226 14.3984 25.8633 15.2558 25.7152 15.9358L23.8192 25.9585H28.8259L30.7812 15.6105C30.9886 14.5166 31.1367 13.2157 31.1367 12.3288C31.1663 9.49049 29.685 7.7757 27.0484 7.7757Z" fill="white" fill-opacity="0.6"/>
<path d="M42.5126 7.77526C36.4689 7.77526 32.4694 13.2153 32.4694 19.2762C32.4694 23.1493 34.8691 26.2832 39.3722 26.2832C45.2974 26.2832 49.2968 20.991 49.2968 14.7823C49.3265 11.2049 47.223 7.77526 42.5126 7.77526ZM40.0536 22.4693C38.3353 22.4693 37.6243 21.0206 37.6243 19.1875C37.6243 16.3197 39.1056 11.6483 41.8312 11.6483C43.6087 11.6483 44.2012 13.1857 44.2012 14.664C44.2012 17.7388 42.6903 22.4693 40.0536 22.4693Z" fill="white" fill-opacity="0.6"/>
<path d="M62.1551 7.77526C58.7777 7.77526 56.8521 10.7614 56.8521 10.7614H56.7928L57.0891 8.07092H52.6452C52.4378 9.87441 52.0231 12.6536 51.6379 14.7231L48.1421 33.0537H53.1489L54.5413 25.6328H54.6598C54.6598 25.6328 55.6967 26.2832 57.5927 26.2832C63.4882 26.2832 67.3396 20.2519 67.3396 14.1614C67.3396 10.7909 65.8287 7.77526 62.1551 7.77526ZM57.3557 22.5284C56.0522 22.5284 55.2819 21.7893 55.2819 21.7893L56.1114 17.118C56.7039 13.984 58.3334 11.9144 60.0813 11.9144C61.6218 11.9144 62.0958 13.3336 62.0958 14.664C62.0958 17.9162 60.1701 22.5284 57.3557 22.5284Z" fill="white" fill-opacity="0.6"/>
<path d="M74.5081 0.591184C72.9083 0.591184 71.6344 1.8625 71.6344 3.4886C71.6344 4.96687 72.5824 6.00167 74.0045 6.00167H74.0637C75.6339 6.00167 76.967 4.93731 76.9967 3.10425C76.9967 1.65554 76.019 0.591184 74.5081 0.591184Z" fill="white" fill-opacity="0.6"/>
<path d="M67.4871 25.9286H72.4939L75.9008 8.18934H70.8645L67.4871 25.9286Z" fill="white" fill-opacity="0.6"/>
<path d="M88.6692 8.16007H85.1734L85.3511 7.33224C85.6474 5.61744 86.6547 4.1096 88.3433 4.1096C89.2321 4.1096 89.9431 4.37569 89.9431 4.37569L90.9208 0.443482C90.9208 0.443482 90.0616 0 88.1952 0C86.4177 0 84.6401 0.502614 83.2773 1.65567C81.559 3.10437 80.7591 5.20352 80.374 7.33224L80.2259 8.16007H77.8855L77.1448 11.9444H79.4852L76.8189 25.9585H81.8257L84.492 11.9444H87.9582L88.6692 8.16007Z" fill="white" fill-opacity="0.6"/>
<path d="M100.756 8.18934C100.756 8.18934 97.6159 16.0833 96.2235 20.3999H96.1643C96.0754 19.0103 94.92 8.18934 94.92 8.18934H89.6466L92.6684 24.4799C92.7277 24.8347 92.6981 25.0712 92.5499 25.3078C91.9574 26.4312 90.9798 27.5252 89.8244 28.3234C88.8763 29.0034 87.8098 29.4469 86.9803 29.7426L88.3727 34C89.38 33.793 91.513 32.9356 93.2906 31.28C95.5717 29.1513 97.7048 25.8399 99.8675 21.346L106 8.18934H100.756Z" fill="white" fill-opacity="0.6"/>
</svg>
