<svg width="263" height="40" viewBox="0 0 263 40" fill="none" xmlns="http://www.w3.org/2000/svg">
<path fill-rule="evenodd" clip-rule="evenodd" d="M9.77305 21.1765L24.5319 5.49756C25.5346 4.43232 26.8688 3.84657 28.291 3.84657C29.7121 3.84657 31.0463 4.43176 32.048 5.49701L33.1978 6.71857L35.4981 4.27489L34.3483 3.05333C32.7329 1.33725 30.5818 0.392157 28.2899 0.392157C25.9991 0.392713 23.8475 1.33781 22.2321 3.05445L7.47329 18.7328L9.77305 21.1765Z" fill="white" fill-opacity="0.6"/>
<path fill-rule="evenodd" clip-rule="evenodd" d="M29.5195 10.7056L27.2083 8.26553L12.3802 23.9212C10.2979 26.1196 6.9098 26.1202 4.82802 23.9223C2.74572 21.7239 2.74572 18.1463 4.82802 15.9478L17.6233 2.4395L15.3122 0L2.51739 13.5083C-0.83913 17.0521 -0.83913 22.8187 2.51739 26.3618C4.14041 28.0754 6.30163 29.0196 8.60332 29.0196C10.9055 29.0196 13.0678 28.0748 14.6908 26.3613L29.5195 10.7056Z" fill="white" fill-opacity="0.6"/>
<path fill-rule="evenodd" clip-rule="evenodd" d="M44.1903 13.6377C42.5678 11.9241 40.4065 10.9804 38.1038 10.9804C35.8016 10.9809 33.6393 11.9247 32.0162 13.6388L17.1886 29.2942L19.4987 31.7343L34.3274 16.0783C36.4103 13.8799 39.7978 13.8804 41.8796 16.0778C42.8866 17.1409 43.4411 18.5562 43.4411 20.0643C43.4411 21.5729 42.8866 22.9887 41.8796 24.0519L29.0848 37.5605L31.396 40L44.1903 26.492C47.5473 22.9482 47.5473 17.1815 44.1903 13.6377Z" fill="white" fill-opacity="0.6"/>
<path fill-rule="evenodd" clip-rule="evenodd" d="M36.9351 18.8235L22.1765 34.5024C20.1035 36.7036 16.732 36.7047 14.66 34.503L13.5102 33.2814L11.2099 35.7251L12.3598 36.9467C13.9751 38.6627 16.1261 39.6078 18.4185 39.6078C20.7093 39.6073 22.8603 38.6622 24.4762 36.9456L39.2348 21.2672L36.9351 18.8235Z" fill="white" fill-opacity="0.6"/>
<path fill-rule="evenodd" clip-rule="evenodd" d="M60.3375 24.0826C60.5279 25.083 60.974 25.8662 61.6749 26.4305C62.3752 26.996 63.2967 27.2782 64.4395 27.2782C65.564 27.2782 66.4332 27.0005 67.0478 26.4445C67.6623 25.8892 67.9693 25.1575 67.9693 24.2494C67.9693 23.8049 67.8872 23.4298 67.723 23.1241C67.5582 22.8184 67.3291 22.5592 67.0352 22.3459C66.7402 22.1337 66.3773 21.9523 65.9447 21.8045C65.5122 21.6562 65.0274 21.4989 64.4907 21.332L63.0896 20.9155C62.2585 20.6748 61.5143 20.3831 60.8569 20.0399C60.1989 19.6973 59.6367 19.2942 59.1696 18.8312C58.7026 18.3682 58.3475 17.8358 58.1053 17.2334C57.8631 16.6315 57.7418 15.9317 57.7418 15.1356C57.7418 14.302 57.8977 13.5334 58.2094 12.8291C58.5206 12.1259 58.962 11.5229 59.5331 11.023C60.1042 10.5231 60.7962 10.1295 61.61 9.84173C62.4228 9.55564 63.3396 9.41177 64.361 9.41177C66.2821 9.41177 67.8046 9.89771 68.9301 10.8702C70.0546 11.8432 70.712 13.1443 70.9029 14.7745L67.7878 15.0522C67.5969 14.2186 67.2167 13.5703 66.6456 13.1073C66.0744 12.6443 65.2784 12.4125 64.2575 12.4125C63.3056 12.4125 62.5614 12.6488 62.0253 13.1213C61.4881 13.5938 61.2198 14.2007 61.2198 14.9414C61.2198 15.3674 61.2983 15.7235 61.4541 16.0107C61.61 16.2984 61.8344 16.5481 62.1288 16.7609C62.4228 16.9742 62.7821 17.164 63.2057 17.3302C63.6299 17.4971 64.11 17.674 64.6466 17.8587L65.9709 18.3033C66.8009 18.5809 67.5499 18.8726 68.2156 19.1783C68.882 19.484 69.4489 19.8501 69.9159 20.2762C70.3835 20.7022 70.7428 21.2117 70.9934 21.8045C71.2444 22.3974 71.3699 23.1291 71.3699 23.9997C71.3699 24.9262 71.1968 25.7738 70.8511 26.542C70.5043 27.3112 70.0206 27.964 69.3971 28.5009C68.7742 29.0383 68.0347 29.4554 67.1775 29.751C66.3208 30.0472 65.3736 30.1961 64.3354 30.1961C62.4144 30.1961 60.8134 29.7146 59.5331 28.7511C58.2523 27.7876 57.4651 26.3337 57.1707 24.3882L60.3375 24.0826Z" fill="white" fill-opacity="0.6"/>
<path fill-rule="evenodd" clip-rule="evenodd" d="M84.7698 12.7909C83.8361 12.7909 83.0011 12.9753 82.266 13.3431C81.5304 13.7115 80.9077 14.2219 80.3979 14.8751C79.8871 15.5287 79.4976 16.3022 79.2294 17.1938C78.9617 18.0871 78.8279 19.0579 78.8279 20.1067C78.8279 21.156 78.9659 22.1312 79.243 23.0334C79.5191 23.9351 79.9133 24.7169 80.4236 25.3801C80.9333 26.0421 81.5565 26.5621 82.2921 26.9399C83.0267 27.3166 83.8617 27.505 84.796 27.505C85.7303 27.505 86.5647 27.3261 87.3003 26.9672C88.0349 26.6083 88.6581 26.1068 89.1684 25.462C89.6786 24.8184 90.0723 24.0404 90.3489 23.1299C90.6255 22.2187 90.764 21.2201 90.764 20.1345C90.764 19.0668 90.6255 18.0821 90.3489 17.1805C90.0723 16.2794 89.6786 15.5059 89.1684 14.8617C88.6581 14.218 88.0307 13.7115 87.2867 13.3431C86.5433 12.9753 85.7041 12.7909 84.7698 12.7909ZM84.796 9.80392C86.1971 9.80392 87.4775 10.0575 88.6367 10.5646C89.7952 11.0717 90.7813 11.7811 91.5948 12.6939C92.4073 13.6073 93.0383 14.6995 93.489 15.9718C93.9386 17.244 94.1635 18.636 94.1635 20.1479C94.1635 21.7161 93.9256 23.131 93.4503 24.3937C92.9735 25.6571 92.2954 26.7493 91.4129 27.671L93.9041 30.7967V31.7647H90.7384L88.9995 29.4972C88.3941 29.792 87.7447 30.0221 87.0535 30.1882C86.3613 30.3543 85.6173 30.4373 84.8221 30.4373C83.3859 30.4373 82.0929 30.1832 80.9427 29.6766C79.792 29.1695 78.8143 28.4596 78.0102 27.5468C77.2056 26.6339 76.5829 25.5467 76.1421 24.2828C75.7009 23.0201 75.4802 21.6419 75.4802 20.1479C75.4802 18.636 75.7009 17.249 76.1421 15.9851C76.5829 14.7229 77.2097 13.6346 78.0233 12.7218C78.8357 11.809 79.8176 11.0946 80.9683 10.578C82.1191 10.0625 83.3948 9.80392 84.796 9.80392Z" fill="white" fill-opacity="0.6"/>
<path fill-rule="evenodd" clip-rule="evenodd" d="M106.868 27.3345C108.196 27.3345 109.23 26.8951 109.971 26.0151C110.712 25.1351 111.083 23.7877 111.083 21.9724V9.80392H114.341V22.0558C114.341 23.5006 114.169 24.7366 113.824 25.7649C113.479 26.7926 112.988 27.6357 112.35 28.2934C111.712 28.9511 110.928 29.4325 109.997 29.7382C109.066 30.0438 108.023 30.1961 106.868 30.1961C105.695 30.1961 104.648 30.0438 103.726 29.7382C102.804 29.4325 102.024 28.9511 101.386 28.2934C100.748 27.6357 100.257 26.7926 99.9116 25.7649C99.5667 24.7366 99.3947 23.5006 99.3947 22.0558V9.80392H102.653V21.9724C102.653 23.7877 103.024 25.1351 103.765 26.0151C104.506 26.8951 105.54 27.3345 106.868 27.3345Z" fill="white" fill-opacity="0.6"/>
<path fill-rule="evenodd" clip-rule="evenodd" d="M123.676 21.2562H129.911L128.885 18.143C128.481 16.9237 128.157 15.9311 127.912 15.1668C127.666 14.402 127.446 13.7285 127.254 13.1458H126.439C126.333 13.4551 126.228 13.7648 126.123 14.0741C126.017 14.3838 125.899 14.7299 125.768 15.1118C125.636 15.4942 125.492 15.9311 125.334 16.423C125.176 16.9138 124.983 17.4877 124.755 18.143L123.676 21.2562ZM117.704 28.8482L124.413 10.1961H129.385L136.014 28.8482V29.8039H132.752L130.858 24.2054H122.677L120.783 29.8039H117.704V28.8482Z" fill="white" fill-opacity="0.6"/>
<path fill-rule="evenodd" clip-rule="evenodd" d="M143.355 19.1535H146.195C147.446 19.1535 148.431 18.9141 149.152 18.4365C149.872 17.9583 150.234 17.1781 150.234 16.0947C150.234 14.9942 149.868 14.2277 149.139 13.7947C148.409 13.3622 147.428 13.1454 146.195 13.1454H143.355V19.1535ZM154.323 29.8039H151.171L145.465 22.1027H143.355V29.8039H140.124V10.1961H146.195C147.15 10.1961 148.058 10.2643 148.917 10.4008C149.777 10.5372 150.554 10.8514 151.249 11.3428C152.725 12.3618 153.464 13.9003 153.464 15.9566C153.464 16.849 153.338 17.6271 153.086 18.2918C152.834 18.9559 152.499 19.5199 152.083 19.9843C151.666 20.4487 151.184 20.8262 150.637 21.1167C150.09 21.4083 149.521 21.6268 148.93 21.7721L154.323 28.8476V29.8039Z" fill="white" fill-opacity="0.6"/>
<path fill-rule="evenodd" clip-rule="evenodd" d="M158.434 10.1961H170.581V13.1998H161.647V18.3339H169.955V21.2831H161.647V26.7997H170.765V29.8039H158.434V10.1961Z" fill="white" fill-opacity="0.6"/>
<path fill-rule="evenodd" clip-rule="evenodd" d="M178.042 24.0826C178.232 25.083 178.678 25.8662 179.379 26.4305C180.08 26.996 181.001 27.2782 182.144 27.2782C183.268 27.2782 184.137 27.0005 184.752 26.4445C185.366 25.8892 185.674 25.1575 185.674 24.2494C185.674 23.8049 185.592 23.4298 185.427 23.1241C185.263 22.8184 185.033 22.5592 184.739 22.3459C184.445 22.1337 184.081 21.9523 183.649 21.8045C183.216 21.6562 182.731 21.4989 182.195 21.332L180.794 20.9155C179.963 20.6748 179.218 20.3831 178.561 20.0399C177.903 19.6973 177.341 19.2942 176.874 18.8312C176.407 18.3682 176.052 17.8358 175.81 17.2334C175.567 16.6315 175.446 15.9317 175.446 15.1356C175.446 14.302 175.602 13.5334 175.914 12.8291C176.225 12.1259 176.666 11.5229 177.237 11.023C177.808 10.5231 178.5 10.1295 179.314 9.84173C180.127 9.55564 181.044 9.41177 182.065 9.41177C183.986 9.41177 185.508 9.89771 186.634 10.8702C187.758 11.8432 188.416 13.1443 188.607 14.7745L185.492 15.0522C185.301 14.2186 184.921 13.5703 184.35 13.1073C183.779 12.6443 182.982 12.4125 181.962 12.4125C181.01 12.4125 180.265 12.6488 179.729 13.1213C179.193 13.5938 178.924 14.2007 178.924 14.9414C178.924 15.3674 179.002 15.7235 179.158 16.0107C179.314 16.2984 179.538 16.5481 179.833 16.7609C180.127 16.9742 180.486 17.164 180.91 17.3302C181.334 17.4971 181.815 17.674 182.351 17.8587L183.675 18.3033C184.505 18.5809 185.254 18.8726 185.92 19.1783C186.586 19.484 187.153 19.8501 187.62 20.2762C188.087 20.7022 188.447 21.2117 188.698 21.8045C188.948 22.3974 189.074 23.1291 189.074 23.9997C189.074 24.9262 188.901 25.7738 188.555 26.542C188.208 27.3112 187.724 27.964 187.101 28.5009C186.478 29.0383 185.739 29.4554 184.882 29.751C184.025 30.0472 183.078 30.1961 182.039 30.1961C180.119 30.1961 178.518 29.7146 177.237 28.7511C175.957 27.7876 175.169 26.3337 174.875 24.3882L178.042 24.0826Z" fill="white" fill-opacity="0.6"/>
<path fill-rule="evenodd" clip-rule="evenodd" d="M197.243 19.3172H200.421C201.004 19.3172 201.538 19.2677 202.023 19.1681C202.509 19.069 202.933 18.9023 203.295 18.6674C203.657 18.433 203.939 18.1171 204.143 17.7199C204.345 17.3232 204.447 16.8357 204.447 16.2579C204.447 15.6626 204.345 15.1624 204.143 14.7563C203.939 14.3503 203.661 14.0301 203.308 13.7951C202.955 13.5602 202.535 13.3934 202.05 13.2944C201.564 13.1954 201.039 13.1453 200.474 13.1453H197.243V19.3172ZM193.932 10.1961H200.871C202.16 10.1961 203.242 10.3507 204.116 10.6605C204.99 10.9697 205.696 11.3972 206.235 11.9441C206.773 12.49 207.162 13.1315 207.4 13.8694C207.638 14.6061 207.757 15.4029 207.757 16.2585C207.757 17.2786 207.594 18.1655 207.268 18.921C206.941 19.6765 206.469 20.2999 205.851 20.7918C205.232 21.2831 204.482 21.6518 203.599 21.8977C202.716 22.1437 201.719 22.2664 200.607 22.2664H197.243V29.8039H193.932V10.1961Z" fill="white" fill-opacity="0.6"/>
<path fill-rule="evenodd" clip-rule="evenodd" d="M214.477 21.2562H220.711L219.685 18.143C219.281 16.9237 218.957 15.9311 218.712 15.1668C218.466 14.402 218.247 13.7285 218.054 13.1458H217.239C217.134 13.4551 217.028 13.7648 216.923 14.0741C216.818 14.3838 216.699 14.7299 216.568 15.1118C216.436 15.4942 216.292 15.9311 216.134 16.423C215.976 16.9138 215.783 17.4877 215.555 18.143L214.477 21.2562ZM208.505 28.8482L215.213 10.1961H220.185L226.814 28.8482V29.8039H223.553L221.659 24.2054H213.477L211.583 29.8039H208.505V28.8482Z" fill="white" fill-opacity="0.6"/>
<path fill-rule="evenodd" clip-rule="evenodd" d="M246.619 24.6197C246.322 25.3853 245.933 26.1056 245.452 26.7814C244.971 27.4572 244.39 28.0492 243.709 28.5548C243.028 29.0604 242.237 29.4603 241.337 29.7544C240.437 30.0485 239.436 30.1961 238.335 30.1961C236.937 30.1961 235.666 29.9405 234.522 29.43C233.377 28.9205 232.4 28.2139 231.591 27.3123C230.782 26.4097 230.157 25.3351 229.717 24.0866C229.276 22.8386 229.056 21.4854 229.056 20.027C229.056 18.5697 229.276 17.2165 229.717 15.9679C230.157 14.7199 230.785 13.6399 231.604 12.7284C232.422 11.818 233.403 11.102 234.548 10.5832C235.692 10.0633 236.972 9.80392 238.388 9.80392C240.449 9.80392 242.176 10.3057 243.565 11.3075C244.954 12.3093 245.937 13.6399 246.514 15.2982L243.185 15.9812C242.73 14.9793 242.097 14.1907 241.284 13.6168C240.472 13.0429 239.489 12.756 238.335 12.756C237.409 12.756 236.583 12.9421 235.858 13.3144C235.133 13.6867 234.522 14.1995 234.023 14.8532C233.525 15.5064 233.145 16.278 232.883 17.168C232.621 18.0575 232.49 19.0103 232.49 20.027C232.49 21.0619 232.625 22.0196 232.896 22.9003C233.167 23.7815 233.56 24.5432 234.076 25.1881C234.591 25.8325 235.216 26.3359 235.95 26.6988C236.684 27.0623 237.523 27.244 238.466 27.244C239.69 27.244 240.699 26.934 241.494 26.3144C242.289 25.6948 242.905 24.9386 243.342 24.0453L246.619 24.6197Z" fill="white" fill-opacity="0.6"/>
<path fill-rule="evenodd" clip-rule="evenodd" d="M250.669 10.1961H262.817V13.1998H253.882V18.3339H262.19V21.2831H253.882V26.7997H263V29.8039H250.669V10.1961Z" fill="white" fill-opacity="0.6"/>
</svg>
