<svg width="146" height="38" viewBox="0 0 146 38" fill="none" xmlns="http://www.w3.org/2000/svg">
<path d="M47.1434 14.8598C47.1434 12.1495 44.5966 9.27103 40.1893 9.27103C35.2401 9.27103 29.8033 13.028 28.9724 20.5234C28.1235 28.0935 32.6752 31.4579 37.2631 31.4579C41.851 31.4579 44.2534 29.6075 46.7099 27.1402C44.5966 24.3925 41.8691 25.6636 41.3453 25.9439C40.7673 26.243 40.0267 26.6542 38.5095 26.6542C36.7393 26.6542 34.9331 25.8318 34.9331 22.4112C46.2764 21.2523 47.1434 17.5701 47.1434 14.8598ZM41.5259 15.3084C41.4537 16.1495 41.1285 17.5888 35.3846 18.3925C36.5948 13.9439 38.9068 13.6075 39.9725 13.6075C40.966 13.6075 41.5982 14.4112 41.5259 15.3084ZM22.3073 16.0374C22.3073 16.0374 19.8689 23.9626 19.6702 24.6168C19.5979 23.9439 17.8097 9.71963 17.8097 9.71963C13.6553 9.71963 11.4336 12.785 10.2596 16.0187C10.2596 16.0187 7.29729 23.9626 7.04441 24.6355C7.02635 24.0187 6.59285 16.1121 6.59285 16.1121C6.33997 12.1495 2.83583 9.73832 0 9.73832L3.43189 31.2897C7.78498 31.271 10.1331 28.2243 11.3614 24.9907C11.3614 24.9907 13.9805 17.9813 14.0888 17.6636C14.1069 17.9626 15.9673 31.2897 15.9673 31.2897C20.3385 31.2897 22.6866 28.4299 23.951 25.3084L30.0742 9.73832C25.7573 9.73832 23.4814 12.785 22.3073 16.0374ZM63.183 9.23365C60.4916 9.23365 58.4325 10.7477 56.6985 12.972V12.9533L58.2519 0C54.6755 0 51.7674 3.21495 51.2075 8L48.4981 31.1215C50.5572 31.1215 52.7428 30.5047 53.9169 28.9346C54.9645 30.3364 56.5359 31.4579 58.866 31.4579C64.8989 31.4579 69.0353 24.2056 69.0353 17.4019C68.9991 11.1963 66.0911 9.23365 63.183 9.23365ZM62.623 20.3551C61.9908 24.1495 59.9498 26.729 57.9809 26.729C55.9941 26.729 55.1451 25.8131 55.1451 25.8131C55.5244 22.486 55.7593 20.4486 56.4818 18.6916C57.2043 16.9346 58.9202 14.1308 60.7084 14.1308C62.4605 14.1308 63.2552 16.5421 62.623 20.3551ZM84.0995 9.73832H79.8909L79.9089 9.51402C80.1979 6.6729 80.8482 5.17757 82.9977 4.93458C84.4607 4.78505 85.111 4 85.2735 3.14019C85.4 2.46729 85.7974 0.130841 85.7974 0.130841C77.3441 0.0747664 74.6889 3.85047 74.0025 9.60748L73.9844 9.73832H73.8941C72.5213 9.73832 71.0041 11.3458 70.7512 13.3832L70.6609 14.1308H73.4787L71.1125 34.3551L70.39 37.9813C70.4803 37.9813 70.5886 38 70.679 38C74.6347 37.8505 77.1634 34.6168 77.7234 29.9252L79.5658 14.1308H80.8843C82.1848 14.1308 83.7021 12.785 83.973 10.5421L84.0995 9.73832ZM105.991 9.36449C101.132 9.36449 96.5446 13.0654 95.1357 18.8785C93.7268 24.6916 95.8582 31.5701 103.011 31.5701C110.146 31.5701 114.264 24.4112 114.264 18.4486C114.264 12.5234 110.381 9.36449 105.991 9.36449ZM107.96 20.1682C107.707 22.8037 106.587 26.8037 103.517 26.8037C100.428 26.8037 100.862 22.1308 101.169 19.9065C101.494 17.5327 102.776 14.1495 105.54 14.1495C108.014 14.1495 108.249 17.1963 107.96 20.1682ZM138.269 16.0374C138.269 16.0374 135.831 23.9626 135.632 24.6168C135.56 23.9439 133.772 9.71963 133.772 9.71963C129.617 9.71963 127.396 12.785 126.221 16.0187C126.221 16.0187 123.259 23.9626 123.006 24.6355C122.988 24.0187 122.555 16.1121 122.555 16.1121C122.302 12.1495 118.798 9.73832 115.962 9.73832L119.376 31.2897C123.729 31.271 126.077 28.2243 127.305 24.9907C127.305 24.9907 129.924 17.9813 130.015 17.6636C130.033 17.9626 131.893 31.2897 131.893 31.2897C136.264 31.2897 138.612 28.4299 139.877 25.3084L146 9.73832C141.701 9.73832 139.425 12.785 138.269 16.0374ZM88.0732 0.130841L84.533 29.6822L83.8105 33.3271C83.9008 33.3271 84.0092 33.3458 84.0995 33.3458C87.9107 33.2897 90.6201 29.8318 91.1258 25.4766L93.1669 8.52336C93.781 3.34579 90.8007 0.130841 88.0732 0.130841Z" fill="white" fill-opacity="0.6"/>
</svg>
