<svg width="235" height="61" viewBox="0 0 235 61" fill="none" xmlns="http://www.w3.org/2000/svg">
<path d="M75.6775 23.8539C75.6775 19.5032 71.5892 14.8824 64.5144 14.8824C56.5697 14.8824 47.8421 20.9134 46.5083 32.9454C45.1456 45.0974 52.4524 50.4983 59.8172 50.4983C67.1819 50.4983 71.0383 47.5278 74.9817 43.5671C71.5892 39.1564 67.2109 41.1968 66.3701 41.6468C65.4422 42.1269 64.2534 42.787 61.8178 42.787C58.9763 42.787 56.0768 41.4668 56.0768 35.9759C74.2858 34.1156 75.6775 28.2046 75.6775 23.8539ZM66.66 24.574C66.544 25.9243 66.0221 28.2346 56.8016 29.5248C58.7443 22.3837 62.4557 21.8436 64.1664 21.8436C65.7612 21.8436 66.776 23.1338 66.66 24.574ZM35.8091 25.7442C35.8091 25.7442 31.8948 38.4663 31.5758 39.5165C31.4598 38.4363 28.5893 15.6026 28.5893 15.6026C21.9204 15.6026 18.354 20.5234 16.4693 25.7142C16.4693 25.7142 11.7141 38.4663 11.3081 39.5465C11.2791 38.5563 10.5833 25.8642 10.5833 25.8642C10.1773 19.5032 4.55225 15.6326 0 15.6326L5.50909 50.2282C12.4969 50.1982 16.2663 45.3074 18.238 40.1166C18.238 40.1166 22.4423 28.8647 22.6163 28.3546C22.6453 28.8347 25.6318 50.2282 25.6318 50.2282C32.6486 50.2282 36.418 45.6375 38.4477 40.6267L48.2771 15.6326C41.3472 15.6326 37.6938 20.5234 35.8091 25.7442ZM101.425 14.8224C97.105 14.8224 93.7996 17.2528 91.016 20.8234V20.7934L93.5096 0C87.7686 0 83.1003 5.16085 82.2015 12.8421L77.8522 49.9582C81.1576 49.9582 84.6661 48.968 86.5508 46.4476C88.2325 48.698 90.7551 50.4983 94.4954 50.4983C104.18 50.4983 110.82 38.8564 110.82 27.9346C110.762 17.9729 106.094 14.8224 101.425 14.8224ZM100.526 32.6754C99.5116 38.7664 96.2352 42.907 93.0747 42.907C89.8852 42.907 88.5224 41.4368 88.5224 41.4368C89.1313 36.0959 89.5083 32.8254 90.6681 30.0049C91.8279 27.1845 94.5824 22.6837 97.453 22.6837C100.265 22.6837 101.541 26.5544 100.526 32.6754ZM135.002 15.6326H128.246L128.275 15.2725C128.739 10.7118 129.783 8.31136 133.233 7.9213C135.582 7.68126 136.626 6.42105 136.886 5.04083C137.089 3.96065 137.727 0.210034 137.727 0.210034C124.158 0.12002 119.895 6.18101 118.793 15.4225L118.764 15.6326H118.619C116.416 15.6326 113.98 18.213 113.574 21.4835L113.429 22.6837H117.953L114.154 55.149L112.994 60.97C113.139 60.97 113.313 61 113.458 61C119.808 60.76 123.868 55.5691 124.766 48.0379L127.724 22.6837H129.841C131.928 22.6837 134.364 20.5234 134.799 16.9228L135.002 15.6326ZM170.144 15.0325C162.344 15.0325 154.979 20.9734 152.718 30.305C150.456 39.6365 153.878 50.6783 165.36 50.6783C176.813 50.6783 183.424 39.1864 183.424 29.6149C183.424 20.1033 177.19 15.0325 170.144 15.0325ZM173.304 32.3753C172.899 36.606 171.101 43.0271 166.172 43.0271C161.213 43.0271 161.909 35.5258 162.402 31.9552C162.924 28.1446 164.983 22.7137 169.419 22.7137C173.391 22.7137 173.768 27.6045 173.304 32.3753ZM221.958 25.7442C221.958 25.7442 218.044 38.4663 217.725 39.5165C217.609 38.4363 214.739 15.6026 214.739 15.6026C208.07 15.6026 204.503 20.5234 202.619 25.7142C202.619 25.7142 197.863 38.4663 197.458 39.5465C197.429 38.5563 196.733 25.8642 196.733 25.8642C196.327 19.5032 190.702 15.6326 186.149 15.6326L191.629 50.2282C198.617 50.1982 202.387 45.3074 204.358 40.1166C204.358 40.1166 208.563 28.8647 208.708 28.3546C208.737 28.8347 211.723 50.2282 211.723 50.2282C218.74 50.2282 222.509 45.6375 224.539 40.6267L234.368 15.6326C227.468 15.6326 223.814 20.5234 221.958 25.7442ZM141.381 0.210034L135.698 47.6478L134.538 53.4988C134.683 53.4988 134.857 53.5288 135.002 53.5288C141.12 53.4388 145.469 47.8879 146.281 40.8967L149.557 13.6822C150.543 5.37088 145.759 0.210034 141.381 0.210034Z" fill="white" fill-opacity="0.6"/>
</svg>
