<svg width="86" height="32" viewBox="0 0 86 32" fill="none" xmlns="http://www.w3.org/2000/svg">
<path d="M49.2212 0.606805C47.562 1.40099 46.8431 2.88346 46.8431 6.90731C46.8431 6.90731 47.6727 6.11313 49 5.63662C49.9678 5.29247 50.6591 4.84244 51.1569 4.49829C52.5948 3.46586 52.816 2.22164 52.816 0.0508782C52.7883 0.0508782 50.5208 -0.0814853 49.2212 0.606805Z" fill="white" fill-opacity="0.6"/>
<path d="M39.0728 1.53351C37.6348 2.67183 37.2754 4.63081 37.2754 4.63081L32.6298 21.6792L28.8137 7.72812C28.4543 6.24565 27.7353 4.41903 26.6569 3.14834C25.3296 1.53351 22.5643 1.42762 22.2325 1.42762C21.9836 1.42762 19.246 1.53351 17.8081 3.14834C16.7297 4.41903 16.0107 6.24565 15.6512 7.72812L12.0564 21.6792L7.41083 4.63081C7.41083 4.63081 7.05135 2.8042 5.61343 1.53351C3.34593 -0.425471 0 0.0510376 0 0.0510376L8.84875 31.9506C8.84875 31.9506 11.7246 32.1889 13.1625 31.5006C15.0705 30.5741 16.0384 29.9122 17.1168 25.5442C18.1952 21.6528 21.0711 10.3224 21.2923 9.52826C21.4029 9.18412 21.6518 8.15168 22.3708 8.15168C23.0897 8.15168 23.3386 9.07823 23.4492 9.52826C23.6981 10.3224 26.5463 21.6528 27.6247 25.5442C28.8137 29.8858 29.6433 30.5741 31.579 31.5006C33.0169 32.1889 35.8927 31.9506 35.8927 31.9506L44.6862 0.0510376C44.6862 0.0510376 41.3403 -0.398998 39.0728 1.53351Z" fill="white" fill-opacity="0.6"/>
<path d="M52.7898 5.18643C52.7898 5.18643 52.1815 5.98061 50.9924 6.6689C50.1629 7.11893 49.4439 7.35719 48.6143 7.80722C47.1764 8.49551 46.8169 9.1838 46.8169 10.2162V31.8444C46.8169 31.8444 49.0844 32.0827 50.5224 31.3944C52.4304 30.4679 52.7898 29.5678 52.7898 25.6763V5.18643Z" fill="white" fill-opacity="0.6"/>
<path d="M74.7731 16.0671L86 0.15701C86 0.15701 81.3544 -0.637171 78.9486 1.4277C77.4001 2.69839 75.8516 5.08093 75.8516 5.08093L71.7867 10.799C71.5378 11.1432 71.3166 11.3814 70.9571 11.3814C70.5976 11.3814 70.2382 11.0373 70.1275 10.799L66.0627 5.08093C66.0627 5.08093 64.4035 2.80428 62.9656 1.4277C60.5875 -0.637171 55.9142 0.15701 55.9142 0.15701L66.7816 16.0406L55.6654 31.9242C55.6654 31.9242 60.5598 32.5066 62.9656 30.4418C64.5141 29.1711 65.952 27.0003 65.952 27.0003L70.0169 21.2822C70.2658 20.9381 70.487 20.6998 70.8465 20.6998C71.206 20.6998 71.5655 21.044 71.6761 21.2822L75.741 27.0003C75.741 27.0003 77.2895 29.1711 78.7274 30.4418C81.1055 32.5066 85.8894 31.9242 85.8894 31.9242L74.7731 16.0671Z" fill="white" fill-opacity="0.6"/>
</svg>
