<svg width="187" height="40" viewBox="0 0 187 40" fill="none" xmlns="http://www.w3.org/2000/svg">
<path d="M106.436 28.2666H106.139C104.614 28.2666 104.402 27.8665 104.402 25.8221V16.1779H106.436C110.842 16.1779 111.647 19.5552 111.647 22.1776C111.647 24.8888 110.842 28.2666 106.436 28.2666ZM88.5552 22.0884V16.1779H90.2923C92.1989 16.1779 93.0466 17.5554 93.0466 19.1553C93.0466 20.711 92.1989 22.0884 90.2923 22.0884H88.5552ZM106.309 14.8448H98.724V15.6887C101.097 15.6887 101.478 16.2221 101.478 19.3779V25.0668C101.478 28.222 101.097 28.7998 98.724 28.7998C96.9024 28.5332 95.6734 27.5108 93.9784 25.5554L92.0297 23.3335C94.6564 22.8442 96.0546 21.111 96.0546 19.1553C96.0546 16.7113 94.0634 14.8448 90.3347 14.8448H82.8773V15.6887C85.2498 15.6887 85.6311 16.2221 85.6311 19.3779V25.0668C85.6311 28.222 85.2498 28.7998 82.8773 28.7998V29.644H91.309V28.7998C88.9365 28.7998 88.5552 28.222 88.5552 25.0668V23.4668H89.2753L93.9784 29.644H106.309C112.368 29.644 114.995 26.2667 114.995 22.2218C114.995 18.1778 112.368 14.8448 106.309 14.8448Z" fill="white" fill-opacity="0.6"/>
<path d="M59.2755 23.7334L62.1991 14.6661C63.0468 12.0443 62.6654 11.2888 59.9537 11.2888V10.3997H67.9196V11.2888C65.2502 11.2888 64.6147 11.9555 63.5553 15.2L58.7245 30.3997H58.174L53.8519 16.4886L49.4455 30.3997H48.8945L44.1915 15.2C43.1745 11.9555 42.4965 11.2888 40.0388 11.2888V10.3997H49.4455V11.2888C46.9453 11.2888 46.2673 11.9109 47.1575 14.6661L49.996 23.7334L54.2756 10.3997H55.0809L59.2755 23.7334Z" fill="white" fill-opacity="0.6"/>
<path d="M73.6815 15.6455C69.7837 15.6455 68.4275 19.334 68.4275 22.2225C68.4275 25.1563 69.7837 28.8007 73.6815 28.8007C77.6225 28.8007 78.9782 25.1563 78.9782 22.2225C78.9782 19.334 77.6225 15.6455 73.6815 15.6455ZM73.6815 30.2227C69.0211 30.2227 65.2072 26.6229 65.2072 22.2225C65.2072 17.8674 69.0211 14.2671 73.6815 14.2671C78.3426 14.2671 82.1559 17.8674 82.1559 22.2225C82.1559 26.6229 78.3426 30.2227 73.6815 30.2227Z" fill="white" fill-opacity="0.6"/>
<path d="M124.526 11.9998H122.111V19.7333H124.526C126.899 19.7333 128.001 18 128.001 15.9114C128.001 13.7782 126.899 11.9998 124.526 11.9998ZM125.459 28.7553V29.644H115.756V28.7553C118.595 28.7553 119.103 28 119.103 23.5551V16.4446C119.103 11.9998 118.595 11.2891 115.756 11.2891V10.3998H124.526C128.891 10.3998 131.306 12.7557 131.306 15.9114C131.306 18.978 128.891 21.3779 124.526 21.3779H122.111V23.5551C122.111 28 122.62 28.7553 125.459 28.7553Z" fill="white" fill-opacity="0.6"/>
<path d="M137.959 22.0889V16.1784H139.695C141.602 16.1784 142.45 17.5558 142.45 19.1558C142.45 20.7115 141.602 22.0889 139.695 22.0889H137.959ZM160.414 25.4673L160.203 26.2672C159.821 27.7338 159.355 28.2671 156.347 28.2671H155.754C153.551 28.2671 153.169 27.7338 153.169 24.578V22.534C156.474 22.534 156.728 22.8447 156.728 25.156H157.533V18.5337H156.728C156.728 20.8448 156.474 21.1557 153.169 21.1557V16.1784H155.499C158.508 16.1784 158.974 16.7118 159.355 18.1783L159.567 19.0223H160.245L159.949 14.8453H147.491V15.6893C149.864 15.6893 150.245 16.2226 150.245 19.3783V25.0672C150.245 27.9538 149.921 28.6809 148.051 28.7845C146.272 28.4999 145.052 27.4825 143.382 25.5559L141.432 23.3339C144.06 22.8447 145.458 21.1115 145.458 19.1558C145.458 16.7118 143.467 14.8453 139.738 14.8453H132.281V15.6893C134.653 15.6893 135.034 16.2226 135.034 19.3783V25.0672C135.034 28.2224 134.653 28.8003 132.281 28.8003V29.6445H140.712V28.8003C138.34 28.8003 137.959 28.2224 137.959 25.0672V23.4673H138.679L143.382 29.6445H160.796L161.05 25.4673H160.414Z" fill="white" fill-opacity="0.6"/>
<path d="M169.017 30.2227C167.322 30.2227 165.839 29.2894 165.203 28.7115C164.992 28.934 164.611 29.6007 164.526 30.2227H163.721V24.0897H164.568C164.907 27.0229 166.856 28.7561 169.356 28.7561C170.712 28.7561 171.814 27.9562 171.814 26.6229C171.814 25.4675 170.839 24.5783 169.102 23.7342L166.687 22.5343C164.992 21.6893 163.721 20.2227 163.721 18.2674C163.721 16.1342 165.627 14.3122 168.255 14.3122C169.653 14.3122 170.839 14.8455 171.56 15.4675C171.771 15.2896 171.983 14.8003 172.111 14.2671H172.915V19.512H172.025C171.729 17.4229 170.627 15.6896 168.382 15.6896C167.195 15.6896 166.093 16.4009 166.093 17.5121C166.093 18.6674 166.983 19.2894 169.017 20.2673L171.347 21.4672C173.382 22.4892 174.186 24.1343 174.186 25.4675C174.186 28.2675 171.856 30.2227 169.017 30.2227Z" fill="white" fill-opacity="0.6"/>
<path d="M181.831 30.2227C180.136 30.2227 178.653 29.2894 178.017 28.7115C177.806 28.934 177.424 29.6007 177.34 30.2227H176.534V24.0897H177.382C177.721 27.0229 179.67 28.7561 182.17 28.7561C183.525 28.7561 184.628 27.9562 184.628 26.6229C184.628 25.4675 183.653 24.5783 181.916 23.7342L179.501 22.5343C177.806 21.6893 176.534 20.2227 176.534 18.2674C176.534 16.1342 178.441 14.3122 181.068 14.3122C182.467 14.3122 183.653 14.8455 184.373 15.4675C184.585 15.2896 184.797 14.8003 184.924 14.2671H185.729V19.512H184.839C184.542 17.4229 183.441 15.6896 181.196 15.6896C180.009 15.6896 178.907 16.4009 178.907 17.5121C178.907 18.6674 179.797 19.2894 181.831 20.2673L184.161 21.4672C186.195 22.4892 187 24.1343 187 25.4675C187 28.2675 184.669 30.2227 181.831 30.2227Z" fill="white" fill-opacity="0.6"/>
<path d="M19.0676 0C8.53684 0 0 8.95431 0 20.0001C0 31.0457 8.53684 40 19.0676 40C29.5984 40 38.1352 31.0457 38.1352 20.0001C38.1352 8.95431 29.5984 0 19.0676 0ZM19.0676 1.19994C21.4878 1.19994 23.8349 1.69696 26.0439 2.67695C27.1057 3.14801 28.1299 3.73104 29.088 4.41002C30.0373 5.08274 30.9301 5.8554 31.7415 6.70642C32.5528 7.55743 33.2893 8.49388 33.9307 9.48956C34.578 10.4946 35.134 11.5688 35.5831 12.6825C36.5174 14.9996 36.9911 17.4615 36.9911 20.0001C36.9911 22.5385 36.5174 25.0004 35.5831 27.3175C35.134 28.4312 34.578 29.5054 33.9307 30.5104C33.2893 31.5061 32.5528 32.4426 31.7415 33.2936C30.9301 34.1446 30.0373 34.9173 29.088 35.59C28.1299 36.269 27.1057 36.852 26.0439 37.3231C23.8349 38.303 21.4878 38.8001 19.0676 38.8001C16.6474 38.8001 14.3003 38.303 12.0913 37.3231C11.0296 36.852 10.0053 36.269 9.04725 35.59C8.09787 34.9173 7.20508 34.1446 6.39374 33.2936C5.5824 32.4426 4.84587 31.5061 4.20452 30.5104C3.5572 29.5054 3.00124 28.4312 2.55214 27.3175C1.61784 25.0004 1.14411 22.5385 1.14411 20.0001C1.14411 17.4615 1.61784 14.9996 2.55214 12.6825C3.00124 11.5688 3.5572 10.4946 4.20452 9.48956C4.84587 8.49388 5.5824 7.55743 6.39374 6.70642C7.20508 5.8554 8.09787 5.08274 9.04725 4.41002C10.0053 3.73104 11.0296 3.14801 12.0913 2.67695C14.3003 1.69696 16.6474 1.19994 19.0676 1.19994Z" fill="white" fill-opacity="0.6"/>
<path d="M33.0102 12.0037C33.0784 12.5345 33.1171 13.104 33.1171 13.7174C33.1171 15.408 32.8151 17.3092 31.9084 19.6868L27.0554 34.4046C31.7794 31.5159 34.9562 26.1478 34.9562 19.9992C34.9562 17.1014 34.2502 14.3774 33.0102 12.0037ZM19.3457 21.4569L14.5776 35.9874C16.0016 36.4268 17.5069 36.6664 19.0666 36.6664C20.917 36.6664 22.692 36.3314 24.3435 35.7215C24.3009 35.6502 24.2618 35.5745 24.2294 35.4919L19.3457 21.4569ZM29.7933 19.1587C29.7933 17.0981 29.0878 15.6721 28.4835 14.5623C27.6779 13.1888 26.9226 12.0267 26.9226 10.6533C26.9226 9.12146 28.0302 7.69543 29.591 7.69543C29.6615 7.69543 29.7282 7.70428 29.7967 7.70888C26.9697 4.99193 23.2032 3.33309 19.0666 3.33309C13.5151 3.33309 8.63158 6.32085 5.79032 10.845C6.16348 10.8574 6.51492 10.8651 6.81293 10.8651C8.47465 10.8651 11.0479 10.6533 11.0479 10.6533C11.9041 10.6007 12.0053 11.9207 11.1495 12.0267C11.1495 12.0267 10.2885 12.1326 9.3311 12.1851L15.1171 30.2382L18.5949 19.2996L16.1195 12.1851C15.2634 12.1326 14.4529 12.0267 14.4529 12.0267C13.5964 11.9738 13.6967 10.6007 14.5537 10.6533C14.5537 10.6533 17.1772 10.8651 18.7385 10.8651C20.4001 10.8651 22.9739 10.6533 22.9739 10.6533C23.8304 10.6007 23.9312 11.9207 23.075 12.0267C23.075 12.0267 22.2132 12.1326 21.2566 12.1851L26.999 30.1007L28.6382 24.6526C29.3664 22.2716 29.7933 20.5847 29.7933 19.1587ZM3.17698 19.9992C3.17698 26.5958 6.83161 32.2973 12.1327 34.9985L4.55284 13.2164C3.67119 15.2891 3.17698 17.5829 3.17698 19.9992Z" fill="white" fill-opacity="0.6"/>
</svg>
