<svg width="147" height="68" viewBox="0 0 147 68" fill="none" xmlns="http://www.w3.org/2000/svg">
<path d="M0 52.9169L15.2097 29.2501H1.80179C1.68817 28.5684 1.63947 27.8217 1.63947 26.9938C1.63947 26.1984 1.68817 25.468 1.80179 24.8024H23.5045L23.7804 25.5329L8.45707 49.2484H22.8227C22.9364 49.9951 22.9851 50.7743 22.9851 51.5534C22.9851 52.3001 22.9364 53.0143 22.8227 53.6961H0.275951L0 52.9169Z" fill="white" fill-opacity="0.6"/>
<path d="M43.8925 34.6558C43.8925 32.432 43.3243 30.9061 42.2043 30.0296C41.0843 29.1693 39.4448 28.731 37.3021 28.731C35.9873 28.731 34.7537 28.8284 33.6174 29.0394C32.4649 29.2504 31.3611 29.5102 30.2573 29.851C29.5431 28.6174 29.1859 27.124 29.1859 25.4034C30.4683 24.9975 31.8643 24.6729 33.4064 24.4456C34.9484 24.2184 36.4256 24.1048 37.854 24.1048C41.6037 24.1048 44.4606 24.9651 46.4247 26.6695C48.3726 28.3739 49.3628 31.1172 49.3628 34.8668V52.9497C48.048 53.2419 46.4572 53.5665 44.5742 53.875C42.6913 54.1996 40.7759 54.3457 38.828 54.3457C36.9937 54.3457 35.3218 54.1834 33.8446 53.8425C32.3675 53.5016 31.1014 52.9659 30.0625 52.203C29.0236 51.4563 28.2282 50.4986 27.6601 49.3299C27.092 48.1612 26.816 46.7489 26.816 45.1095C26.816 43.5025 27.1407 42.074 27.8062 40.8566C28.4555 39.6392 29.3483 38.6165 30.4845 37.8211C31.6046 37.0095 32.9032 36.4089 34.3803 36.0193C35.8412 35.6298 37.3833 35.4187 39.0065 35.4187C40.2077 35.4187 41.1979 35.4512 41.9608 35.4999C42.7238 35.5486 43.373 35.6298 43.9087 35.6947V34.6558H43.8925ZM43.8925 40.1261C43.3243 40.045 42.6101 39.98 41.7498 39.8989C40.8895 39.8177 40.159 39.7853 39.5584 39.7853C37.221 39.7853 35.4516 40.2235 34.2342 41.0838C33.0168 41.9442 32.4 43.259 32.4 45.0283C32.4 46.1483 32.611 47.0411 33.0168 47.6742C33.4226 48.3073 33.942 48.7942 34.5589 49.1351C35.1757 49.476 35.8575 49.687 36.6204 49.7519C37.3671 49.8331 38.0813 49.8656 38.763 49.8656C39.6234 49.8656 40.5161 49.8169 41.4414 49.7195C42.3666 49.6221 43.1783 49.4922 43.8925 49.2974V40.1261Z" fill="white" fill-opacity="0.6"/>
<path d="M55.4498 24.8037C55.8232 24.7225 56.2127 24.6738 56.6023 24.6413C56.9919 24.6089 57.3977 24.5927 57.8197 24.5927C58.1931 24.5927 58.5827 24.6089 59.0047 24.6413C59.4105 24.6738 59.8163 24.7387 60.1897 24.8037C60.2221 24.8848 60.2708 25.1121 60.3358 25.5017C60.3845 25.8912 60.4494 26.3133 60.4981 26.7678C60.5468 27.2223 60.6117 27.6443 60.6604 28.0664C60.7091 28.4884 60.7416 28.7481 60.7416 28.8618C61.1149 28.2612 61.5694 27.6768 62.0889 27.1087C62.6083 26.5405 63.2414 26.0373 63.9718 25.5828C64.7023 25.1283 65.5301 24.7712 66.4554 24.5115C67.3806 24.2518 68.4033 24.1219 69.5233 24.1219C71.2115 24.1219 72.786 24.3979 74.2307 24.966C75.6754 25.5341 76.909 26.3944 77.9479 27.5794C78.9868 28.7644 79.7822 30.274 80.3665 32.092C80.9509 33.91 81.2431 36.0689 81.2431 38.5525C81.2431 43.5196 79.8958 47.3992 77.2174 50.1911C74.5229 52.9831 70.7245 54.3953 65.8061 54.3953C64.9782 54.3953 64.1341 54.3466 63.2738 54.233C62.4135 54.1194 61.6506 53.9733 61.0175 53.7785V67.0241C60.563 67.1053 60.0923 67.154 59.5728 67.1864C59.0696 67.2189 58.5989 67.2351 58.1931 67.2351C57.7873 67.2351 57.3165 67.2189 56.8133 67.1864C56.3101 67.154 55.8394 67.089 55.4336 67.0241V24.8037H55.4498ZM61.0338 48.9737C61.748 49.2334 62.4784 49.4282 63.2251 49.5418C63.9718 49.6555 64.9458 49.7042 66.1632 49.7042C67.5105 49.7042 68.7604 49.4931 69.8804 49.0549C71.0004 48.6166 71.9744 47.951 72.786 47.0583C73.5976 46.1493 74.2307 45.013 74.7014 43.6495C75.1722 42.2859 75.3994 40.6465 75.3994 38.7798C75.3994 35.7768 74.8475 33.3906 73.7437 31.6213C72.6399 29.8519 70.8219 28.9754 68.3059 28.9754C67.3644 28.9754 66.4716 29.1377 65.5951 29.4786C64.7347 29.8195 63.9556 30.3227 63.2901 31.0044C62.6083 31.6862 62.0726 32.5303 61.6506 33.5692C61.2285 34.608 61.0338 35.8255 61.0338 37.2539V48.9737Z" fill="white" fill-opacity="0.6"/>
<path d="M88.1905 29.1852H84.522C84.4408 28.8768 84.3921 28.5359 84.3597 28.1463C84.3272 27.7567 84.311 27.3672 84.311 26.9938C84.311 26.6205 84.3272 26.2309 84.3597 25.8413C84.3921 25.4517 84.4571 25.0946 84.522 24.8024H93.6608V53.7123C93.255 53.7935 92.7843 53.8422 92.2811 53.8746C91.7779 53.9071 91.3071 53.9233 90.9013 53.9233C90.528 53.9233 90.0897 53.9071 89.5703 53.8746C89.0671 53.8422 88.5963 53.7772 88.1905 53.7123V29.1852Z" fill="white" fill-opacity="0.6"/>
<path d="M105.657 40.6297C105.738 43.7788 106.549 46.1001 108.108 47.561C109.666 49.0219 111.971 49.7523 115.006 49.7523C117.668 49.7523 120.217 49.2816 122.619 48.3401C122.928 48.9083 123.171 49.59 123.35 50.4016C123.545 51.2133 123.642 52.0086 123.691 52.804C122.457 53.3235 121.094 53.7293 119.6 53.989C118.123 54.2487 116.467 54.3786 114.666 54.3786C112.036 54.3786 109.78 54.0052 107.897 53.2748C106.014 52.5443 104.472 51.5054 103.254 50.1744C102.037 48.8433 101.144 47.2688 100.576 45.4345C100.008 43.6165 99.7317 41.6199 99.7317 39.4285C99.7317 37.2859 100.008 35.2893 100.543 33.4226C101.079 31.5558 101.923 29.9488 103.043 28.5691C104.163 27.2056 105.592 26.1018 107.296 25.3064C109 24.4948 111.029 24.0889 113.351 24.0889C115.347 24.0889 117.084 24.4298 118.594 25.1116C120.103 25.7933 121.353 26.7186 122.376 27.9036C123.382 29.0885 124.161 30.5007 124.681 32.124C125.2 33.7634 125.476 35.5328 125.476 37.4482C125.476 37.9676 125.46 38.5358 125.411 39.1039C125.379 39.6883 125.33 40.1915 125.298 40.5973H105.657V40.6297ZM119.974 36.458C119.974 35.4029 119.827 34.3965 119.551 33.4388C119.276 32.4811 118.853 31.6532 118.318 30.939C117.766 30.2248 117.084 29.6567 116.24 29.2184C115.396 28.7801 114.39 28.5691 113.221 28.5691C110.932 28.5691 109.179 29.2671 107.945 30.6468C106.728 32.0428 105.981 33.9745 105.721 36.458H119.974Z" fill="white" fill-opacity="0.6"/>
<path d="M131.645 24.8025C132.051 24.7213 132.456 24.6726 132.83 24.6401C133.203 24.6077 133.593 24.5914 134.015 24.5914C134.42 24.5914 134.842 24.6077 135.248 24.6401C135.654 24.6726 136.044 24.7375 136.368 24.8025C136.482 25.3706 136.596 26.101 136.709 27.0263C136.823 27.9515 136.872 28.7307 136.872 29.3637C137.667 28.0814 138.706 26.9776 140.004 26.0361C141.303 25.0946 142.959 24.6239 144.988 24.6239C145.296 24.6239 145.605 24.6401 145.913 24.6564C146.238 24.6726 146.497 24.7051 146.725 24.7375C146.806 25.0784 146.854 25.4355 146.887 25.8089C146.919 26.1822 146.936 26.5718 146.936 26.9938C146.936 27.4483 146.903 27.9191 146.854 28.406C146.806 28.893 146.725 29.3638 146.66 29.8183C146.351 29.7371 146.043 29.7046 145.734 29.7046C145.41 29.7046 145.166 29.7046 144.971 29.7046C143.965 29.7046 142.991 29.8507 142.066 30.1267C141.141 30.4026 140.313 30.9058 139.582 31.6201C138.852 32.3343 138.268 33.3082 137.829 34.5581C137.391 35.7918 137.18 37.3988 137.18 39.3467V53.7123C136.774 53.7935 136.303 53.8422 135.8 53.8746C135.297 53.9071 134.826 53.9233 134.42 53.9233C134.015 53.9233 133.544 53.9071 133.041 53.8746C132.537 53.8422 132.051 53.7773 131.596 53.7123V24.8025H131.645Z" fill="white" fill-opacity="0.6"/>
<path d="M98.9686 7.79154H93.5145L97.3778 3.92824C97.0694 3.50619 96.7285 3.10039 96.3714 2.72704C95.9981 2.3537 95.6085 2.01282 95.1702 1.72063L91.3069 5.58394V0.129859C90.8037 0.0486971 90.2843 0 89.7486 0H89.7324C89.1967 0 88.6773 0.0486971 88.1741 0.129859V5.58394L84.3108 1.72063C83.8887 2.02905 83.4829 2.36993 83.1096 2.72704C82.7362 3.10039 82.4116 3.48996 82.1031 3.92824L85.9827 7.79154H80.5286C80.5286 7.79154 80.3987 8.81418 80.3987 9.34985C80.3987 9.88552 80.4474 10.405 80.5286 10.9082H85.9827L82.1194 14.7715C82.72 15.6156 83.4667 16.3622 84.327 16.9791L88.1903 13.1158V18.5698C88.6935 18.651 89.2129 18.6997 89.7486 18.6997H89.7648C90.3005 18.6997 90.8199 18.651 91.3231 18.5698V13.1158L95.1864 16.9791C95.6085 16.6707 96.0143 16.3298 96.3876 15.9727C96.761 15.5993 97.1019 15.2097 97.3941 14.7715L93.5307 10.9082H98.9848C99.066 10.405 99.1147 9.88552 99.1147 9.34985V9.33362C99.0984 8.81418 99.066 8.29475 98.9686 7.79154ZM92.0861 9.36609C92.0861 10.0641 91.9562 10.7296 91.7289 11.3464C91.1121 11.5737 90.4466 11.7035 89.7486 11.7035C89.0506 11.7035 88.3851 11.5737 87.7682 11.3464C87.541 10.7296 87.4111 10.0641 87.4111 9.36609V9.34985C87.4111 8.65186 87.541 7.98633 87.7682 7.3695C88.3851 7.14225 89.0506 7.01239 89.7486 7.01239C90.4466 7.01239 91.1121 7.14225 91.7289 7.3695C91.9562 7.98633 92.0861 8.65186 92.0861 9.36609Z" fill="white" fill-opacity="0.6"/>
</svg>
