<svg width="387" height="340" viewBox="0 0 387 340" fill="none" xmlns="http://www.w3.org/2000/svg">
<path d="M10.8591 51V39.8H12.3791V51H10.8591ZM15.2229 46.744V51H13.7029V46.872C13.7029 44.456 15.3189 42.84 17.8149 42.84C20.2309 42.84 21.8469 44.456 21.8469 46.872V51H20.3109V46.744C20.3109 45.256 19.2869 44.264 17.7509 44.264C16.2629 44.264 15.2229 45.272 15.2229 46.744ZM27.0779 47.096C27.0779 44.504 28.7419 42.84 31.2859 42.84C33.8139 42.84 35.4939 44.504 35.4939 47V51H33.9739V49.416L33.8139 49.432V49.576C33.8139 50.216 32.8539 51.16 30.9659 51.16C28.6619 51.16 27.0779 49.544 27.0779 47.096ZM28.5979 47C28.5979 48.68 29.5899 49.736 31.2379 49.736C33.2219 49.736 33.9579 48.616 33.9579 47C33.9579 45.32 32.9339 44.264 31.2859 44.264C29.6699 44.264 28.5979 45.368 28.5979 47ZM47.1501 39V40.424H45.8221C44.2061 40.424 43.3581 41.256 43.3581 42.84V43H46.2701V44.312H43.3581V51H41.8381V44.312H40.6541V43H41.8381C41.8701 40.488 43.2621 39 45.8221 39H47.1501ZM48.5041 46.888V51H46.9841V47.08C46.9841 44.488 48.6321 42.872 51.1761 42.872V44.344C49.5761 44.344 48.5041 45.32 48.5041 46.888ZM60.037 47.176H53.301C53.333 48.696 54.389 49.768 56.021 49.768C57.317 49.768 58.197 49.064 58.485 47.976H60.037C59.685 49.976 58.197 51.16 55.989 51.16C53.461 51.16 51.781 49.496 51.781 47C51.781 44.504 53.461 42.84 55.989 42.84C58.405 42.84 60.053 44.312 60.037 46.728V47.176ZM53.413 46.008H58.453C58.213 44.84 57.317 44.136 56.005 44.136C54.693 44.136 53.733 44.92 53.413 46.008ZM69.5526 47.176H62.8166C62.8486 48.696 63.9046 49.768 65.5366 49.768C66.8326 49.768 67.7126 49.064 68.0006 47.976H69.5526C69.2006 49.976 67.7126 51.16 65.5046 51.16C62.9766 51.16 61.2966 49.496 61.2966 47C61.2966 44.504 62.9766 42.84 65.5046 42.84C67.9206 42.84 69.5686 44.312 69.5526 46.728V47.176ZM62.9286 46.008H67.9686C67.7286 44.84 66.8326 44.136 65.5206 44.136C64.2086 44.136 63.2486 44.92 62.9286 46.008ZM76.301 46.872V51H74.781V39H76.301V44.696H76.461C76.461 43.832 77.389 42.84 79.197 42.84C81.453 42.84 82.765 44.296 82.765 46.536V51H81.229V46.584C81.229 45.112 80.397 44.264 78.941 44.264C77.213 44.264 76.301 45.384 76.301 46.872ZM84.0935 47C84.0935 44.504 85.7735 42.84 88.3015 42.84C90.8295 42.84 92.5095 44.504 92.5095 47C92.5095 49.496 90.8295 51.16 88.3015 51.16C85.7735 51.16 84.0935 49.496 84.0935 47ZM85.6135 47C85.6135 48.632 86.6855 49.736 88.3015 49.736C89.9175 49.736 90.9895 48.632 90.9895 47C90.9895 45.368 89.9175 44.264 88.3015 44.264C86.6855 44.264 85.6135 45.368 85.6135 47ZM95.3479 47.256C95.3479 48.728 96.3879 49.736 97.8759 49.736C99.4119 49.736 100.436 48.744 100.436 47.256V43H101.972V47.128C101.972 49.544 100.356 51.16 97.9399 51.16C95.4439 51.16 93.8279 49.544 93.8279 47.128V43H95.3479V47.256ZM104.817 46.888V51H103.297V47.08C103.297 44.488 104.945 42.872 107.489 42.872V44.344C105.889 44.344 104.817 45.32 104.817 46.888ZM107.842 50.216C107.842 49.64 108.242 49.272 108.866 49.272C109.474 49.272 109.89 49.64 109.89 50.216C109.89 51.256 109.058 52.232 108.146 52.664L107.826 52.2C108.162 51.96 108.418 51.496 108.434 51.096C108.066 50.968 107.842 50.648 107.842 50.216ZM118.709 51.16C116.501 51.16 115.109 49.832 115.109 47.128V43H116.629V47.256C116.629 49.016 117.589 49.736 118.725 49.736C120.245 49.736 120.997 48.664 120.997 47.256V43H122.533V47.256C122.533 48.664 123.285 49.736 124.805 49.736C125.957 49.736 126.901 49.016 126.901 47.256V43H128.437V47.128C128.437 49.832 127.029 51.16 124.837 51.16C122.981 51.16 121.845 49.976 121.845 48.648H121.685C121.685 49.976 120.549 51.16 118.709 51.16ZM131.27 46.872V51H129.75V39H131.27V44.696H131.43C131.43 43.832 132.358 42.84 134.166 42.84C136.422 42.84 137.734 44.296 137.734 46.536V51H136.198V46.584C136.198 45.112 135.366 44.264 133.91 44.264C132.182 44.264 131.27 45.384 131.27 46.872ZM147.318 47.176H140.582C140.614 48.696 141.67 49.768 143.302 49.768C144.598 49.768 145.478 49.064 145.766 47.976H147.318C146.966 49.976 145.478 51.16 143.27 51.16C140.742 51.16 139.062 49.496 139.062 47C139.062 44.504 140.742 42.84 143.27 42.84C145.686 42.84 147.334 44.312 147.318 46.728V47.176ZM140.694 46.008H145.734C145.494 44.84 144.598 44.136 143.286 44.136C141.974 44.136 141.014 44.92 140.694 46.008ZM150.16 46.744V51H148.64V46.872C148.64 44.456 150.256 42.84 152.752 42.84C155.168 42.84 156.784 44.456 156.784 46.872V51H155.248V46.744C155.248 45.256 154.224 44.264 152.688 44.264C151.2 44.264 150.16 45.272 150.16 46.744ZM162.015 47C162.015 44.504 163.695 42.84 166.223 42.84C168.751 42.84 170.431 44.504 170.431 47C170.431 49.496 168.751 51.16 166.223 51.16C163.695 51.16 162.015 49.496 162.015 47ZM163.535 47C163.535 48.632 164.607 49.736 166.223 49.736C167.839 49.736 168.911 48.632 168.911 47C168.911 45.368 167.839 44.264 166.223 44.264C164.607 44.264 163.535 45.368 163.535 47ZM173.27 47.256C173.27 48.728 174.31 49.736 175.798 49.736C177.334 49.736 178.358 48.744 178.358 47.256V43H179.894V47.128C179.894 49.544 178.278 51.16 175.862 51.16C173.366 51.16 171.75 49.544 171.75 47.128V43H173.27V47.256ZM182.739 46.888V51H181.219V47.08C181.219 44.488 182.867 42.872 185.411 42.872V44.344C183.811 44.344 182.739 45.32 182.739 46.888ZM198.978 47.096C198.978 49.544 197.394 51.16 195.09 51.16C193.202 51.16 192.242 50.216 192.242 49.576V49.432L192.082 49.416V55H190.562V47C190.562 44.504 192.242 42.84 194.77 42.84C197.314 42.84 198.978 44.504 198.978 47.096ZM197.458 47C197.458 45.368 196.37 44.264 194.77 44.264C193.122 44.264 192.082 45.32 192.082 47C192.082 48.616 192.834 49.736 194.818 49.736C196.466 49.736 197.458 48.68 197.458 47ZM200.25 47C200.25 44.504 201.93 42.84 204.458 42.84C206.986 42.84 208.666 44.504 208.666 47C208.666 49.496 206.986 51.16 204.458 51.16C201.93 51.16 200.25 49.496 200.25 47ZM201.77 47C201.77 48.632 202.842 49.736 204.458 49.736C206.074 49.736 207.146 48.632 207.146 47C207.146 45.368 206.074 44.264 204.458 44.264C202.842 44.264 201.77 45.368 201.77 47ZM213.584 51.16C211.376 51.16 209.984 49.832 209.984 47.128V43H211.504V47.256C211.504 49.016 212.464 49.736 213.6 49.736C215.12 49.736 215.872 48.664 215.872 47.256V43H217.408V47.256C217.408 48.664 218.16 49.736 219.68 49.736C220.832 49.736 221.776 49.016 221.776 47.256V43H223.312V47.128C223.312 49.832 221.904 51.16 219.712 51.16C217.856 51.16 216.72 49.976 216.72 48.648H216.56C216.56 49.976 215.424 51.16 213.584 51.16ZM232.881 47.176H226.145C226.177 48.696 227.233 49.768 228.865 49.768C230.161 49.768 231.041 49.064 231.329 47.976H232.881C232.529 49.976 231.041 51.16 228.833 51.16C226.305 51.16 224.625 49.496 224.625 47C224.625 44.504 226.305 42.84 228.833 42.84C231.249 42.84 232.897 44.312 232.881 46.728V47.176ZM226.257 46.008H231.297C231.057 44.84 230.161 44.136 228.849 44.136C227.537 44.136 226.577 44.92 226.257 46.008ZM235.723 46.888V51H234.203V47.08C234.203 44.488 235.851 42.872 238.395 42.872V44.344C236.795 44.344 235.723 45.32 235.723 46.888ZM243.547 47C243.547 44.504 245.227 42.84 247.755 42.84C250.283 42.84 251.963 44.504 251.963 47C251.963 49.496 250.283 51.16 247.755 51.16C245.227 51.16 243.547 49.496 243.547 47ZM245.067 47C245.067 48.632 246.139 49.736 247.755 49.736C249.371 49.736 250.443 48.632 250.443 47C250.443 45.368 249.371 44.264 247.755 44.264C246.139 44.264 245.067 45.368 245.067 47ZM259.244 39V40.424H257.916C256.3 40.424 255.452 41.256 255.452 42.84V43H258.364V44.312H255.452V51H253.932V44.312H252.748V43H253.932C253.964 40.488 255.356 39 257.916 39H259.244ZM35.6369 75C35.6369 76.632 36.7089 77.736 38.3249 77.736C39.6529 77.736 40.5169 77 40.8209 75.88H42.3729C42.0209 77.88 40.5329 79.16 38.3249 79.16C35.7969 79.16 34.1169 77.496 34.1169 75C34.1169 72.504 35.7969 70.84 38.3249 70.84C40.5329 70.84 42.0209 72.12 42.3729 74.12H40.8209C40.5169 73 39.6529 72.264 38.3249 72.264C36.7089 72.264 35.6369 73.368 35.6369 75ZM45.2151 74.872V79H43.6951V67H45.2151V72.696H45.3751C45.3751 71.832 46.3031 70.84 48.1111 70.84C50.3671 70.84 51.6791 72.296 51.6791 74.536V79H50.1431V74.584C50.1431 73.112 49.3111 72.264 47.8551 72.264C46.1271 72.264 45.2151 73.384 45.2151 74.872ZM53.0076 75C53.0076 72.504 54.6876 70.84 57.2156 70.84C59.7436 70.84 61.4236 72.504 61.4236 75C61.4236 77.496 59.7436 79.16 57.2156 79.16C54.6876 79.16 53.0076 77.496 53.0076 75ZM54.5276 75C54.5276 76.632 55.5996 77.736 57.2156 77.736C58.8316 77.736 59.9036 76.632 59.9036 75C59.9036 73.368 58.8316 72.264 57.2156 72.264C55.5996 72.264 54.5276 73.368 54.5276 75ZM62.7419 68.52C62.7419 67.992 63.1099 67.64 63.6539 67.64C64.2139 67.64 64.5819 67.992 64.5819 68.52C64.5819 69.048 64.2139 69.4 63.6539 69.4C63.1099 69.4 62.7419 69.048 62.7419 68.52ZM62.9019 79V71H64.4219V79H62.9019ZM67.4182 75C67.4182 76.632 68.4902 77.736 70.1062 77.736C71.4342 77.736 72.2982 77 72.6022 75.88H74.1542C73.8022 77.88 72.3142 79.16 70.1062 79.16C67.5782 79.16 65.8982 77.496 65.8982 75C65.8982 72.504 67.5782 70.84 70.1062 70.84C72.3142 70.84 73.8022 72.12 74.1542 74.12H72.6022C72.2982 73 71.4342 72.264 70.1062 72.264C68.4902 72.264 67.4182 73.368 67.4182 75ZM83.6698 75.176H76.9338C76.9658 76.696 78.0218 77.768 79.6538 77.768C80.9498 77.768 81.8298 77.064 82.1178 75.976H83.6698C83.3178 77.976 81.8298 79.16 79.6218 79.16C77.0938 79.16 75.4138 77.496 75.4138 75C75.4138 72.504 77.0938 70.84 79.6218 70.84C82.0378 70.84 83.6858 72.312 83.6698 74.728V75.176ZM77.0458 74.008H82.0858C81.8458 72.84 80.9498 72.136 79.6378 72.136C78.3258 72.136 77.3658 72.92 77.0458 74.008ZM88.8982 68.52C88.8982 67.992 89.2662 67.64 89.8102 67.64C90.3702 67.64 90.7382 67.992 90.7382 68.52C90.7382 69.048 90.3702 69.4 89.8102 69.4C89.2662 69.4 88.8982 69.048 88.8982 68.52ZM89.0582 79V71H90.5782V79H89.0582ZM92.0224 73.176C92.0224 71.592 93.2704 70.824 95.6544 70.824C96.8384 70.824 97.7824 70.952 98.6464 71.272V72.696C98.0864 72.488 96.9024 72.136 95.4944 72.136C94.1824 72.136 93.5424 72.456 93.5424 73.064C93.5424 74.68 98.9824 73.784 98.9824 76.664C98.9824 78.232 97.7504 79.176 95.3504 79.176C94.1664 79.176 93.2224 79.048 92.3584 78.728V77.304C92.9184 77.512 94.1184 77.864 95.5104 77.864C96.8224 77.864 97.4464 77.384 97.4464 76.776C97.4464 75.176 92.0224 76.056 92.0224 73.176ZM105.668 75.256C105.668 76.728 106.708 77.736 108.196 77.736C109.732 77.736 110.756 76.744 110.756 75.256V71H112.292V75.128C112.292 77.544 110.676 79.16 108.26 79.16C105.764 79.16 104.148 77.544 104.148 75.128V71H105.668V75.256ZM115.137 74.744V79H113.617V74.872C113.617 72.456 115.233 70.84 117.729 70.84C120.145 70.84 121.761 72.456 121.761 74.872V79H120.225V74.744C120.225 73.256 119.201 72.264 117.665 72.264C116.177 72.264 115.137 73.272 115.137 74.744ZM127.566 79C124.334 79 123.054 77.64 123.054 74.6V69.336H124.574V71.096H127.566V72.456H124.574V74.824C124.574 76.792 125.31 77.544 127.566 77.544V79ZM130.324 74.888V79H128.804V75.08C128.804 72.488 130.452 70.872 132.996 70.872V72.344C131.396 72.344 130.324 73.32 130.324 74.888ZM133.601 75.096C133.601 72.504 135.265 70.84 137.809 70.84C140.337 70.84 142.017 72.504 142.017 75V79H140.497V77.416L140.337 77.432V77.576C140.337 78.216 139.377 79.16 137.489 79.16C135.185 79.16 133.601 77.544 133.601 75.096ZM135.121 75C135.121 76.68 136.113 77.736 137.761 77.736C139.745 77.736 140.481 76.616 140.481 75C140.481 73.32 139.457 72.264 137.809 72.264C136.193 72.264 135.121 73.368 135.121 75ZM153.079 70.84C155.271 70.84 156.679 72.168 156.679 74.872V79H155.143V74.744C155.143 72.984 154.199 72.264 153.047 72.264C151.527 72.264 150.775 73.32 150.775 74.744V79H149.239V74.744C149.239 73.32 148.487 72.264 146.967 72.264C145.831 72.264 144.871 72.984 144.871 74.744V79H143.351V74.872C143.351 72.168 144.743 70.84 146.951 70.84C148.791 70.84 149.943 72.024 149.927 73.352H150.087C150.087 72.024 151.223 70.84 153.079 70.84ZM167.72 70.84C169.912 70.84 171.32 72.168 171.32 74.872V79H169.784V74.744C169.784 72.984 168.84 72.264 167.688 72.264C166.168 72.264 165.416 73.32 165.416 74.744V79H163.88V74.744C163.88 73.32 163.128 72.264 161.608 72.264C160.472 72.264 159.512 72.984 159.512 74.744V79H157.992V74.872C157.992 72.168 159.384 70.84 161.592 70.84C163.432 70.84 164.584 72.024 164.568 73.352H164.728C164.728 72.024 165.864 70.84 167.72 70.84ZM180.889 75.176H174.153C174.185 76.696 175.241 77.768 176.873 77.768C178.169 77.768 179.049 77.064 179.337 75.976H180.889C180.537 77.976 179.049 79.16 176.841 79.16C174.313 79.16 172.633 77.496 172.633 75C172.633 72.504 174.313 70.84 176.841 70.84C179.257 70.84 180.905 72.312 180.889 74.728V75.176ZM174.265 74.008H179.305C179.065 72.84 178.169 72.136 176.857 72.136C175.545 72.136 174.585 72.92 174.265 74.008ZM182.211 79V67H183.731V79H182.211ZM193.31 75.176H186.574C186.606 76.696 187.662 77.768 189.294 77.768C190.59 77.768 191.47 77.064 191.758 75.976H193.31C192.958 77.976 191.47 79.16 189.262 79.16C186.734 79.16 185.054 77.496 185.054 75C185.054 72.504 186.734 70.84 189.262 70.84C191.678 70.84 193.326 72.312 193.31 74.728V75.176ZM186.686 74.008H191.726C191.486 72.84 190.59 72.136 189.278 72.136C187.966 72.136 187.006 72.92 186.686 74.008ZM194.57 74.888C194.57 72.456 196.154 70.84 198.458 70.84C200.346 70.84 201.306 71.768 201.306 72.424V72.568H201.466V67H202.986V75C202.986 77.496 201.306 79.16 198.778 79.16C196.234 79.16 194.57 77.496 194.57 74.888ZM196.09 75C196.09 76.632 197.162 77.736 198.778 77.736C200.426 77.736 201.45 76.68 201.45 75C201.45 73.368 200.714 72.264 198.73 72.264C197.082 72.264 196.09 73.304 196.09 75ZM208.226 75.096C208.226 72.504 209.89 70.84 212.434 70.84C214.962 70.84 216.642 72.504 216.642 75V79H215.122V77.416L214.962 77.432V77.576C214.962 78.216 214.002 79.16 212.114 79.16C209.81 79.16 208.226 77.544 208.226 75.096ZM209.746 75C209.746 76.68 210.738 77.736 212.386 77.736C214.37 77.736 215.106 76.616 215.106 75C215.106 73.32 214.082 72.264 212.434 72.264C210.818 72.264 209.746 73.368 209.746 75ZM219.496 74.744V79H217.976V74.872C217.976 72.456 219.592 70.84 222.088 70.84C224.504 70.84 226.12 72.456 226.12 74.872V79H224.584V74.744C224.584 73.256 223.56 72.264 222.024 72.264C220.536 72.264 219.496 73.272 219.496 74.744ZM227.445 74.888C227.445 72.456 229.029 70.84 231.333 70.84C233.221 70.84 234.181 71.768 234.181 72.424V72.568H234.341V67H235.861V75C235.861 77.496 234.181 79.16 231.653 79.16C229.109 79.16 227.445 77.496 227.445 74.888ZM228.965 75C228.965 76.632 230.037 77.736 231.653 77.736C233.301 77.736 234.325 76.68 234.325 75C234.325 73.368 233.589 72.264 231.605 72.264C229.957 72.264 228.965 73.304 228.965 75Z" fill="white"/>
<path d="M43.3527 15.2C40.8327 15.2 39.2327 14.2 39.2327 12.62V12.44L39.0327 12.42V15H35.6327V8C35.6327 3.68 38.5527 0.799999 42.9127 0.799999C47.2927 0.799999 50.1927 3.68 50.1927 8C50.1927 12.14 47.2927 15.2 43.3527 15.2ZM39.0327 8C39.0327 10.4 40.5927 12 42.9127 12C45.2327 12 46.7927 10.4 46.7927 8C46.7927 5.6 45.2327 4 42.9127 4C40.5927 4 39.0327 5.6 39.0327 8ZM61.6554 10.68H54.7354C54.8354 11.46 55.5154 12.14 56.7354 12.14C57.4954 12.14 57.9554 11.9 58.1554 11.56H61.6554C61.2154 14.06 59.3554 15.2 56.5954 15.2C53.4354 15.2 51.3354 13.12 51.3354 10C51.3354 6.88 53.4354 4.8 56.5954 4.8C59.3554 4.8 61.6554 6.56 61.6554 9.94V10.68ZM54.8354 8.74H58.0954C58.0954 8.04 57.5154 7.4 56.6754 7.4C55.7154 7.4 55.0754 8.14 54.8354 8.74ZM71.4459 -1.19209e-06V3.2H69.4659C68.1059 3.2 67.3459 3.78 67.3459 4.8V5H76.2459V15H72.8459V7.8H67.3459V15H63.9659V7.8H62.4659V5H63.9659C64.1459 1.62 66.0859 -1.19209e-06 70.0059 -1.19209e-06H71.4459ZM72.6459 2.48C72.6459 1.46 73.4059 0.779999 74.5459 0.779999C75.6859 0.779999 76.4459 1.46 76.4459 2.48C76.4459 3.5 75.6859 4.18 74.5459 4.18C73.4059 4.18 72.6459 3.5 72.6459 2.48ZM80.9659 9.68V15H77.5659V9.84C77.5659 6.82 79.5859 4.8 82.7059 4.8C85.7259 4.8 87.7459 6.82 87.7459 9.84V15H84.3459V9.68C84.3459 8.68 83.6659 8 82.6459 8C81.6459 8 80.9659 8.68 80.9659 9.68ZM99.214 10.68H92.294C92.394 11.46 93.074 12.14 94.294 12.14C95.054 12.14 95.514 11.9 95.714 11.56H99.214C98.774 14.06 96.914 15.2 94.154 15.2C90.994 15.2 88.894 13.12 88.894 10C88.894 6.88 90.994 4.8 94.154 4.8C96.914 4.8 99.214 6.56 99.214 9.94V10.68ZM92.394 8.74H95.654C95.654 8.04 95.074 7.4 94.234 7.4C93.274 7.4 92.634 8.14 92.394 8.74ZM110.637 11.82H110.397V8.7H110.637C112.237 8.7 113.377 7.74 113.377 6.34C113.377 4.94 112.297 4 110.697 4C109.097 4 108.017 4.94 108.017 6.34V15H104.617V6.34C104.617 3.02 107.057 0.799999 110.697 0.799999C114.357 0.799999 116.777 3.02 116.777 6.04C116.777 9.42 114.137 10.3 113.217 10.3V10.5C114.137 10.5 115.177 11.2 115.617 11.9L117.597 15H113.697L112.197 12.68C111.857 12.16 111.237 11.82 110.637 11.82ZM127.788 10.68H120.868C120.968 11.46 121.648 12.14 122.868 12.14C123.628 12.14 124.088 11.9 124.288 11.56H127.788C127.348 14.06 125.488 15.2 122.728 15.2C119.568 15.2 117.468 13.12 117.468 10C117.468 6.88 119.568 4.8 122.728 4.8C125.488 4.8 127.788 6.56 127.788 9.94V10.68ZM120.968 8.74H124.228C124.228 8.04 123.648 7.4 122.808 7.4C121.848 7.4 121.208 8.14 120.968 8.74ZM128.933 10.22C128.933 6.68 131.033 4.8 134.193 4.8C137.353 4.8 139.453 6.88 139.453 10V20H136.053V12.84H135.873V13.04C135.873 14.18 134.833 15.2 133.073 15.2C130.553 15.2 128.933 13.26 128.933 10.22ZM132.333 10C132.333 11.18 133.073 12 134.193 12C135.313 12 136.053 11.18 136.053 10C136.053 8.82 135.313 8 134.193 8C133.073 8 132.333 8.82 132.333 10ZM143.993 10.32C143.993 11.32 144.673 12 145.673 12C146.693 12 147.373 11.32 147.373 10.32V5H150.773V10.16C150.773 13.18 148.753 15.2 145.733 15.2C142.613 15.2 140.593 13.18 140.593 10.16V5H143.993V10.32ZM151.921 2.48C151.921 1.46 152.681 0.779999 153.821 0.779999C154.961 0.779999 155.721 1.46 155.721 2.48C155.721 3.5 154.961 4.18 153.821 4.18C152.681 4.18 151.921 3.5 151.921 2.48ZM152.121 15V5H155.521V15H152.121ZM160.243 10.4V15H156.843V10.86C156.843 6.96 159.023 5 162.383 5V8.4C161.123 8.4 160.243 9.08 160.243 10.4ZM173.55 10.68H166.63C166.73 11.46 167.41 12.14 168.63 12.14C169.39 12.14 169.85 11.9 170.05 11.56H173.55C173.11 14.06 171.25 15.2 168.49 15.2C165.33 15.2 163.23 13.12 163.23 10C163.23 6.88 165.33 4.8 168.49 4.8C171.25 4.8 173.55 6.56 173.55 9.94V10.68ZM166.73 8.74H169.99C169.99 8.04 169.41 7.4 168.57 7.4C167.61 7.4 166.97 8.14 166.73 8.74ZM187.135 4.8C190.435 4.8 191.655 6.82 191.655 9.84V15H188.235V9.68C188.235 8.68 187.575 8 186.575 8C185.535 8 184.875 8.68 184.875 9.68V15H181.475V9.68C181.475 8.68 180.795 8 179.775 8C178.775 8 178.095 8.68 178.095 9.68V15H174.695V9.84C174.695 6.82 175.915 4.8 179.215 4.8C181.715 4.8 183.075 6.28 183.075 8.24H183.275C183.275 6.28 184.635 4.8 187.135 4.8ZM203.101 10.68H196.181C196.281 11.46 196.961 12.14 198.181 12.14C198.941 12.14 199.401 11.9 199.601 11.56H203.101C202.661 14.06 200.801 15.2 198.041 15.2C194.881 15.2 192.781 13.12 192.781 10C192.781 6.88 194.881 4.8 198.041 4.8C200.801 4.8 203.101 6.56 203.101 9.94V10.68ZM196.281 8.74H199.541C199.541 8.04 198.961 7.4 198.121 7.4C197.161 7.4 196.521 8.14 196.281 8.74ZM207.646 9.68V15H204.246V9.84C204.246 6.82 206.266 4.8 209.386 4.8C212.406 4.8 214.426 6.82 214.426 9.84V15H211.026V9.68C211.026 8.68 210.346 8 209.326 8C208.326 8 207.646 8.68 207.646 9.68ZM221.755 15C217.315 15 215.535 12.38 215.535 7.56V2.92H218.935V5.12H221.755V8.12H218.935C218.935 10.42 219.595 11.6 221.755 11.6V15ZM222.741 8.06C222.741 5.8 224.501 4.78 227.281 4.78C228.761 4.78 229.941 4.94 231.021 5.34V8.24C230.321 8 228.841 7.5 227.101 7.5C226.401 7.5 226.161 7.66 226.161 7.92C226.161 9.08 231.441 8.32 231.441 11.92C231.441 14.2 229.681 15.22 226.901 15.22C225.421 15.22 224.241 15.06 223.161 14.64V11.74C223.861 12 225.341 12.5 227.081 12.5C227.781 12.5 228.041 12.32 228.041 12.08C228.041 10.92 222.741 11.66 222.741 8.06Z" fill="white"/>
<path d="M25.903 340V311.688L101.873 236.274C104.781 233.529 107.091 230.869 108.802 228.295C110.513 225.55 111.797 222.804 112.652 220.059C113.508 217.314 113.935 214.568 113.935 211.823C113.935 205.989 111.369 201.184 106.236 197.409C101.274 193.463 95.0285 191.489 87.5 191.489C79.4582 191.489 71.9297 193.205 64.9144 196.637C57.8992 199.897 50.2852 205.56 42.0722 213.624L20 186.599C30.2662 176.819 41.1312 169.44 52.5951 164.464C64.23 159.488 76.2928 157 88.7833 157C101.616 157 112.738 159.231 122.148 163.692C131.73 167.982 139.173 174.073 144.477 181.966C149.781 189.688 152.433 198.782 152.433 209.249C152.433 214.911 151.578 220.402 149.867 225.722C148.327 230.869 145.846 235.931 142.424 240.907C139.002 245.883 134.553 251.031 129.078 256.35L77.2338 306.54L155 306.283V340H25.903Z" fill="white" fill-opacity="0.2"/>
<g filter="url(#filter0_d_206_118)">
<circle cx="137" cy="160" r="50" fill="#02FFC3"/>
</g>
<path d="M131.544 166.828C131.544 166.696 131.597 166.569 131.691 166.475C131.784 166.382 131.911 166.329 132.044 166.329H138.601C138.733 166.329 138.86 166.382 138.954 166.475C139.047 166.569 139.1 166.696 139.1 166.828C139.1 166.961 139.047 167.087 138.954 167.181C138.86 167.275 138.733 167.327 138.601 167.327H132.044C131.911 167.327 131.784 167.275 131.691 167.181C131.597 167.087 131.544 166.961 131.544 166.828ZM132.044 169.737H137.552C137.618 169.738 137.683 169.726 137.745 169.701C137.806 169.676 137.862 169.64 137.909 169.593C137.956 169.547 137.993 169.492 138.018 169.431C138.044 169.37 138.057 169.304 138.057 169.238C138.057 169.172 138.044 169.107 138.018 169.046C137.993 168.985 137.956 168.93 137.909 168.883C137.862 168.837 137.806 168.8 137.745 168.775C137.683 168.751 137.618 168.738 137.552 168.739H132.044C131.977 168.738 131.912 168.751 131.851 168.775C131.789 168.8 131.734 168.837 131.687 168.883C131.64 168.93 131.602 168.985 131.577 169.046C131.551 169.107 131.538 169.172 131.538 169.238C131.538 169.304 131.551 169.37 131.577 169.431C131.602 169.492 131.64 169.547 131.687 169.593C131.734 169.64 131.789 169.676 131.851 169.701C131.912 169.726 131.977 169.738 132.044 169.737ZM130.354 165.693C130.402 165.738 130.442 165.791 130.469 165.851C130.497 165.91 130.513 165.974 130.516 166.04C130.518 166.105 130.508 166.171 130.486 166.232C130.463 166.294 130.429 166.35 130.385 166.399L129.939 166.885C130.282 167.496 130.384 168.212 130.225 168.894C130.066 169.576 129.658 170.174 129.081 170.57C128.503 170.967 127.799 171.133 127.105 171.036C126.412 170.94 125.78 170.587 125.333 170.048C124.886 169.509 124.657 168.822 124.691 168.123C124.725 167.423 125.019 166.762 125.515 166.268C126.012 165.775 126.675 165.485 127.375 165.455C128.074 165.426 128.76 165.659 129.296 166.109L129.649 165.724C129.738 165.627 129.863 165.568 129.995 165.563C130.127 165.557 130.257 165.604 130.354 165.693V165.693ZM129.206 167.684L127.975 169.028C127.896 169.114 127.789 169.17 127.673 169.185C127.557 169.201 127.439 169.175 127.34 169.113L126.3 168.455C126.19 168.384 126.113 168.272 126.085 168.144C126.057 168.015 126.08 167.881 126.15 167.771C126.22 167.66 126.331 167.581 126.459 167.551C126.587 167.521 126.721 167.543 126.833 167.611L127.521 168.046L128.621 166.846C128.283 166.576 127.858 166.438 127.426 166.455C126.994 166.473 126.582 166.645 126.267 166.942C125.951 167.238 125.753 167.638 125.709 168.068C125.664 168.498 125.776 168.93 126.024 169.285C126.272 169.64 126.639 169.893 127.058 169.999C127.478 170.105 127.921 170.056 128.308 169.862C128.695 169.668 128.998 169.341 129.163 168.941C129.328 168.541 129.344 168.095 129.207 167.684L129.206 167.684ZM132.044 159.784H139.622C139.754 159.784 139.881 159.732 139.975 159.638C140.068 159.545 140.121 159.418 140.121 159.285C140.121 159.153 140.068 159.026 139.975 158.932C139.881 158.839 139.754 158.786 139.622 158.786H132.044C131.911 158.786 131.784 158.839 131.691 158.932C131.597 159.026 131.544 159.153 131.544 159.285C131.544 159.418 131.597 159.545 131.691 159.638C131.784 159.732 131.911 159.784 132.044 159.784ZM132.044 162.194H142.177C142.243 162.195 142.308 162.183 142.37 162.158C142.431 162.133 142.487 162.097 142.534 162.05C142.581 162.004 142.618 161.949 142.644 161.888C142.669 161.827 142.682 161.761 142.682 161.695C142.682 161.629 142.669 161.564 142.644 161.503C142.618 161.442 142.581 161.387 142.534 161.34C142.487 161.294 142.431 161.257 142.37 161.232C142.308 161.208 142.243 161.195 142.177 161.196H132.044C131.977 161.195 131.912 161.208 131.851 161.232C131.789 161.257 131.734 161.294 131.687 161.34C131.64 161.387 131.602 161.442 131.577 161.503C131.551 161.564 131.538 161.629 131.538 161.695C131.538 161.761 131.551 161.827 131.577 161.888C131.602 161.949 131.64 162.004 131.687 162.05C131.734 162.097 131.789 162.133 131.851 162.158C131.912 162.183 131.977 162.195 132.044 162.194ZM130.354 158.151C130.402 158.195 130.442 158.248 130.469 158.308C130.497 158.367 130.513 158.431 130.516 158.497C130.518 158.562 130.508 158.628 130.486 158.689C130.463 158.751 130.429 158.807 130.385 158.856L129.939 159.342C130.282 159.953 130.384 160.669 130.225 161.351C130.066 162.033 129.658 162.631 129.081 163.028C128.503 163.424 127.799 163.59 127.105 163.493C126.412 163.397 125.78 163.044 125.333 162.505C124.886 161.966 124.657 161.279 124.691 160.58C124.725 159.88 125.019 159.219 125.515 158.725C126.012 158.232 126.675 157.942 127.375 157.912C128.074 157.883 128.76 158.116 129.296 158.566L129.649 158.181C129.693 158.133 129.747 158.094 129.806 158.066C129.865 158.038 129.93 158.023 129.995 158.02C130.061 158.017 130.126 158.027 130.188 158.049C130.249 158.072 130.306 158.106 130.354 158.15V158.151ZM129.206 160.141L127.975 161.484C127.896 161.571 127.789 161.626 127.673 161.642C127.557 161.657 127.439 161.632 127.34 161.569L126.3 160.912C126.19 160.84 126.113 160.728 126.085 160.6C126.057 160.472 126.08 160.338 126.15 160.227C126.22 160.116 126.331 160.038 126.459 160.008C126.587 159.978 126.721 160 126.833 160.068L127.521 160.503L128.621 159.303C128.283 159.033 127.858 158.894 127.426 158.912C126.994 158.929 126.582 159.102 126.267 159.398C125.951 159.694 125.753 160.094 125.709 160.525C125.664 160.955 125.776 161.387 126.024 161.742C126.272 162.096 126.639 162.35 127.058 162.456C127.478 162.562 127.921 162.513 128.308 162.319C128.695 162.124 128.998 161.797 129.163 161.397C129.328 160.997 129.344 160.551 129.207 160.141L129.206 160.141ZM132.044 152.241H142.177C142.309 152.241 142.436 152.188 142.53 152.095C142.623 152.001 142.676 151.874 142.676 151.742C142.676 151.61 142.623 151.483 142.53 151.389C142.436 151.295 142.309 151.243 142.177 151.243H132.044C131.911 151.243 131.784 151.295 131.691 151.389C131.597 151.483 131.544 151.61 131.544 151.742C131.544 151.874 131.597 152.001 131.691 152.095C131.784 152.188 131.911 152.241 132.044 152.241ZM132.044 154.651H142.177C142.243 154.652 142.308 154.64 142.37 154.615C142.431 154.59 142.487 154.553 142.534 154.507C142.581 154.461 142.618 154.405 142.644 154.344C142.669 154.283 142.682 154.218 142.682 154.152C142.682 154.086 142.669 154.021 142.644 153.96C142.618 153.899 142.581 153.843 142.534 153.797C142.487 153.75 142.431 153.714 142.37 153.689C142.308 153.664 142.243 153.652 142.177 153.653H132.044C131.977 153.652 131.912 153.664 131.851 153.689C131.789 153.714 131.734 153.75 131.687 153.797C131.64 153.843 131.602 153.899 131.577 153.96C131.551 154.021 131.538 154.086 131.538 154.152C131.538 154.218 131.551 154.283 131.577 154.344C131.602 154.405 131.64 154.461 131.687 154.507C131.734 154.553 131.789 154.59 131.851 154.615C131.912 154.64 131.977 154.652 132.044 154.651ZM127.497 150.366C128.156 150.366 128.793 150.598 129.296 151.023L129.649 150.638C129.739 150.542 129.863 150.485 129.994 150.48C130.126 150.475 130.254 150.522 130.351 150.611C130.448 150.7 130.506 150.823 130.512 150.954C130.518 151.086 130.473 151.214 130.385 151.312L129.939 151.798C130.239 152.335 130.354 152.955 130.267 153.563C130.179 154.172 129.894 154.734 129.455 155.164C129.016 155.594 128.448 155.868 127.838 155.943C127.228 156.018 126.61 155.89 126.08 155.579C125.55 155.268 125.137 154.791 124.905 154.223C124.673 153.654 124.634 153.024 124.796 152.431C124.957 151.838 125.309 151.314 125.797 150.941C126.285 150.568 126.883 150.366 127.497 150.366V150.366ZM126.144 152.681C126.179 152.625 126.225 152.577 126.278 152.539C126.332 152.501 126.392 152.475 126.456 152.46C126.52 152.446 126.586 152.444 126.651 152.455C126.716 152.466 126.777 152.49 126.833 152.525L127.521 152.96L128.621 151.759C128.283 151.49 127.858 151.351 127.426 151.369C126.994 151.386 126.582 151.559 126.267 151.855C125.951 152.151 125.753 152.551 125.709 152.982C125.664 153.412 125.776 153.844 126.024 154.199C126.272 154.553 126.639 154.807 127.058 154.913C127.478 155.019 127.921 154.97 128.308 154.776C128.695 154.581 128.998 154.254 129.163 153.854C129.328 153.454 129.344 153.008 129.207 152.598L127.975 153.942C127.896 154.028 127.789 154.084 127.673 154.099C127.557 154.115 127.44 154.089 127.341 154.026L126.3 153.369C126.188 153.298 126.109 153.186 126.08 153.057C126.05 152.928 126.074 152.793 126.144 152.681V152.681ZM153.666 171.401C153.666 172.765 153.288 174.101 152.572 175.261C151.856 176.422 150.832 177.36 149.613 177.971C148.394 178.582 147.03 178.842 145.672 178.721C144.314 178.601 143.016 178.105 141.924 177.289H123.623C122.751 177.288 121.915 176.941 121.299 176.325C120.682 175.708 120.335 174.873 120.334 174.001V147.632C120.335 146.76 120.682 145.924 121.299 145.308C121.915 144.692 122.751 144.345 123.623 144.344H128.321V143.834C128.321 143.768 128.334 143.703 128.359 143.643C128.384 143.582 128.421 143.527 128.467 143.481C128.513 143.435 128.568 143.398 128.629 143.373C128.689 143.348 128.754 143.335 128.82 143.335H131.31C131.431 142.746 131.752 142.217 132.219 141.837C132.685 141.457 133.268 141.25 133.869 141.25C134.47 141.25 135.053 141.457 135.52 141.837C135.986 142.217 136.307 142.746 136.428 143.335H138.918C138.984 143.335 139.049 143.348 139.109 143.373C139.17 143.398 139.225 143.435 139.271 143.481C139.318 143.527 139.354 143.582 139.38 143.643C139.405 143.703 139.418 143.768 139.418 143.834V144.344H144.116C144.987 144.345 145.823 144.692 146.44 145.308C147.056 145.925 147.403 146.76 147.404 147.632V150.928L149.484 148.964C149.705 148.757 149.999 148.645 150.302 148.654C150.605 148.663 150.892 148.791 151.1 149.011L152.117 150.089C152.325 150.309 152.436 150.603 152.428 150.906C152.419 151.209 152.29 151.496 152.07 151.704L147.404 156.109V164.133C149.144 164.396 150.733 165.274 151.882 166.607C153.031 167.94 153.664 169.641 153.666 171.401ZM146.406 157.051L145.452 157.952V164.104C145.739 164.07 146.028 164.053 146.317 164.053C146.347 164.053 146.376 164.054 146.406 164.054L146.406 157.051ZM128.321 147.8V147.294H123.623C123.534 147.295 123.448 147.331 123.385 147.394C123.322 147.458 123.286 147.543 123.285 147.632V174.001C123.286 174.09 123.322 174.175 123.385 174.238C123.448 174.302 123.533 174.338 123.623 174.339H139.582C139.157 173.366 138.949 172.314 138.97 171.253C138.991 170.192 139.242 169.149 139.705 168.194C140.168 167.239 140.832 166.396 141.652 165.723C142.472 165.049 143.427 164.561 144.454 164.292V158.705L141.829 159.328C141.743 159.348 141.654 159.345 141.57 159.32C141.487 159.295 141.411 159.248 141.351 159.185C141.29 159.121 141.248 159.042 141.228 158.957C141.208 158.872 141.21 158.783 141.235 158.699L141.642 157.339C141.644 157.332 141.646 157.325 141.649 157.319L142.102 156.011L142.106 156C142.134 155.924 142.179 155.857 142.239 155.803L144.454 153.713V147.632C144.453 147.543 144.416 147.458 144.353 147.394C144.29 147.331 144.205 147.295 144.115 147.294H139.418V147.8C139.418 147.932 139.365 148.059 139.271 148.153C139.178 148.246 139.051 148.299 138.918 148.299H128.82C128.687 148.299 128.56 148.246 128.467 148.153C128.373 148.059 128.321 147.932 128.321 147.8ZM142.595 157.636L142.439 158.157L143.519 157.901L142.776 157.114L142.595 157.636ZM143.28 156.193L144.496 157.481L151.385 150.978C151.413 150.952 151.429 150.915 151.43 150.877C151.431 150.839 151.417 150.802 151.391 150.774L150.374 149.696C150.347 149.669 150.311 149.653 150.273 149.651C150.235 149.65 150.197 149.664 150.169 149.69L143.28 156.193ZM139.418 145.341V146.296H144.115C144.47 146.296 144.809 146.437 145.06 146.688C145.31 146.938 145.451 147.278 145.451 147.632V152.77L146.406 151.87V147.632C146.406 147.025 146.164 146.443 145.735 146.013C145.305 145.584 144.723 145.343 144.116 145.342L139.418 145.341ZM129.319 147.301H138.419V144.333H135.983C135.852 144.333 135.726 144.281 135.633 144.189C135.539 144.097 135.486 143.972 135.484 143.841C135.478 143.416 135.306 143.011 135.003 142.713C134.701 142.415 134.294 142.248 133.869 142.248C133.445 142.248 133.037 142.415 132.735 142.713C132.433 143.011 132.26 143.416 132.254 143.841C132.252 143.972 132.199 144.097 132.105 144.189C132.012 144.281 131.886 144.333 131.755 144.333H129.319V147.301ZM123.623 176.291H140.836C140.57 175.993 140.328 175.674 140.114 175.337H123.623C123.269 175.336 122.929 175.196 122.678 174.945C122.428 174.695 122.287 174.355 122.286 174.001V147.632C122.287 147.278 122.428 146.938 122.678 146.688C122.929 146.437 123.269 146.297 123.623 146.296H128.321V145.342H123.623C123.016 145.343 122.433 145.584 122.004 146.013C121.575 146.443 121.333 147.025 121.332 147.632V174.001C121.333 174.608 121.575 175.19 122.004 175.619C122.433 176.049 123.016 176.29 123.623 176.291ZM152.668 171.401C152.668 170.145 152.295 168.918 151.597 167.873C150.9 166.829 149.908 166.015 148.747 165.534C147.587 165.054 146.31 164.928 145.078 165.173C143.846 165.418 142.715 166.023 141.827 166.911C140.938 167.799 140.334 168.931 140.089 170.162C139.844 171.394 139.969 172.671 140.45 173.832C140.931 174.992 141.745 175.984 142.789 176.682C143.833 177.379 145.061 177.752 146.317 177.752C148.001 177.75 149.615 177.08 150.806 175.89C151.996 174.699 152.666 173.085 152.668 171.401ZM149.021 168.982L145.485 172.839L143.512 171.593C143.4 171.524 143.266 171.503 143.138 171.532C143.011 171.562 142.9 171.641 142.83 171.752C142.76 171.863 142.736 171.997 142.764 172.125C142.792 172.253 142.869 172.365 142.979 172.437L145.305 173.905C145.404 173.968 145.521 173.994 145.637 173.978C145.753 173.963 145.86 173.907 145.939 173.821L149.756 169.656C149.801 169.608 149.835 169.551 149.858 169.49C149.88 169.428 149.89 169.363 149.887 169.297C149.884 169.232 149.869 169.168 149.841 169.108C149.813 169.049 149.774 168.996 149.726 168.951C149.678 168.907 149.621 168.873 149.559 168.85C149.498 168.828 149.432 168.818 149.367 168.821C149.301 168.823 149.237 168.839 149.178 168.867C149.118 168.895 149.065 168.934 149.021 168.982Z" fill="black"/>
<line y1="-0.5" x2="227.774" y2="-0.5" transform="matrix(-0.878063 0.478545 0.478545 0.878063 387 51)" stroke="#219BE4" stroke-dasharray="2 2"/>
<defs>
<filter id="filter0_d_206_118" x="62" y="89" width="150" height="150" filterUnits="userSpaceOnUse" color-interpolation-filters="sRGB">
<feFlood flood-opacity="0" result="BackgroundImageFix"/>
<feColorMatrix in="SourceAlpha" type="matrix" values="0 0 0 0 0 0 0 0 0 0 0 0 0 0 0 0 0 0 127 0" result="hardAlpha"/>
<feOffset dy="4"/>
<feGaussianBlur stdDeviation="12.5"/>
<feComposite in2="hardAlpha" operator="out"/>
<feColorMatrix type="matrix" values="0 0 0 0 0 0 0 0 0 0 0 0 0 0 0 0 0 0 0.08 0"/>
<feBlend mode="normal" in2="BackgroundImageFix" result="effect1_dropShadow_206_118"/>
<feBlend mode="normal" in="SourceGraphic" in2="effect1_dropShadow_206_118" result="shape"/>
</filter>
</defs>
</svg>
