<svg width="919" height="1319" viewBox="0 0 919 1319" fill="none" xmlns="http://www.w3.org/2000/svg">
<g filter="url(#filter0_f_206_116)">
<ellipse cx="703" cy="659.085" rx="163" ry="119.085" fill="#09FFC5" fill-opacity="0.7"/>
</g>
<path d="M528.859 500V488.8H530.379V500H528.859ZM533.223 495.744V500H531.703V495.872C531.703 493.456 533.319 491.84 535.815 491.84C538.231 491.84 539.847 493.456 539.847 495.872V500H538.311V495.744C538.311 494.256 537.287 493.264 535.751 493.264C534.263 493.264 533.223 494.272 533.223 495.744ZM545.078 496.096C545.078 493.504 546.742 491.84 549.286 491.84C551.814 491.84 553.494 493.504 553.494 496V500H551.974V498.416L551.814 498.432V498.576C551.814 499.216 550.854 500.16 548.966 500.16C546.662 500.16 545.078 498.544 545.078 496.096ZM546.598 496C546.598 497.68 547.59 498.736 549.238 498.736C551.222 498.736 551.958 497.616 551.958 496C551.958 494.32 550.934 493.264 549.286 493.264C547.67 493.264 546.598 494.368 546.598 496ZM565.15 488V489.424H563.822C562.206 489.424 561.358 490.256 561.358 491.84V492H564.27V493.312H561.358V500H559.838V493.312H558.654V492H559.838C559.87 489.488 561.262 488 563.822 488H565.15ZM566.504 495.888V500H564.984V496.08C564.984 493.488 566.632 491.872 569.176 491.872V493.344C567.576 493.344 566.504 494.32 566.504 495.888ZM578.037 496.176H571.301C571.333 497.696 572.389 498.768 574.021 498.768C575.317 498.768 576.197 498.064 576.485 496.976H578.037C577.685 498.976 576.197 500.16 573.989 500.16C571.461 500.16 569.781 498.496 569.781 496C569.781 493.504 571.461 491.84 573.989 491.84C576.405 491.84 578.053 493.312 578.037 495.728V496.176ZM571.413 495.008H576.453C576.213 493.84 575.317 493.136 574.005 493.136C572.693 493.136 571.733 493.92 571.413 495.008ZM587.553 496.176H580.817C580.849 497.696 581.905 498.768 583.537 498.768C584.833 498.768 585.713 498.064 586.001 496.976H587.553C587.201 498.976 585.713 500.16 583.505 500.16C580.977 500.16 579.297 498.496 579.297 496C579.297 493.504 580.977 491.84 583.505 491.84C585.921 491.84 587.569 493.312 587.553 495.728V496.176ZM580.929 495.008H585.969C585.729 493.84 584.833 493.136 583.521 493.136C582.209 493.136 581.249 493.92 580.929 495.008ZM594.301 495.872V500H592.781V488H594.301V493.696H594.461C594.461 492.832 595.389 491.84 597.197 491.84C599.453 491.84 600.765 493.296 600.765 495.536V500H599.229V495.584C599.229 494.112 598.397 493.264 596.941 493.264C595.213 493.264 594.301 494.384 594.301 495.872ZM602.094 496C602.094 493.504 603.774 491.84 606.302 491.84C608.83 491.84 610.51 493.504 610.51 496C610.51 498.496 608.83 500.16 606.302 500.16C603.774 500.16 602.094 498.496 602.094 496ZM603.614 496C603.614 497.632 604.686 498.736 606.302 498.736C607.918 498.736 608.99 497.632 608.99 496C608.99 494.368 607.918 493.264 606.302 493.264C604.686 493.264 603.614 494.368 603.614 496ZM613.348 496.256C613.348 497.728 614.388 498.736 615.876 498.736C617.412 498.736 618.436 497.744 618.436 496.256V492H619.972V496.128C619.972 498.544 618.356 500.16 615.94 500.16C613.444 500.16 611.828 498.544 611.828 496.128V492H613.348V496.256ZM622.817 495.888V500H621.297V496.08C621.297 493.488 622.945 491.872 625.489 491.872V493.344C623.889 493.344 622.817 494.32 622.817 495.888ZM625.842 499.216C625.842 498.64 626.242 498.272 626.866 498.272C627.474 498.272 627.89 498.64 627.89 499.216C627.89 500.256 627.058 501.232 626.146 501.664L625.826 501.2C626.162 500.96 626.418 500.496 626.434 500.096C626.066 499.968 625.842 499.648 625.842 499.216ZM636.709 500.16C634.501 500.16 633.109 498.832 633.109 496.128V492H634.629V496.256C634.629 498.016 635.589 498.736 636.725 498.736C638.245 498.736 638.997 497.664 638.997 496.256V492H640.533V496.256C640.533 497.664 641.285 498.736 642.805 498.736C643.957 498.736 644.901 498.016 644.901 496.256V492H646.437V496.128C646.437 498.832 645.029 500.16 642.837 500.16C640.981 500.16 639.845 498.976 639.845 497.648H639.685C639.685 498.976 638.549 500.16 636.709 500.16ZM649.27 495.872V500H647.75V488H649.27V493.696H649.43C649.43 492.832 650.358 491.84 652.166 491.84C654.422 491.84 655.734 493.296 655.734 495.536V500H654.198V495.584C654.198 494.112 653.366 493.264 651.91 493.264C650.182 493.264 649.27 494.384 649.27 495.872ZM665.318 496.176H658.582C658.614 497.696 659.67 498.768 661.302 498.768C662.598 498.768 663.478 498.064 663.766 496.976H665.318C664.966 498.976 663.478 500.16 661.27 500.16C658.742 500.16 657.062 498.496 657.062 496C657.062 493.504 658.742 491.84 661.27 491.84C663.686 491.84 665.334 493.312 665.318 495.728V496.176ZM658.694 495.008H663.734C663.494 493.84 662.598 493.136 661.286 493.136C659.974 493.136 659.014 493.92 658.694 495.008ZM668.16 495.744V500H666.64V495.872C666.64 493.456 668.256 491.84 670.752 491.84C673.168 491.84 674.784 493.456 674.784 495.872V500H673.248V495.744C673.248 494.256 672.224 493.264 670.688 493.264C669.2 493.264 668.16 494.272 668.16 495.744ZM680.015 496C680.015 493.504 681.695 491.84 684.223 491.84C686.751 491.84 688.431 493.504 688.431 496C688.431 498.496 686.751 500.16 684.223 500.16C681.695 500.16 680.015 498.496 680.015 496ZM681.535 496C681.535 497.632 682.607 498.736 684.223 498.736C685.839 498.736 686.911 497.632 686.911 496C686.911 494.368 685.839 493.264 684.223 493.264C682.607 493.264 681.535 494.368 681.535 496ZM691.27 496.256C691.27 497.728 692.31 498.736 693.798 498.736C695.334 498.736 696.358 497.744 696.358 496.256V492H697.894V496.128C697.894 498.544 696.278 500.16 693.862 500.16C691.366 500.16 689.75 498.544 689.75 496.128V492H691.27V496.256ZM700.739 495.888V500H699.219V496.08C699.219 493.488 700.867 491.872 703.411 491.872V493.344C701.811 493.344 700.739 494.32 700.739 495.888ZM716.978 496.096C716.978 498.544 715.394 500.16 713.09 500.16C711.202 500.16 710.242 499.216 710.242 498.576V498.432L710.082 498.416V504H708.562V496C708.562 493.504 710.242 491.84 712.77 491.84C715.314 491.84 716.978 493.504 716.978 496.096ZM715.458 496C715.458 494.368 714.37 493.264 712.77 493.264C711.122 493.264 710.082 494.32 710.082 496C710.082 497.616 710.834 498.736 712.818 498.736C714.466 498.736 715.458 497.68 715.458 496ZM718.25 496C718.25 493.504 719.93 491.84 722.458 491.84C724.986 491.84 726.666 493.504 726.666 496C726.666 498.496 724.986 500.16 722.458 500.16C719.93 500.16 718.25 498.496 718.25 496ZM719.77 496C719.77 497.632 720.842 498.736 722.458 498.736C724.074 498.736 725.146 497.632 725.146 496C725.146 494.368 724.074 493.264 722.458 493.264C720.842 493.264 719.77 494.368 719.77 496ZM731.584 500.16C729.376 500.16 727.984 498.832 727.984 496.128V492H729.504V496.256C729.504 498.016 730.464 498.736 731.6 498.736C733.12 498.736 733.872 497.664 733.872 496.256V492H735.408V496.256C735.408 497.664 736.16 498.736 737.68 498.736C738.832 498.736 739.776 498.016 739.776 496.256V492H741.312V496.128C741.312 498.832 739.904 500.16 737.712 500.16C735.856 500.16 734.72 498.976 734.72 497.648H734.56C734.56 498.976 733.424 500.16 731.584 500.16ZM750.881 496.176H744.145C744.177 497.696 745.233 498.768 746.865 498.768C748.161 498.768 749.041 498.064 749.329 496.976H750.881C750.529 498.976 749.041 500.16 746.833 500.16C744.305 500.16 742.625 498.496 742.625 496C742.625 493.504 744.305 491.84 746.833 491.84C749.249 491.84 750.897 493.312 750.881 495.728V496.176ZM744.257 495.008H749.297C749.057 493.84 748.161 493.136 746.849 493.136C745.537 493.136 744.577 493.92 744.257 495.008ZM753.723 495.888V500H752.203V496.08C752.203 493.488 753.851 491.872 756.395 491.872V493.344C754.795 493.344 753.723 494.32 753.723 495.888ZM761.547 496C761.547 493.504 763.227 491.84 765.755 491.84C768.283 491.84 769.963 493.504 769.963 496C769.963 498.496 768.283 500.16 765.755 500.16C763.227 500.16 761.547 498.496 761.547 496ZM763.067 496C763.067 497.632 764.139 498.736 765.755 498.736C767.371 498.736 768.443 497.632 768.443 496C768.443 494.368 767.371 493.264 765.755 493.264C764.139 493.264 763.067 494.368 763.067 496ZM777.244 488V489.424H775.916C774.3 489.424 773.452 490.256 773.452 491.84V492H776.364V493.312H773.452V500H771.932V493.312H770.748V492H771.932C771.964 489.488 773.356 488 775.916 488H777.244ZM553.637 524C553.637 525.632 554.709 526.736 556.325 526.736C557.653 526.736 558.517 526 558.821 524.88H560.373C560.021 526.88 558.533 528.16 556.325 528.16C553.797 528.16 552.117 526.496 552.117 524C552.117 521.504 553.797 519.84 556.325 519.84C558.533 519.84 560.021 521.12 560.373 523.12H558.821C558.517 522 557.653 521.264 556.325 521.264C554.709 521.264 553.637 522.368 553.637 524ZM563.215 523.872V528H561.695V516H563.215V521.696H563.375C563.375 520.832 564.303 519.84 566.111 519.84C568.367 519.84 569.679 521.296 569.679 523.536V528H568.143V523.584C568.143 522.112 567.311 521.264 565.855 521.264C564.127 521.264 563.215 522.384 563.215 523.872ZM571.008 524C571.008 521.504 572.688 519.84 575.216 519.84C577.744 519.84 579.424 521.504 579.424 524C579.424 526.496 577.744 528.16 575.216 528.16C572.688 528.16 571.008 526.496 571.008 524ZM572.528 524C572.528 525.632 573.6 526.736 575.216 526.736C576.832 526.736 577.904 525.632 577.904 524C577.904 522.368 576.832 521.264 575.216 521.264C573.6 521.264 572.528 522.368 572.528 524ZM580.742 517.52C580.742 516.992 581.11 516.64 581.654 516.64C582.214 516.64 582.582 516.992 582.582 517.52C582.582 518.048 582.214 518.4 581.654 518.4C581.11 518.4 580.742 518.048 580.742 517.52ZM580.902 528V520H582.422V528H580.902ZM585.418 524C585.418 525.632 586.49 526.736 588.106 526.736C589.434 526.736 590.298 526 590.602 524.88H592.154C591.802 526.88 590.314 528.16 588.106 528.16C585.578 528.16 583.898 526.496 583.898 524C583.898 521.504 585.578 519.84 588.106 519.84C590.314 519.84 591.802 521.12 592.154 523.12H590.602C590.298 522 589.434 521.264 588.106 521.264C586.49 521.264 585.418 522.368 585.418 524ZM601.67 524.176H594.934C594.966 525.696 596.022 526.768 597.654 526.768C598.95 526.768 599.83 526.064 600.118 524.976H601.67C601.318 526.976 599.83 528.16 597.622 528.16C595.094 528.16 593.414 526.496 593.414 524C593.414 521.504 595.094 519.84 597.622 519.84C600.038 519.84 601.686 521.312 601.67 523.728V524.176ZM595.046 523.008H600.086C599.846 521.84 598.95 521.136 597.638 521.136C596.326 521.136 595.366 521.92 595.046 523.008ZM606.898 517.52C606.898 516.992 607.266 516.64 607.81 516.64C608.37 516.64 608.738 516.992 608.738 517.52C608.738 518.048 608.37 518.4 607.81 518.4C607.266 518.4 606.898 518.048 606.898 517.52ZM607.058 528V520H608.578V528H607.058ZM610.022 522.176C610.022 520.592 611.27 519.824 613.654 519.824C614.838 519.824 615.782 519.952 616.646 520.272V521.696C616.086 521.488 614.902 521.136 613.494 521.136C612.182 521.136 611.542 521.456 611.542 522.064C611.542 523.68 616.982 522.784 616.982 525.664C616.982 527.232 615.75 528.176 613.35 528.176C612.166 528.176 611.222 528.048 610.358 527.728V526.304C610.918 526.512 612.118 526.864 613.51 526.864C614.822 526.864 615.446 526.384 615.446 525.776C615.446 524.176 610.022 525.056 610.022 522.176ZM623.668 524.256C623.668 525.728 624.708 526.736 626.196 526.736C627.732 526.736 628.756 525.744 628.756 524.256V520H630.292V524.128C630.292 526.544 628.676 528.16 626.26 528.16C623.764 528.16 622.148 526.544 622.148 524.128V520H623.668V524.256ZM633.137 523.744V528H631.617V523.872C631.617 521.456 633.233 519.84 635.729 519.84C638.145 519.84 639.761 521.456 639.761 523.872V528H638.225V523.744C638.225 522.256 637.201 521.264 635.665 521.264C634.177 521.264 633.137 522.272 633.137 523.744ZM645.566 528C642.334 528 641.054 526.64 641.054 523.6V518.336H642.574V520.096H645.566V521.456H642.574V523.824C642.574 525.792 643.31 526.544 645.566 526.544V528ZM648.324 523.888V528H646.804V524.08C646.804 521.488 648.452 519.872 650.996 519.872V521.344C649.396 521.344 648.324 522.32 648.324 523.888ZM651.601 524.096C651.601 521.504 653.265 519.84 655.809 519.84C658.337 519.84 660.017 521.504 660.017 524V528H658.497V526.416L658.337 526.432V526.576C658.337 527.216 657.377 528.16 655.489 528.16C653.185 528.16 651.601 526.544 651.601 524.096ZM653.121 524C653.121 525.68 654.113 526.736 655.761 526.736C657.745 526.736 658.481 525.616 658.481 524C658.481 522.32 657.457 521.264 655.809 521.264C654.193 521.264 653.121 522.368 653.121 524ZM671.079 519.84C673.271 519.84 674.679 521.168 674.679 523.872V528H673.143V523.744C673.143 521.984 672.199 521.264 671.047 521.264C669.527 521.264 668.775 522.32 668.775 523.744V528H667.239V523.744C667.239 522.32 666.487 521.264 664.967 521.264C663.831 521.264 662.871 521.984 662.871 523.744V528H661.351V523.872C661.351 521.168 662.743 519.84 664.951 519.84C666.791 519.84 667.943 521.024 667.927 522.352H668.087C668.087 521.024 669.223 519.84 671.079 519.84ZM685.72 519.84C687.912 519.84 689.32 521.168 689.32 523.872V528H687.784V523.744C687.784 521.984 686.84 521.264 685.688 521.264C684.168 521.264 683.416 522.32 683.416 523.744V528H681.88V523.744C681.88 522.32 681.128 521.264 679.608 521.264C678.472 521.264 677.512 521.984 677.512 523.744V528H675.992V523.872C675.992 521.168 677.384 519.84 679.592 519.84C681.432 519.84 682.584 521.024 682.568 522.352H682.728C682.728 521.024 683.864 519.84 685.72 519.84ZM698.889 524.176H692.153C692.185 525.696 693.241 526.768 694.873 526.768C696.169 526.768 697.049 526.064 697.337 524.976H698.889C698.537 526.976 697.049 528.16 694.841 528.16C692.313 528.16 690.633 526.496 690.633 524C690.633 521.504 692.313 519.84 694.841 519.84C697.257 519.84 698.905 521.312 698.889 523.728V524.176ZM692.265 523.008H697.305C697.065 521.84 696.169 521.136 694.857 521.136C693.545 521.136 692.585 521.92 692.265 523.008ZM700.211 528V516H701.731V528H700.211ZM711.31 524.176H704.574C704.606 525.696 705.662 526.768 707.294 526.768C708.59 526.768 709.47 526.064 709.758 524.976H711.31C710.958 526.976 709.47 528.16 707.262 528.16C704.734 528.16 703.054 526.496 703.054 524C703.054 521.504 704.734 519.84 707.262 519.84C709.678 519.84 711.326 521.312 711.31 523.728V524.176ZM704.686 523.008H709.726C709.486 521.84 708.59 521.136 707.278 521.136C705.966 521.136 705.006 521.92 704.686 523.008ZM712.57 523.888C712.57 521.456 714.154 519.84 716.458 519.84C718.346 519.84 719.306 520.768 719.306 521.424V521.568H719.466V516H720.986V524C720.986 526.496 719.306 528.16 716.778 528.16C714.234 528.16 712.57 526.496 712.57 523.888ZM714.09 524C714.09 525.632 715.162 526.736 716.778 526.736C718.426 526.736 719.45 525.68 719.45 524C719.45 522.368 718.714 521.264 716.73 521.264C715.082 521.264 714.09 522.304 714.09 524ZM726.226 524.096C726.226 521.504 727.89 519.84 730.434 519.84C732.962 519.84 734.642 521.504 734.642 524V528H733.122V526.416L732.962 526.432V526.576C732.962 527.216 732.002 528.16 730.114 528.16C727.81 528.16 726.226 526.544 726.226 524.096ZM727.746 524C727.746 525.68 728.738 526.736 730.386 526.736C732.37 526.736 733.106 525.616 733.106 524C733.106 522.32 732.082 521.264 730.434 521.264C728.818 521.264 727.746 522.368 727.746 524ZM737.496 523.744V528H735.976V523.872C735.976 521.456 737.592 519.84 740.088 519.84C742.504 519.84 744.12 521.456 744.12 523.872V528H742.584V523.744C742.584 522.256 741.56 521.264 740.024 521.264C738.536 521.264 737.496 522.272 737.496 523.744ZM745.445 523.888C745.445 521.456 747.029 519.84 749.333 519.84C751.221 519.84 752.181 520.768 752.181 521.424V521.568H752.341V516H753.861V524C753.861 526.496 752.181 528.16 749.653 528.16C747.109 528.16 745.445 526.496 745.445 523.888ZM746.965 524C746.965 525.632 748.037 526.736 749.653 526.736C751.301 526.736 752.325 525.68 752.325 524C752.325 522.368 751.589 521.264 749.605 521.264C747.957 521.264 746.965 522.304 746.965 524Z" fill="white"/>
<path d="M597.411 455.46V458.54H591.231V464H587.831V459.02C587.831 457.88 588.611 457.08 589.771 457.1H589.891V456.9H589.771C588.611 456.9 587.831 456.12 587.831 454.98V452.8C587.831 451.12 588.951 450 590.631 450H598.571V453.1H591.231V455.46H597.411ZM599.609 451.48C599.609 450.46 600.369 449.78 601.509 449.78C602.649 449.78 603.409 450.46 603.409 451.48C603.409 452.5 602.649 453.18 601.509 453.18C600.369 453.18 599.609 452.5 599.609 451.48ZM599.809 464V454H603.209V464H599.809ZM607.931 458.68V464H604.531V458.84C604.531 455.82 606.551 453.8 609.671 453.8C612.691 453.8 614.711 455.82 614.711 458.84V464H611.311V458.68C611.311 457.68 610.631 457 609.611 457C608.611 457 607.931 457.68 607.931 458.68ZM615.859 451.48C615.859 450.46 616.619 449.78 617.759 449.78C618.899 449.78 619.659 450.46 619.659 451.48C619.659 452.5 618.899 453.18 617.759 453.18C616.619 453.18 615.859 452.5 615.859 451.48ZM616.059 464V454H619.459V464H616.059ZM620.781 459.22C620.781 455.68 622.881 453.8 626.041 453.8C629.201 453.8 631.301 455.88 631.301 459V464H627.901V461.84H627.721V462.04C627.721 463.18 626.681 464.2 624.921 464.2C622.401 464.2 620.781 462.26 620.781 459.22ZM624.181 459C624.181 460.18 624.921 461 626.041 461C627.161 461 627.901 460.18 627.901 459C627.901 457.82 627.161 457 626.041 457C624.921 457 624.181 457.82 624.181 459ZM632.441 464V449H635.841V464H632.441ZM641.17 454.34C641.17 451.2 643.67 449.8 646.93 449.8C649.19 449.8 650.47 450.02 651.95 450.58V453.98C650.97 453.64 649.75 453.06 647.01 453.06C645.19 453.06 644.57 453.58 644.57 454.14C644.57 456.54 652.55 453.88 652.55 459.66C652.55 462.8 650.05 464.22 646.79 464.22C644.55 464.22 643.27 464 641.77 463.44V460.02C642.75 460.38 643.97 460.96 646.71 460.96C648.53 460.96 649.17 460.42 649.17 459.9C649.17 457.48 641.17 460.12 641.17 454.34ZM653.632 459C653.632 455.88 655.732 453.8 658.892 453.8C662.052 453.8 664.152 455.88 664.152 459C664.152 462.12 662.052 464.2 658.892 464.2C655.732 464.2 653.632 462.12 653.632 459ZM657.032 459C657.032 460.18 657.772 461 658.892 461C660.012 461 660.752 460.18 660.752 459C660.752 457.82 660.012 457 658.892 457C657.772 457 657.032 457.82 657.032 459ZM665.273 464V449H668.673V464H665.273ZM673.204 459.32C673.204 460.32 673.884 461 674.884 461C675.904 461 676.584 460.32 676.584 459.32V454H679.984V459.16C679.984 462.18 677.964 464.2 674.944 464.2C671.824 464.2 669.804 462.18 669.804 459.16V454H673.204V459.32ZM687.372 464C682.932 464 681.152 461.38 681.152 456.56V451.92H684.552V454.12H687.372V457.12H684.552C684.552 459.42 685.212 460.6 687.372 460.6V464ZM688.398 451.48C688.398 450.46 689.158 449.78 690.298 449.78C691.438 449.78 692.198 450.46 692.198 451.48C692.198 452.5 691.438 453.18 690.298 453.18C689.158 453.18 688.398 452.5 688.398 451.48ZM688.598 464V454H691.998V464H688.598ZM693.32 459C693.32 455.88 695.42 453.8 698.58 453.8C701.74 453.8 703.84 455.88 703.84 459C703.84 462.12 701.74 464.2 698.58 464.2C695.42 464.2 693.32 462.12 693.32 459ZM696.72 459C696.72 460.18 697.46 461 698.58 461C699.7 461 700.44 460.18 700.44 459C700.44 457.82 699.7 457 698.58 457C697.46 457 696.72 457.82 696.72 459ZM708.36 458.68V464H704.96V458.84C704.96 455.82 706.98 453.8 710.1 453.8C713.12 453.8 715.14 455.82 715.14 458.84V464H711.74V458.68C711.74 457.68 711.06 457 710.04 457C709.04 457 708.36 457.68 708.36 458.68Z" fill="white"/>
<path d="M651.653 802V763.25H553V730.5L644.893 627H692.216V729.5H714V763.25H692.216V802H651.653ZM599.823 729.5H651.653V671.5L599.823 729.5Z" fill="white" fill-opacity="0.2"/>
<g filter="url(#filter1_d_206_116)">
<circle cx="655" cy="609" r="50" fill="#02FFC3"/>
</g>
<g clip-path="url(#clip0_206_116)">
<path d="M674.257 610.641L668.678 600.98C668.561 600.777 668.369 600.63 668.143 600.569C667.917 600.509 667.677 600.54 667.474 600.657L665.521 601.786V594.29C665.521 594.281 665.521 594.272 665.517 594.262L665.513 594.231C665.513 594.22 665.507 594.209 665.505 594.198L665.498 594.173L665.487 594.141C665.487 594.133 665.481 594.125 665.479 594.118L665.465 594.086C665.461 594.079 665.458 594.071 665.454 594.064L665.438 594.035C665.433 594.027 665.429 594.019 665.423 594.012L665.406 593.987L665.389 593.963L665.37 593.941L665.359 593.927L661.576 589.826L661.567 589.818L661.542 589.793L661.522 589.775C661.513 589.767 661.503 589.759 661.493 589.752C661.487 589.747 661.48 589.742 661.473 589.737L661.438 589.715L661.421 589.703L661.379 589.682L661.365 589.675C661.348 589.668 661.331 589.662 661.313 589.655H661.306C661.288 589.649 661.268 589.644 661.248 589.64C661.227 589.636 661.207 589.632 661.187 589.63H645.635C645.329 589.631 645.036 589.752 644.82 589.969C644.603 590.185 644.482 590.478 644.481 590.784V603.069L642.528 601.941C642.326 601.824 642.085 601.792 641.859 601.853C641.633 601.913 641.441 602.061 641.323 602.263L635.743 611.926C635.627 612.128 635.595 612.369 635.656 612.594C635.716 612.82 635.863 613.012 636.066 613.13L640.625 615.764C641.342 616.394 641.963 617.126 642.469 617.935L640.938 620.594C640.684 621.032 640.578 621.54 640.633 622.043C640.688 622.546 640.903 623.018 641.245 623.39C641.587 623.763 642.039 624.017 642.536 624.114C643.032 624.212 643.547 624.149 644.005 623.933C644.114 624.247 644.289 624.535 644.516 624.777C644.744 625.02 645.02 625.212 645.326 625.341C645.633 625.471 645.963 625.534 646.296 625.528C646.628 625.522 646.956 625.446 647.257 625.305C647.453 625.873 647.858 626.345 648.388 626.626C648.919 626.907 649.537 626.976 650.116 626.82C650.364 626.754 650.6 626.648 650.814 626.508C651.003 626.921 651.306 627.271 651.688 627.517C652.07 627.763 652.515 627.894 652.969 627.894C653.371 627.895 653.766 627.793 654.118 627.599C654.47 627.405 654.768 627.125 654.982 626.785L657.118 628.018C657.576 628.283 658.103 628.406 658.631 628.372C659.159 628.337 659.665 628.147 660.085 627.825C660.505 627.502 660.819 627.063 660.989 626.561C661.159 626.06 661.176 625.52 661.038 625.008C661.018 624.93 660.994 624.852 660.967 624.782C661.045 624.768 661.123 624.751 661.202 624.73C661.541 624.64 661.859 624.484 662.138 624.27C662.417 624.056 662.651 623.79 662.826 623.486C663.002 623.182 663.116 622.846 663.161 622.497C663.207 622.149 663.183 621.795 663.091 621.456C663.071 621.378 663.048 621.304 663.021 621.23C663.407 621.163 663.773 621.013 664.094 620.789C664.414 620.565 664.682 620.273 664.878 619.934C665.074 619.595 665.192 619.218 665.226 618.828C665.26 618.438 665.207 618.045 665.073 617.678C665.458 617.611 665.824 617.46 666.145 617.236C666.466 617.012 666.733 616.72 666.929 616.381C666.997 616.263 667.057 616.139 667.106 616.012C667.492 615.824 667.848 615.507 668.196 615.197C668.438 614.98 668.845 614.617 669.002 614.591C669.117 614.594 669.229 614.566 669.328 614.508L673.938 611.846C674.139 611.728 674.286 611.535 674.346 611.309C674.406 611.083 674.374 610.843 674.257 610.641ZM661.741 591.851L663.468 593.726H661.741V591.851ZM645.731 590.875H660.491V594.351C660.491 594.516 660.557 594.675 660.674 594.793C660.792 594.91 660.951 594.976 661.116 594.976H664.269V602.508L663.019 603.228C660.587 603.128 656.971 603.517 654.563 604.626C654.423 604.691 654.277 604.744 654.127 604.782C654.055 604.802 653.975 604.826 653.875 604.86C653.579 604.954 653.3 605.098 653.052 605.285C653.027 605.273 653.001 605.262 652.974 605.254C651.439 604.727 649.167 604.179 646.941 604.493L645.726 603.79L645.731 590.875ZM640.761 614.398L637.011 612.231L642.22 603.207L645.97 605.373L640.761 614.398ZM644.185 621.969L643.967 622.345C643.893 622.473 643.795 622.586 643.677 622.676C643.56 622.766 643.426 622.832 643.283 622.871C643.14 622.909 642.991 622.919 642.844 622.9C642.697 622.88 642.556 622.832 642.427 622.758C642.299 622.685 642.187 622.586 642.097 622.469C642.006 622.351 641.94 622.217 641.902 622.074C641.863 621.931 641.854 621.782 641.873 621.635C641.892 621.488 641.94 621.347 642.014 621.219L644.271 617.312C644.345 617.184 644.444 617.072 644.561 616.982C644.678 616.891 644.812 616.825 644.955 616.787C645.098 616.748 645.248 616.739 645.394 616.758C645.541 616.777 645.683 616.825 645.811 616.899C645.939 616.973 646.052 617.072 646.142 617.189C646.232 617.306 646.298 617.44 646.336 617.583C646.375 617.726 646.385 617.876 646.365 618.022C646.346 618.169 646.298 618.311 646.224 618.439L644.187 621.969H644.185ZM647.438 623.339L647.22 623.717C647.07 623.975 646.824 624.163 646.536 624.24C646.247 624.317 645.94 624.278 645.681 624.13C645.423 623.98 645.234 623.734 645.157 623.445C645.08 623.157 645.12 622.849 645.269 622.591L647.307 619.062C647.456 618.803 647.703 618.614 647.991 618.536C648.28 618.459 648.588 618.499 648.847 618.648C649.106 618.798 649.295 619.044 649.372 619.333C649.45 619.621 649.41 619.929 649.26 620.188L647.442 623.337L647.438 623.339ZM650.473 625.094C650.324 625.353 650.078 625.542 649.789 625.619C649.5 625.697 649.193 625.656 648.934 625.507C648.675 625.358 648.486 625.111 648.408 624.823C648.331 624.534 648.371 624.226 648.52 623.967L650.339 620.818C650.488 620.559 650.734 620.37 651.022 620.292C651.311 620.214 651.618 620.254 651.877 620.403C652.136 620.552 652.326 620.798 652.403 621.086C652.481 621.375 652.441 621.682 652.292 621.941L650.913 624.331L650.473 625.094ZM652.406 626.5C652.149 626.35 651.961 626.104 651.884 625.816C651.807 625.528 651.846 625.221 651.994 624.962L653.373 622.573C653.447 622.444 653.546 622.332 653.663 622.242C653.781 622.152 653.915 622.085 654.058 622.047C654.201 622.009 654.35 621.999 654.497 622.018C654.643 622.037 654.785 622.085 654.913 622.159C655.042 622.233 655.154 622.332 655.244 622.449C655.334 622.567 655.4 622.701 655.439 622.844C655.477 622.987 655.487 623.136 655.468 623.283C655.449 623.429 655.401 623.571 655.327 623.699L654.214 625.626L653.948 626.087C653.798 626.346 653.551 626.534 653.261 626.61C652.972 626.686 652.665 626.644 652.406 626.494V626.5ZM659.688 626.422C659.498 626.749 659.187 626.988 658.822 627.086C658.457 627.184 658.068 627.133 657.74 626.944L655.607 625.712L656.406 624.317C656.627 623.934 656.737 623.497 656.723 623.055L659.164 624.462C659.492 624.651 659.731 624.963 659.829 625.329C659.927 625.695 659.876 626.085 659.688 626.413V626.422ZM665.841 615.765C665.651 616.092 665.34 616.331 664.975 616.428C664.61 616.526 664.221 616.475 663.893 616.287L658.711 613.295C658.64 613.252 658.561 613.223 658.478 613.21C658.396 613.198 658.311 613.202 658.231 613.222C658.15 613.243 658.074 613.279 658.007 613.33C657.941 613.38 657.885 613.443 657.843 613.515C657.801 613.588 657.774 613.668 657.764 613.75C657.754 613.833 657.76 613.917 657.783 613.998C657.805 614.078 657.844 614.153 657.896 614.218C657.948 614.283 658.013 614.337 658.086 614.377L663.268 617.359C663.587 617.552 663.819 617.863 663.912 618.224C664.005 618.586 663.953 618.97 663.766 619.293C663.58 619.616 663.274 619.854 662.914 619.954C662.555 620.055 662.17 620.01 661.843 619.83L657.863 617.533C657.792 617.492 657.714 617.465 657.632 617.454C657.551 617.444 657.468 617.449 657.389 617.47C657.31 617.492 657.235 617.528 657.17 617.578C657.105 617.628 657.05 617.691 657.009 617.762C656.968 617.833 656.942 617.911 656.931 617.993C656.92 618.074 656.926 618.157 656.947 618.236C656.968 618.315 657.005 618.39 657.055 618.455C657.105 618.52 657.167 618.574 657.238 618.616L661.213 620.91C661.54 621.099 661.779 621.411 661.877 621.776C661.974 622.141 661.923 622.531 661.734 622.858C661.545 623.186 661.233 623.425 660.868 623.522C660.503 623.62 660.113 623.569 659.786 623.38L657.115 621.837C657.001 621.772 656.869 621.745 656.739 621.759C656.608 621.773 656.485 621.828 656.388 621.916C656.124 621.47 655.721 621.123 655.242 620.927C654.762 620.732 654.231 620.7 653.731 620.835L653.63 620.864C653.623 620.83 653.615 620.796 653.605 620.762C653.525 620.461 653.387 620.179 653.197 619.932C653.008 619.685 652.772 619.477 652.502 619.321C652.233 619.165 651.935 619.064 651.626 619.023C651.318 618.982 651.004 619.003 650.703 619.083C650.669 619.093 650.636 619.102 650.602 619.113C650.595 619.079 650.587 619.045 650.577 619.011C650.497 618.709 650.358 618.427 650.168 618.179C649.979 617.931 649.742 617.724 649.472 617.568C649.202 617.412 648.904 617.311 648.594 617.27C648.285 617.23 647.971 617.251 647.67 617.332L647.57 617.361C647.466 616.894 647.223 616.469 646.874 616.142C646.525 615.815 646.085 615.601 645.613 615.529C645.14 615.456 644.656 615.527 644.225 615.734C643.793 615.94 643.434 616.272 643.195 616.686L643.168 616.731C642.76 616.153 642.298 615.616 641.788 615.126L647.216 605.719C649.013 605.484 650.871 605.889 652.234 606.324C652.177 606.452 652.13 606.584 652.094 606.719L651.234 609.94C651.213 610.018 651.193 610.089 651.174 610.158C651.045 610.62 650.932 611.018 651.034 611.674C651.127 612.278 651.345 612.857 651.675 613.371C651.88 613.673 652.21 614.074 652.714 614.08H652.723C653.256 614.08 653.561 613.649 653.805 613.302C653.833 613.263 653.861 613.224 653.89 613.184C654.408 612.452 654.89 611.694 655.332 610.914C655.773 610.158 656.23 609.376 656.52 609.307L657.231 609.137L665.322 613.808C665.649 613.998 665.887 614.31 665.984 614.675C666.081 615.04 666.03 615.429 665.841 615.756V615.765ZM667.202 614.411C667.117 614.061 666.961 613.732 666.745 613.444C666.528 613.156 666.256 612.914 665.944 612.734L657.638 607.93C657.499 607.85 657.335 607.826 657.18 607.863L656.226 608.091C655.417 608.283 654.927 609.123 654.249 610.283C653.828 611.028 653.369 611.752 652.873 612.451C652.842 612.494 652.812 612.537 652.782 612.58L652.713 612.678L652.706 612.669C652.48 612.307 652.331 611.903 652.266 611.481C652.206 611.094 652.266 610.894 652.374 610.495C652.395 610.422 652.416 610.345 652.438 610.261L653.298 607.041C653.352 606.838 653.451 606.649 653.588 606.488C653.6 606.476 653.611 606.462 653.623 606.449C653.792 606.264 654.008 606.126 654.248 606.051C654.334 606.023 654.404 606.003 654.467 605.985C654.678 605.928 654.884 605.853 655.081 605.76C657.384 604.703 660.825 604.416 662.805 604.469L668.108 613.652C667.844 613.838 667.593 614.041 667.358 614.262C667.308 614.312 667.255 614.355 667.202 614.402V614.411ZM669.241 613.114L664.029 604.09L667.779 601.923L672.989 610.948L669.241 613.114ZM651.362 601.239C651.527 601.239 651.686 601.173 651.804 601.056C651.921 600.939 651.987 600.78 651.987 600.614V596.426C651.987 596.261 651.921 596.102 651.804 595.985C651.686 595.867 651.527 595.801 651.362 595.801H647.171C647.005 595.801 646.846 595.867 646.729 595.985C646.612 596.102 646.546 596.261 646.546 596.426V600.616C646.546 600.781 646.612 600.94 646.729 601.057C646.846 601.175 647.005 601.241 647.171 601.241L651.362 601.239ZM647.798 597.05H650.737V599.989H647.796L647.798 597.05ZM650.461 598.385L649.509 599.476C649.453 599.541 649.384 599.593 649.307 599.63C649.229 599.667 649.145 599.687 649.059 599.69H649.038C648.956 599.69 648.874 599.674 648.798 599.643C648.722 599.612 648.652 599.566 648.594 599.508L648.099 599.013C648.041 598.955 647.995 598.886 647.964 598.81C647.932 598.734 647.916 598.653 647.916 598.571C647.916 598.489 647.932 598.407 647.964 598.331C647.995 598.255 648.041 598.186 648.1 598.128C648.158 598.07 648.227 598.024 648.303 597.993C648.379 597.961 648.46 597.945 648.542 597.945C648.624 597.945 648.706 597.962 648.781 597.993C648.857 598.025 648.926 598.071 648.984 598.129L649.006 598.151L649.516 597.566C649.57 597.502 649.635 597.449 649.709 597.411C649.783 597.373 649.864 597.35 649.947 597.344C650.029 597.337 650.113 597.347 650.192 597.374C650.271 597.4 650.343 597.441 650.406 597.496C650.469 597.55 650.52 597.617 650.556 597.691C650.593 597.766 650.614 597.847 650.619 597.93C650.624 598.013 650.613 598.096 650.585 598.175C650.557 598.253 650.514 598.325 650.459 598.387L650.461 598.385ZM653.807 600.86C653.807 600.694 653.873 600.535 653.99 600.418C654.107 600.301 654.266 600.235 654.432 600.235H662.83C662.996 600.235 663.155 600.301 663.272 600.418C663.39 600.535 663.455 600.694 663.455 600.86C663.455 601.026 663.39 601.185 663.272 601.302C663.155 601.419 662.996 601.485 662.83 601.485H654.43C654.265 601.485 654.106 601.419 653.989 601.303C653.872 601.186 653.806 601.027 653.805 600.862L653.807 600.86ZM653.807 596.425C653.807 596.259 653.873 596.1 653.99 595.983C654.107 595.866 654.266 595.8 654.432 595.8H658.332C658.498 595.8 658.657 595.866 658.774 595.983C658.891 596.1 658.957 596.259 658.957 596.425C658.957 596.591 658.891 596.75 658.774 596.867C658.657 596.984 658.498 597.05 658.332 597.05H654.43C654.265 597.05 654.106 596.984 653.989 596.867C653.872 596.751 653.806 596.592 653.805 596.426L653.807 596.425ZM653.807 598.642C653.807 598.476 653.873 598.317 653.99 598.2C654.107 598.083 654.266 598.017 654.432 598.017H659.979C660.145 598.017 660.304 598.083 660.421 598.2C660.538 598.317 660.604 598.476 660.604 598.642C660.604 598.808 660.538 598.967 660.421 599.084C660.304 599.201 660.145 599.267 659.979 599.267H654.432C654.35 599.267 654.269 599.251 654.193 599.22C654.117 599.189 654.048 599.143 653.99 599.085C653.931 599.027 653.885 598.958 653.854 598.883C653.822 598.807 653.806 598.726 653.805 598.644L653.807 598.642Z" fill="black"/>
</g>
<defs>
<filter id="filter0_f_206_116" x="0" y="0" width="1406" height="1318.17" filterUnits="userSpaceOnUse" color-interpolation-filters="sRGB">
<feFlood flood-opacity="0" result="BackgroundImageFix"/>
<feBlend mode="normal" in="SourceGraphic" in2="BackgroundImageFix" result="shape"/>
<feGaussianBlur stdDeviation="270" result="effect1_foregroundBlur_206_116"/>
</filter>
<filter id="filter1_d_206_116" x="580" y="538" width="150" height="150" filterUnits="userSpaceOnUse" color-interpolation-filters="sRGB">
<feFlood flood-opacity="0" result="BackgroundImageFix"/>
<feColorMatrix in="SourceAlpha" type="matrix" values="0 0 0 0 0 0 0 0 0 0 0 0 0 0 0 0 0 0 127 0" result="hardAlpha"/>
<feOffset dy="4"/>
<feGaussianBlur stdDeviation="12.5"/>
<feComposite in2="hardAlpha" operator="out"/>
<feColorMatrix type="matrix" values="0 0 0 0 0 0 0 0 0 0 0 0 0 0 0 0 0 0 0.08 0"/>
<feBlend mode="normal" in2="BackgroundImageFix" result="effect1_dropShadow_206_116"/>
<feBlend mode="normal" in="SourceGraphic" in2="effect1_dropShadow_206_116" result="shape"/>
</filter>
<clipPath id="clip0_206_116">
<rect width="40" height="40" fill="white" transform="translate(635 589)"/>
</clipPath>
</defs>
</svg>
