<svg width="979" height="1319" viewBox="0 0 979 1319" fill="none" xmlns="http://www.w3.org/2000/svg">
<line x1="326.239" y1="721.561" x2="526.239" y2="830.561" stroke="#219BE4" stroke-dasharray="2 2"/>
<g filter="url(#filter0_f_206_117)">
<ellipse cx="276" cy="659.085" rx="163" ry="119.085" fill="#09FFC5" fill-opacity="0.7"/>
</g>
<path d="M149.859 852V840.8H151.379V852H149.859ZM154.223 847.744V852H152.703V847.872C152.703 845.456 154.319 843.84 156.815 843.84C159.231 843.84 160.847 845.456 160.847 847.872V852H159.311V847.744C159.311 846.256 158.287 845.264 156.751 845.264C155.263 845.264 154.223 846.272 154.223 847.744ZM166.078 848.096C166.078 845.504 167.742 843.84 170.286 843.84C172.814 843.84 174.494 845.504 174.494 848V852H172.974V850.416L172.814 850.432V850.576C172.814 851.216 171.854 852.16 169.966 852.16C167.662 852.16 166.078 850.544 166.078 848.096ZM167.598 848C167.598 849.68 168.59 850.736 170.238 850.736C172.222 850.736 172.958 849.616 172.958 848C172.958 846.32 171.934 845.264 170.286 845.264C168.67 845.264 167.598 846.368 167.598 848ZM186.15 840V841.424H184.822C183.206 841.424 182.358 842.256 182.358 843.84V844H185.27V845.312H182.358V852H180.838V845.312H179.654V844H180.838C180.87 841.488 182.262 840 184.822 840H186.15ZM187.504 847.888V852H185.984V848.08C185.984 845.488 187.632 843.872 190.176 843.872V845.344C188.576 845.344 187.504 846.32 187.504 847.888ZM199.037 848.176H192.301C192.333 849.696 193.389 850.768 195.021 850.768C196.317 850.768 197.197 850.064 197.485 848.976H199.037C198.685 850.976 197.197 852.16 194.989 852.16C192.461 852.16 190.781 850.496 190.781 848C190.781 845.504 192.461 843.84 194.989 843.84C197.405 843.84 199.053 845.312 199.037 847.728V848.176ZM192.413 847.008H197.453C197.213 845.84 196.317 845.136 195.005 845.136C193.693 845.136 192.733 845.92 192.413 847.008ZM208.553 848.176H201.817C201.849 849.696 202.905 850.768 204.537 850.768C205.833 850.768 206.713 850.064 207.001 848.976H208.553C208.201 850.976 206.713 852.16 204.505 852.16C201.977 852.16 200.297 850.496 200.297 848C200.297 845.504 201.977 843.84 204.505 843.84C206.921 843.84 208.569 845.312 208.553 847.728V848.176ZM201.929 847.008H206.969C206.729 845.84 205.833 845.136 204.521 845.136C203.209 845.136 202.249 845.92 201.929 847.008ZM215.301 847.872V852H213.781V840H215.301V845.696H215.461C215.461 844.832 216.389 843.84 218.197 843.84C220.453 843.84 221.765 845.296 221.765 847.536V852H220.229V847.584C220.229 846.112 219.397 845.264 217.941 845.264C216.213 845.264 215.301 846.384 215.301 847.872ZM223.094 848C223.094 845.504 224.774 843.84 227.302 843.84C229.83 843.84 231.51 845.504 231.51 848C231.51 850.496 229.83 852.16 227.302 852.16C224.774 852.16 223.094 850.496 223.094 848ZM224.614 848C224.614 849.632 225.686 850.736 227.302 850.736C228.918 850.736 229.99 849.632 229.99 848C229.99 846.368 228.918 845.264 227.302 845.264C225.686 845.264 224.614 846.368 224.614 848ZM234.348 848.256C234.348 849.728 235.388 850.736 236.876 850.736C238.412 850.736 239.436 849.744 239.436 848.256V844H240.972V848.128C240.972 850.544 239.356 852.16 236.94 852.16C234.444 852.16 232.828 850.544 232.828 848.128V844H234.348V848.256ZM243.817 847.888V852H242.297V848.08C242.297 845.488 243.945 843.872 246.489 843.872V845.344C244.889 845.344 243.817 846.32 243.817 847.888ZM246.842 851.216C246.842 850.64 247.242 850.272 247.866 850.272C248.474 850.272 248.89 850.64 248.89 851.216C248.89 852.256 248.058 853.232 247.146 853.664L246.826 853.2C247.162 852.96 247.418 852.496 247.434 852.096C247.066 851.968 246.842 851.648 246.842 851.216ZM257.709 852.16C255.501 852.16 254.109 850.832 254.109 848.128V844H255.629V848.256C255.629 850.016 256.589 850.736 257.725 850.736C259.245 850.736 259.997 849.664 259.997 848.256V844H261.533V848.256C261.533 849.664 262.285 850.736 263.805 850.736C264.957 850.736 265.901 850.016 265.901 848.256V844H267.437V848.128C267.437 850.832 266.029 852.16 263.837 852.16C261.981 852.16 260.845 850.976 260.845 849.648H260.685C260.685 850.976 259.549 852.16 257.709 852.16ZM270.27 847.872V852H268.75V840H270.27V845.696H270.43C270.43 844.832 271.358 843.84 273.166 843.84C275.422 843.84 276.734 845.296 276.734 847.536V852H275.198V847.584C275.198 846.112 274.366 845.264 272.91 845.264C271.182 845.264 270.27 846.384 270.27 847.872ZM286.318 848.176H279.582C279.614 849.696 280.67 850.768 282.302 850.768C283.598 850.768 284.478 850.064 284.766 848.976H286.318C285.966 850.976 284.478 852.16 282.27 852.16C279.742 852.16 278.062 850.496 278.062 848C278.062 845.504 279.742 843.84 282.27 843.84C284.686 843.84 286.334 845.312 286.318 847.728V848.176ZM279.694 847.008H284.734C284.494 845.84 283.598 845.136 282.286 845.136C280.974 845.136 280.014 845.92 279.694 847.008ZM289.16 847.744V852H287.64V847.872C287.64 845.456 289.256 843.84 291.752 843.84C294.168 843.84 295.784 845.456 295.784 847.872V852H294.248V847.744C294.248 846.256 293.224 845.264 291.688 845.264C290.2 845.264 289.16 846.272 289.16 847.744ZM301.015 848C301.015 845.504 302.695 843.84 305.223 843.84C307.751 843.84 309.431 845.504 309.431 848C309.431 850.496 307.751 852.16 305.223 852.16C302.695 852.16 301.015 850.496 301.015 848ZM302.535 848C302.535 849.632 303.607 850.736 305.223 850.736C306.839 850.736 307.911 849.632 307.911 848C307.911 846.368 306.839 845.264 305.223 845.264C303.607 845.264 302.535 846.368 302.535 848ZM312.27 848.256C312.27 849.728 313.31 850.736 314.798 850.736C316.334 850.736 317.358 849.744 317.358 848.256V844H318.894V848.128C318.894 850.544 317.278 852.16 314.862 852.16C312.366 852.16 310.75 850.544 310.75 848.128V844H312.27V848.256ZM321.739 847.888V852H320.219V848.08C320.219 845.488 321.867 843.872 324.411 843.872V845.344C322.811 845.344 321.739 846.32 321.739 847.888ZM337.978 848.096C337.978 850.544 336.394 852.16 334.09 852.16C332.202 852.16 331.242 851.216 331.242 850.576V850.432L331.082 850.416V856H329.562V848C329.562 845.504 331.242 843.84 333.77 843.84C336.314 843.84 337.978 845.504 337.978 848.096ZM336.458 848C336.458 846.368 335.37 845.264 333.77 845.264C332.122 845.264 331.082 846.32 331.082 848C331.082 849.616 331.834 850.736 333.818 850.736C335.466 850.736 336.458 849.68 336.458 848ZM339.25 848C339.25 845.504 340.93 843.84 343.458 843.84C345.986 843.84 347.666 845.504 347.666 848C347.666 850.496 345.986 852.16 343.458 852.16C340.93 852.16 339.25 850.496 339.25 848ZM340.77 848C340.77 849.632 341.842 850.736 343.458 850.736C345.074 850.736 346.146 849.632 346.146 848C346.146 846.368 345.074 845.264 343.458 845.264C341.842 845.264 340.77 846.368 340.77 848ZM352.584 852.16C350.376 852.16 348.984 850.832 348.984 848.128V844H350.504V848.256C350.504 850.016 351.464 850.736 352.6 850.736C354.12 850.736 354.872 849.664 354.872 848.256V844H356.408V848.256C356.408 849.664 357.16 850.736 358.68 850.736C359.832 850.736 360.776 850.016 360.776 848.256V844H362.312V848.128C362.312 850.832 360.904 852.16 358.712 852.16C356.856 852.16 355.72 850.976 355.72 849.648H355.56C355.56 850.976 354.424 852.16 352.584 852.16ZM371.881 848.176H365.145C365.177 849.696 366.233 850.768 367.865 850.768C369.161 850.768 370.041 850.064 370.329 848.976H371.881C371.529 850.976 370.041 852.16 367.833 852.16C365.305 852.16 363.625 850.496 363.625 848C363.625 845.504 365.305 843.84 367.833 843.84C370.249 843.84 371.897 845.312 371.881 847.728V848.176ZM365.257 847.008H370.297C370.057 845.84 369.161 845.136 367.849 845.136C366.537 845.136 365.577 845.92 365.257 847.008ZM374.723 847.888V852H373.203V848.08C373.203 845.488 374.851 843.872 377.395 843.872V845.344C375.795 845.344 374.723 846.32 374.723 847.888ZM382.547 848C382.547 845.504 384.227 843.84 386.755 843.84C389.283 843.84 390.963 845.504 390.963 848C390.963 850.496 389.283 852.16 386.755 852.16C384.227 852.16 382.547 850.496 382.547 848ZM384.067 848C384.067 849.632 385.139 850.736 386.755 850.736C388.371 850.736 389.443 849.632 389.443 848C389.443 846.368 388.371 845.264 386.755 845.264C385.139 845.264 384.067 846.368 384.067 848ZM398.244 840V841.424H396.916C395.3 841.424 394.452 842.256 394.452 843.84V844H397.364V845.312H394.452V852H392.932V845.312H391.748V844H392.932C392.964 841.488 394.356 840 396.916 840H398.244ZM174.637 876C174.637 877.632 175.709 878.736 177.325 878.736C178.653 878.736 179.517 878 179.821 876.88H181.373C181.021 878.88 179.533 880.16 177.325 880.16C174.797 880.16 173.117 878.496 173.117 876C173.117 873.504 174.797 871.84 177.325 871.84C179.533 871.84 181.021 873.12 181.373 875.12H179.821C179.517 874 178.653 873.264 177.325 873.264C175.709 873.264 174.637 874.368 174.637 876ZM184.215 875.872V880H182.695V868H184.215V873.696H184.375C184.375 872.832 185.303 871.84 187.111 871.84C189.367 871.84 190.679 873.296 190.679 875.536V880H189.143V875.584C189.143 874.112 188.311 873.264 186.855 873.264C185.127 873.264 184.215 874.384 184.215 875.872ZM192.008 876C192.008 873.504 193.688 871.84 196.216 871.84C198.744 871.84 200.424 873.504 200.424 876C200.424 878.496 198.744 880.16 196.216 880.16C193.688 880.16 192.008 878.496 192.008 876ZM193.528 876C193.528 877.632 194.6 878.736 196.216 878.736C197.832 878.736 198.904 877.632 198.904 876C198.904 874.368 197.832 873.264 196.216 873.264C194.6 873.264 193.528 874.368 193.528 876ZM201.742 869.52C201.742 868.992 202.11 868.64 202.654 868.64C203.214 868.64 203.582 868.992 203.582 869.52C203.582 870.048 203.214 870.4 202.654 870.4C202.11 870.4 201.742 870.048 201.742 869.52ZM201.902 880V872H203.422V880H201.902ZM206.418 876C206.418 877.632 207.49 878.736 209.106 878.736C210.434 878.736 211.298 878 211.602 876.88H213.154C212.802 878.88 211.314 880.16 209.106 880.16C206.578 880.16 204.898 878.496 204.898 876C204.898 873.504 206.578 871.84 209.106 871.84C211.314 871.84 212.802 873.12 213.154 875.12H211.602C211.298 874 210.434 873.264 209.106 873.264C207.49 873.264 206.418 874.368 206.418 876ZM222.67 876.176H215.934C215.966 877.696 217.022 878.768 218.654 878.768C219.95 878.768 220.83 878.064 221.118 876.976H222.67C222.318 878.976 220.83 880.16 218.622 880.16C216.094 880.16 214.414 878.496 214.414 876C214.414 873.504 216.094 871.84 218.622 871.84C221.038 871.84 222.686 873.312 222.67 875.728V876.176ZM216.046 875.008H221.086C220.846 873.84 219.95 873.136 218.638 873.136C217.326 873.136 216.366 873.92 216.046 875.008ZM227.898 869.52C227.898 868.992 228.266 868.64 228.81 868.64C229.37 868.64 229.738 868.992 229.738 869.52C229.738 870.048 229.37 870.4 228.81 870.4C228.266 870.4 227.898 870.048 227.898 869.52ZM228.058 880V872H229.578V880H228.058ZM231.022 874.176C231.022 872.592 232.27 871.824 234.654 871.824C235.838 871.824 236.782 871.952 237.646 872.272V873.696C237.086 873.488 235.902 873.136 234.494 873.136C233.182 873.136 232.542 873.456 232.542 874.064C232.542 875.68 237.982 874.784 237.982 877.664C237.982 879.232 236.75 880.176 234.35 880.176C233.166 880.176 232.222 880.048 231.358 879.728V878.304C231.918 878.512 233.118 878.864 234.51 878.864C235.822 878.864 236.446 878.384 236.446 877.776C236.446 876.176 231.022 877.056 231.022 874.176ZM244.668 876.256C244.668 877.728 245.708 878.736 247.196 878.736C248.732 878.736 249.756 877.744 249.756 876.256V872H251.292V876.128C251.292 878.544 249.676 880.16 247.26 880.16C244.764 880.16 243.148 878.544 243.148 876.128V872H244.668V876.256ZM254.137 875.744V880H252.617V875.872C252.617 873.456 254.233 871.84 256.729 871.84C259.145 871.84 260.761 873.456 260.761 875.872V880H259.225V875.744C259.225 874.256 258.201 873.264 256.665 873.264C255.177 873.264 254.137 874.272 254.137 875.744ZM266.566 880C263.334 880 262.054 878.64 262.054 875.6V870.336H263.574V872.096H266.566V873.456H263.574V875.824C263.574 877.792 264.31 878.544 266.566 878.544V880ZM269.324 875.888V880H267.804V876.08C267.804 873.488 269.452 871.872 271.996 871.872V873.344C270.396 873.344 269.324 874.32 269.324 875.888ZM272.601 876.096C272.601 873.504 274.265 871.84 276.809 871.84C279.337 871.84 281.017 873.504 281.017 876V880H279.497V878.416L279.337 878.432V878.576C279.337 879.216 278.377 880.16 276.489 880.16C274.185 880.16 272.601 878.544 272.601 876.096ZM274.121 876C274.121 877.68 275.113 878.736 276.761 878.736C278.745 878.736 279.481 877.616 279.481 876C279.481 874.32 278.457 873.264 276.809 873.264C275.193 873.264 274.121 874.368 274.121 876ZM292.079 871.84C294.271 871.84 295.679 873.168 295.679 875.872V880H294.143V875.744C294.143 873.984 293.199 873.264 292.047 873.264C290.527 873.264 289.775 874.32 289.775 875.744V880H288.239V875.744C288.239 874.32 287.487 873.264 285.967 873.264C284.831 873.264 283.871 873.984 283.871 875.744V880H282.351V875.872C282.351 873.168 283.743 871.84 285.951 871.84C287.791 871.84 288.943 873.024 288.927 874.352H289.087C289.087 873.024 290.223 871.84 292.079 871.84ZM306.72 871.84C308.912 871.84 310.32 873.168 310.32 875.872V880H308.784V875.744C308.784 873.984 307.84 873.264 306.688 873.264C305.168 873.264 304.416 874.32 304.416 875.744V880H302.88V875.744C302.88 874.32 302.128 873.264 300.608 873.264C299.472 873.264 298.512 873.984 298.512 875.744V880H296.992V875.872C296.992 873.168 298.384 871.84 300.592 871.84C302.432 871.84 303.584 873.024 303.568 874.352H303.728C303.728 873.024 304.864 871.84 306.72 871.84ZM319.889 876.176H313.153C313.185 877.696 314.241 878.768 315.873 878.768C317.169 878.768 318.049 878.064 318.337 876.976H319.889C319.537 878.976 318.049 880.16 315.841 880.16C313.313 880.16 311.633 878.496 311.633 876C311.633 873.504 313.313 871.84 315.841 871.84C318.257 871.84 319.905 873.312 319.889 875.728V876.176ZM313.265 875.008H318.305C318.065 873.84 317.169 873.136 315.857 873.136C314.545 873.136 313.585 873.92 313.265 875.008ZM321.211 880V868H322.731V880H321.211ZM332.31 876.176H325.574C325.606 877.696 326.662 878.768 328.294 878.768C329.59 878.768 330.47 878.064 330.758 876.976H332.31C331.958 878.976 330.47 880.16 328.262 880.16C325.734 880.16 324.054 878.496 324.054 876C324.054 873.504 325.734 871.84 328.262 871.84C330.678 871.84 332.326 873.312 332.31 875.728V876.176ZM325.686 875.008H330.726C330.486 873.84 329.59 873.136 328.278 873.136C326.966 873.136 326.006 873.92 325.686 875.008ZM333.57 875.888C333.57 873.456 335.154 871.84 337.458 871.84C339.346 871.84 340.306 872.768 340.306 873.424V873.568H340.466V868H341.986V876C341.986 878.496 340.306 880.16 337.778 880.16C335.234 880.16 333.57 878.496 333.57 875.888ZM335.09 876C335.09 877.632 336.162 878.736 337.778 878.736C339.426 878.736 340.45 877.68 340.45 876C340.45 874.368 339.714 873.264 337.73 873.264C336.082 873.264 335.09 874.304 335.09 876ZM347.226 876.096C347.226 873.504 348.89 871.84 351.434 871.84C353.962 871.84 355.642 873.504 355.642 876V880H354.122V878.416L353.962 878.432V878.576C353.962 879.216 353.002 880.16 351.114 880.16C348.81 880.16 347.226 878.544 347.226 876.096ZM348.746 876C348.746 877.68 349.738 878.736 351.386 878.736C353.37 878.736 354.106 877.616 354.106 876C354.106 874.32 353.082 873.264 351.434 873.264C349.818 873.264 348.746 874.368 348.746 876ZM358.496 875.744V880H356.976V875.872C356.976 873.456 358.592 871.84 361.088 871.84C363.504 871.84 365.12 873.456 365.12 875.872V880H363.584V875.744C363.584 874.256 362.56 873.264 361.024 873.264C359.536 873.264 358.496 874.272 358.496 875.744ZM366.445 875.888C366.445 873.456 368.029 871.84 370.333 871.84C372.221 871.84 373.181 872.768 373.181 873.424V873.568H373.341V868H374.861V876C374.861 878.496 373.181 880.16 370.653 880.16C368.109 880.16 366.445 878.496 366.445 875.888ZM367.965 876C367.965 877.632 369.037 878.736 370.653 878.736C372.301 878.736 373.325 877.68 373.325 876C373.325 874.368 372.589 873.264 370.605 873.264C368.957 873.264 367.965 874.304 367.965 876Z" fill="white"/>
<path d="M196.158 809C196.158 811.4 197.718 813 200.038 813C201.578 813 202.578 812.3 203.218 811.12H206.858C206.318 814.14 203.638 816.2 200.038 816.2C195.678 816.2 192.758 813.32 192.758 809C192.758 804.68 195.678 801.8 200.038 801.8C203.638 801.8 206.318 803.86 206.858 806.88H203.218C202.578 805.7 201.578 805 200.038 805C197.718 805 196.158 806.6 196.158 809ZM211.392 810.76V816H207.992V801H211.392V808.12H211.592C211.592 807.36 212.272 805.8 214.472 805.8C217.252 805.8 218.572 807.76 218.572 810.66V816H215.172V810.76C215.172 809.68 214.472 809 213.292 809C212.112 809 211.392 809.68 211.392 810.76ZM219.71 811C219.71 807.88 221.81 805.8 224.97 805.8C228.13 805.8 230.23 807.88 230.23 811C230.23 814.12 228.13 816.2 224.97 816.2C221.81 816.2 219.71 814.12 219.71 811ZM223.11 811C223.11 812.18 223.85 813 224.97 813C226.09 813 226.83 812.18 226.83 811C226.83 809.82 226.09 809 224.97 809C223.85 809 223.11 809.82 223.11 811ZM231.351 811C231.351 807.88 233.451 805.8 236.611 805.8C239.771 805.8 241.871 807.88 241.871 811C241.871 814.12 239.771 816.2 236.611 816.2C233.451 816.2 231.351 814.12 231.351 811ZM234.751 811C234.751 812.18 235.491 813 236.611 813C237.731 813 238.471 812.18 238.471 811C238.471 809.82 237.731 809 236.611 809C235.491 809 234.751 809.82 234.751 811ZM242.893 809.06C242.893 806.8 244.653 805.78 247.433 805.78C248.913 805.78 250.093 805.94 251.173 806.34V809.24C250.473 809 248.993 808.5 247.253 808.5C246.553 808.5 246.313 808.66 246.313 808.92C246.313 810.08 251.593 809.32 251.593 812.92C251.593 815.2 249.833 816.22 247.053 816.22C245.573 816.22 244.393 816.06 243.313 815.64V812.74C244.013 813 245.493 813.5 247.233 813.5C247.933 813.5 248.193 813.32 248.193 813.08C248.193 811.92 242.893 812.66 242.893 809.06ZM262.921 811.68H256.001C256.101 812.46 256.781 813.14 258.001 813.14C258.761 813.14 259.221 812.9 259.421 812.56H262.921C262.481 815.06 260.621 816.2 257.861 816.2C254.701 816.2 252.601 814.12 252.601 811C252.601 807.88 254.701 805.8 257.861 805.8C260.621 805.8 262.921 807.56 262.921 810.94V811.68ZM256.101 809.74H259.361C259.361 809.04 258.781 808.4 257.941 808.4C256.981 808.4 256.341 809.14 256.101 809.74ZM279.684 802V816H276.284V812.8H271.704V816H268.304V811C268.304 805.14 271.524 802 277.504 802H279.684ZM271.784 809.7H276.284V805.2H276.044C273.744 805.2 272.124 806.94 271.784 809.7ZM285.022 806.34C285.022 803.2 287.522 801.8 290.782 801.8C293.042 801.8 294.322 802.02 295.802 802.58V805.98C294.822 805.64 293.602 805.06 290.862 805.06C289.042 805.06 288.422 805.58 288.422 806.14C288.422 808.54 296.402 805.88 296.402 811.66C296.402 814.8 293.902 816.22 290.642 816.22C288.402 816.22 287.122 816 285.622 815.44V812.02C286.602 812.38 287.822 812.96 290.562 812.96C292.382 812.96 293.022 812.42 293.022 811.9C293.022 809.48 285.022 812.12 285.022 806.34ZM307.804 811.68H300.884C300.984 812.46 301.664 813.14 302.884 813.14C303.644 813.14 304.104 812.9 304.304 812.56H307.804C307.364 815.06 305.504 816.2 302.744 816.2C299.584 816.2 297.484 814.12 297.484 811C297.484 807.88 299.584 805.8 302.744 805.8C305.504 805.8 307.804 807.56 307.804 810.94V811.68ZM300.984 809.74H304.244C304.244 809.04 303.664 808.4 302.824 808.4C301.864 808.4 301.224 809.14 300.984 809.74ZM312.329 811.4V816H308.929V811.86C308.929 807.96 311.109 806 314.469 806V809.4C313.209 809.4 312.329 810.08 312.329 811.4ZM315.511 816V806H318.911V812.8C319.831 812.8 321.091 811.62 321.091 808.56V806H324.491V808.38C324.491 813.74 321.411 816 317.691 816H315.511ZM325.531 803.48C325.531 802.46 326.291 801.78 327.431 801.78C328.571 801.78 329.331 802.46 329.331 803.48C329.331 804.5 328.571 805.18 327.431 805.18C326.291 805.18 325.531 804.5 325.531 803.48ZM325.731 816V806H329.131V816H325.731ZM333.853 811C333.853 812.18 334.593 813 335.713 813C336.553 813 336.953 812.64 337.213 812.1H340.773C340.333 814.6 338.473 816.2 335.713 816.2C332.553 816.2 330.453 814.12 330.453 811C330.453 807.88 332.553 805.8 335.713 805.8C338.473 805.8 340.333 807.4 340.773 809.9H337.213C336.953 809.36 336.553 809 335.713 809C334.593 809 333.853 809.82 333.853 811ZM352.237 811.68H345.317C345.417 812.46 346.097 813.14 347.317 813.14C348.077 813.14 348.537 812.9 348.737 812.56H352.237C351.797 815.06 349.937 816.2 347.177 816.2C344.017 816.2 341.917 814.12 341.917 811C341.917 807.88 344.017 805.8 347.177 805.8C349.937 805.8 352.237 807.56 352.237 810.94V811.68ZM345.417 809.74H348.677C348.677 809.04 348.097 808.4 347.257 808.4C346.297 808.4 345.657 809.14 345.417 809.74Z" fill="white"/>
<path d="M200.062 727V605.251L167 618.426V586.626L213.743 568H237V727H200.062Z" fill="white" fill-opacity="0.2"/>
<g filter="url(#filter1_d_206_117)">
<circle cx="276" cy="722" r="50" fill="#02FFC3"/>
</g>
<g clip-path="url(#clip0_206_117)">
<path d="M292.25 732.625H277.813C277.743 732.346 277.611 732.087 277.426 731.867L273.974 727.844C273.916 727.775 273.843 727.72 273.761 727.682C273.679 727.645 273.59 727.625 273.5 727.625H266.625V727C266.625 726.834 266.559 726.675 266.442 726.558C266.325 726.441 266.166 726.375 266 726.375H257.25C257.084 726.375 256.925 726.441 256.808 726.558C256.691 726.675 256.625 726.834 256.625 727V740.75C256.625 740.916 256.691 741.075 256.808 741.192C256.925 741.309 257.084 741.375 257.25 741.375H262.25C262.416 741.375 262.575 741.309 262.692 741.192C262.809 741.075 262.875 740.916 262.875 740.75V740.125H266C266.166 740.125 266.325 740.059 266.442 739.942C266.559 739.825 266.625 739.666 266.625 739.5V738.875H270.813L274.405 741.27C274.507 741.338 274.627 741.375 274.75 741.375C274.795 741.375 274.84 741.37 274.884 741.361L294.884 736.986C295.023 736.955 295.148 736.878 295.237 736.767C295.326 736.656 295.375 736.518 295.375 736.375V735.75C295.374 734.922 295.044 734.127 294.459 733.541C293.873 732.956 293.078 732.626 292.25 732.625ZM261.625 740.125H257.875V727.625H261.625V740.125ZM265.375 738.875H262.875V727.625H265.375V738.875ZM294.125 735.875L274.875 740.083L271.346 737.73C271.244 737.662 271.123 737.625 271 737.625H266.625V728.875H273.213L276.474 732.681C276.572 732.794 276.625 732.938 276.625 733.088V733.875C276.625 734.041 276.559 734.2 276.442 734.317C276.325 734.434 276.166 734.5 276 734.5H275.268C275.186 734.5 275.105 734.484 275.029 734.452C274.953 734.421 274.884 734.375 274.826 734.317L272.067 731.558L271.183 732.442L273.942 735.201C274.116 735.375 274.322 735.514 274.55 735.608C274.778 735.703 275.022 735.751 275.268 735.75H276C276.497 735.75 276.974 735.552 277.326 735.201C277.677 734.849 277.875 734.372 277.875 733.875H292.25C292.747 733.875 293.224 734.073 293.576 734.424C293.927 734.776 294.125 735.253 294.125 735.75V735.875ZM294.75 721.375H293.5V707.625C293.5 707.128 293.302 706.651 292.951 706.299C292.599 705.948 292.122 705.75 291.625 705.75H287.216C287.207 705.735 287.197 705.72 287.187 705.706L285.419 703.937C285.302 703.82 285.143 703.755 284.977 703.755C284.812 703.755 284.653 703.82 284.536 703.937L283.887 704.586C283.563 704.417 283.224 704.276 282.875 704.166V703.25C282.875 703.084 282.809 702.925 282.692 702.808C282.575 702.691 282.416 702.625 282.25 702.625H279.75C279.584 702.625 279.425 702.691 279.308 702.808C279.191 702.925 279.125 703.084 279.125 703.25V704.166C278.776 704.276 278.437 704.417 278.113 704.586L277.464 703.937C277.347 703.82 277.188 703.755 277.023 703.755C276.857 703.755 276.698 703.82 276.581 703.937L274.813 705.706C274.802 705.72 274.793 705.735 274.784 705.75H270.375C269.878 705.75 269.401 705.948 269.049 706.299C268.698 706.651 268.5 707.128 268.5 707.625V711.375H257.25C257.084 711.375 256.925 711.441 256.808 711.558C256.691 711.675 256.625 711.834 256.625 712V719.5C256.625 719.666 256.691 719.825 256.808 719.942C256.925 720.059 257.084 720.125 257.25 720.125H268.5V721.375H267.25C267.084 721.375 266.925 721.441 266.808 721.558C266.691 721.675 266.625 721.834 266.625 722V724.5C266.625 724.997 266.823 725.474 267.174 725.826C267.526 726.177 268.003 726.375 268.5 726.375H293.5C293.997 726.375 294.474 726.177 294.826 725.826C295.177 725.474 295.375 724.997 295.375 724.5V722C295.375 721.834 295.309 721.675 295.192 721.558C295.075 721.441 294.916 721.375 294.75 721.375ZM292.25 707.625V721.375H291V708.875C291 708.709 290.934 708.55 290.817 708.433C290.7 708.316 290.541 708.25 290.375 708.25H286.959C286.849 707.901 286.708 707.562 286.539 707.238L286.777 707H291.625C291.791 707 291.95 707.066 292.067 707.183C292.184 707.3 292.25 707.459 292.25 707.625ZM272.875 719.5V712C272.875 711.834 272.809 711.675 272.692 711.558C272.575 711.441 272.416 711.375 272.25 711.375V709.5H273.5V711.375C273.5 711.541 273.566 711.7 273.683 711.817C273.8 711.934 273.959 712 274.125 712H275.041C275.151 712.349 275.292 712.688 275.461 713.012L274.813 713.661C274.695 713.778 274.63 713.937 274.63 714.103C274.63 714.268 274.695 714.427 274.813 714.544L276.581 716.312C276.698 716.43 276.857 716.495 277.023 716.495C277.188 716.495 277.347 716.43 277.464 716.312L278.113 715.664C278.437 715.833 278.776 715.974 279.125 716.084V717C279.125 717.166 279.191 717.325 279.308 717.442C279.425 717.559 279.584 717.625 279.75 717.625H282.25C282.416 717.625 282.575 717.559 282.692 717.442C282.809 717.325 282.875 717.166 282.875 717V716.084C283.224 715.974 283.563 715.833 283.887 715.663L284.536 716.312C284.653 716.43 284.812 716.495 284.977 716.495C285.143 716.495 285.302 716.43 285.419 716.312L287.188 714.544C287.305 714.427 287.37 714.268 287.37 714.103C287.37 713.937 287.305 713.778 287.188 713.661L286.539 713.012C286.709 712.688 286.849 712.349 286.959 712H287.875C288.041 712 288.2 711.934 288.317 711.817C288.434 711.7 288.5 711.541 288.5 711.375V709.5H289.75V721.375H272.25V720.125C272.416 720.125 272.575 720.059 272.692 719.942C272.809 719.825 272.875 719.666 272.875 719.5ZM276.129 709.014C276.253 708.466 276.47 707.943 276.771 707.468C276.846 707.348 276.879 707.206 276.863 707.065C276.847 706.924 276.784 706.793 276.684 706.692L276.139 706.148L277.023 705.264L277.567 705.809C277.668 705.909 277.799 705.972 277.94 705.988C278.081 706.004 278.223 705.971 278.343 705.896C278.818 705.595 279.341 705.378 279.889 705.254C280.027 705.222 280.15 705.145 280.239 705.034C280.327 704.923 280.375 704.785 280.375 704.644V703.875H281.625V704.644C281.625 704.785 281.673 704.923 281.761 705.034C281.85 705.145 281.973 705.222 282.111 705.254C282.659 705.378 283.182 705.595 283.657 705.896C283.777 705.971 283.919 706.004 284.06 705.988C284.201 705.972 284.332 705.909 284.433 705.809L284.977 705.264L285.861 706.148L285.316 706.692C285.216 706.793 285.153 706.924 285.137 707.065C285.121 707.206 285.154 707.348 285.229 707.468C285.53 707.943 285.747 708.466 285.871 709.014C285.903 709.152 285.98 709.275 286.091 709.364C286.202 709.452 286.34 709.5 286.481 709.5H287.25V710.75H286.481C286.34 710.75 286.202 710.798 286.091 710.886C285.98 710.975 285.903 711.098 285.871 711.236C285.747 711.784 285.53 712.307 285.229 712.782C285.154 712.902 285.121 713.044 285.137 713.185C285.153 713.326 285.216 713.457 285.316 713.558L285.861 714.103L284.977 714.986L284.433 714.441C284.332 714.341 284.201 714.278 284.06 714.262C283.919 714.246 283.777 714.279 283.657 714.354C283.182 714.654 282.66 714.871 282.112 714.996C281.974 715.028 281.85 715.105 281.762 715.216C281.673 715.326 281.625 715.464 281.625 715.606V716.375H280.375V715.606C280.375 715.464 280.327 715.326 280.238 715.216C280.15 715.105 280.026 715.028 279.888 714.996C279.34 714.871 278.818 714.654 278.343 714.354C278.223 714.279 278.081 714.246 277.94 714.262C277.799 714.278 277.668 714.341 277.567 714.441L277.023 714.986L276.139 714.103L276.684 713.558C276.784 713.457 276.847 713.326 276.863 713.185C276.879 713.044 276.846 712.902 276.771 712.782C276.47 712.307 276.253 711.784 276.129 711.236C276.097 711.098 276.02 710.975 275.909 710.886C275.798 710.798 275.66 710.75 275.519 710.75H274.75V709.5H275.519C275.66 709.5 275.798 709.452 275.909 709.364C276.02 709.275 276.097 709.152 276.129 709.014ZM269.75 707.625C269.75 707.459 269.816 707.3 269.933 707.183C270.05 707.066 270.209 707 270.375 707H275.223L275.461 707.238C275.292 707.562 275.151 707.901 275.041 708.25H271.625C271.459 708.25 271.3 708.316 271.183 708.433C271.066 708.55 271 708.709 271 708.875V711.375H269.75V707.625ZM257.875 712.625H271.625V718.875H257.875V712.625ZM269.75 720.125H271V721.375H269.75V720.125ZM294.125 724.5C294.125 724.666 294.059 724.825 293.942 724.942C293.825 725.059 293.666 725.125 293.5 725.125H268.5C268.334 725.125 268.175 725.059 268.058 724.942C267.941 724.825 267.875 724.666 267.875 724.5V722.625H294.125V724.5Z" fill="black"/>
<path d="M281 713.875C281.742 713.875 282.467 713.655 283.083 713.243C283.7 712.831 284.181 712.245 284.465 711.56C284.748 710.875 284.823 710.121 284.678 709.393C284.533 708.666 284.176 707.998 283.652 707.473C283.127 706.949 282.459 706.592 281.732 706.447C281.004 706.302 280.25 706.377 279.565 706.66C278.88 706.944 278.294 707.425 277.882 708.042C277.47 708.658 277.25 709.383 277.25 710.125C277.251 711.119 277.646 712.073 278.349 712.776C279.052 713.479 280.006 713.874 281 713.875ZM281 707.625C281.494 707.625 281.978 707.772 282.389 708.046C282.8 708.321 283.12 708.711 283.31 709.168C283.499 709.625 283.548 710.128 283.452 710.613C283.355 711.098 283.117 711.543 282.768 711.893C282.418 712.242 281.973 712.481 281.488 712.577C281.003 712.673 280.5 712.624 280.043 712.435C279.586 712.245 279.196 711.925 278.921 711.514C278.647 711.103 278.5 710.619 278.5 710.125C278.5 709.462 278.763 708.826 279.232 708.357C279.701 707.888 280.337 707.625 281 707.625ZM261.183 713.433L259.308 715.308C259.191 715.425 259.125 715.584 259.125 715.75C259.125 715.916 259.191 716.075 259.308 716.192L261.183 718.067L262.067 717.183L260.634 715.75L262.067 714.317L261.183 713.433ZM268.317 713.433L267.433 714.317L268.866 715.75L267.433 717.183L268.317 718.067L270.192 716.192C270.309 716.075 270.375 715.916 270.375 715.75C270.375 715.584 270.309 715.425 270.192 715.308L268.317 713.433ZM262.941 717.97L265.441 712.97L266.559 713.529L264.059 718.529L262.941 717.97Z" fill="black"/>
</g>
<defs>
<filter id="filter0_f_206_117" x="-427" y="0" width="1406" height="1318.17" filterUnits="userSpaceOnUse" color-interpolation-filters="sRGB">
<feFlood flood-opacity="0" result="BackgroundImageFix"/>
<feBlend mode="normal" in="SourceGraphic" in2="BackgroundImageFix" result="shape"/>
<feGaussianBlur stdDeviation="270" result="effect1_foregroundBlur_206_117"/>
</filter>
<filter id="filter1_d_206_117" x="201" y="651" width="150" height="150" filterUnits="userSpaceOnUse" color-interpolation-filters="sRGB">
<feFlood flood-opacity="0" result="BackgroundImageFix"/>
<feColorMatrix in="SourceAlpha" type="matrix" values="0 0 0 0 0 0 0 0 0 0 0 0 0 0 0 0 0 0 127 0" result="hardAlpha"/>
<feOffset dy="4"/>
<feGaussianBlur stdDeviation="12.5"/>
<feComposite in2="hardAlpha" operator="out"/>
<feColorMatrix type="matrix" values="0 0 0 0 0 0 0 0 0 0 0 0 0 0 0 0 0 0 0.08 0"/>
<feBlend mode="normal" in2="BackgroundImageFix" result="effect1_dropShadow_206_117"/>
<feBlend mode="normal" in="SourceGraphic" in2="effect1_dropShadow_206_117" result="shape"/>
</filter>
<clipPath id="clip0_206_117">
<rect width="40" height="40" fill="white" transform="translate(256 702)"/>
</clipPath>
</defs>
</svg>
