<svg width="388" height="361" viewBox="0 0 388 361" fill="none" xmlns="http://www.w3.org/2000/svg">
<path d="M10.8591 332V320.8H12.3791V332H10.8591ZM15.2229 327.744V332H13.7029V327.872C13.7029 325.456 15.3189 323.84 17.8149 323.84C20.2309 323.84 21.8469 325.456 21.8469 327.872V332H20.3109V327.744C20.3109 326.256 19.2869 325.264 17.7509 325.264C16.2629 325.264 15.2229 326.272 15.2229 327.744ZM27.0779 328.096C27.0779 325.504 28.7419 323.84 31.2859 323.84C33.8139 323.84 35.4939 325.504 35.4939 328V332H33.9739V330.416L33.8139 330.432V330.576C33.8139 331.216 32.8539 332.16 30.9659 332.16C28.6619 332.16 27.0779 330.544 27.0779 328.096ZM28.5979 328C28.5979 329.68 29.5899 330.736 31.2379 330.736C33.2219 330.736 33.9579 329.616 33.9579 328C33.9579 326.32 32.9339 325.264 31.2859 325.264C29.6699 325.264 28.5979 326.368 28.5979 328ZM47.1501 320V321.424H45.8221C44.2061 321.424 43.3581 322.256 43.3581 323.84V324H46.2701V325.312H43.3581V332H41.8381V325.312H40.6541V324H41.8381C41.8701 321.488 43.2621 320 45.8221 320H47.1501ZM48.5041 327.888V332H46.9841V328.08C46.9841 325.488 48.6321 323.872 51.1761 323.872V325.344C49.5761 325.344 48.5041 326.32 48.5041 327.888ZM60.037 328.176H53.301C53.333 329.696 54.389 330.768 56.021 330.768C57.317 330.768 58.197 330.064 58.485 328.976H60.037C59.685 330.976 58.197 332.16 55.989 332.16C53.461 332.16 51.781 330.496 51.781 328C51.781 325.504 53.461 323.84 55.989 323.84C58.405 323.84 60.053 325.312 60.037 327.728V328.176ZM53.413 327.008H58.453C58.213 325.84 57.317 325.136 56.005 325.136C54.693 325.136 53.733 325.92 53.413 327.008ZM69.5526 328.176H62.8166C62.8486 329.696 63.9046 330.768 65.5366 330.768C66.8326 330.768 67.7126 330.064 68.0006 328.976H69.5526C69.2006 330.976 67.7126 332.16 65.5046 332.16C62.9766 332.16 61.2966 330.496 61.2966 328C61.2966 325.504 62.9766 323.84 65.5046 323.84C67.9206 323.84 69.5686 325.312 69.5526 327.728V328.176ZM62.9286 327.008H67.9686C67.7286 325.84 66.8326 325.136 65.5206 325.136C64.2086 325.136 63.2486 325.92 62.9286 327.008ZM76.301 327.872V332H74.781V320H76.301V325.696H76.461C76.461 324.832 77.389 323.84 79.197 323.84C81.453 323.84 82.765 325.296 82.765 327.536V332H81.229V327.584C81.229 326.112 80.397 325.264 78.941 325.264C77.213 325.264 76.301 326.384 76.301 327.872ZM84.0935 328C84.0935 325.504 85.7735 323.84 88.3015 323.84C90.8295 323.84 92.5095 325.504 92.5095 328C92.5095 330.496 90.8295 332.16 88.3015 332.16C85.7735 332.16 84.0935 330.496 84.0935 328ZM85.6135 328C85.6135 329.632 86.6855 330.736 88.3015 330.736C89.9175 330.736 90.9895 329.632 90.9895 328C90.9895 326.368 89.9175 325.264 88.3015 325.264C86.6855 325.264 85.6135 326.368 85.6135 328ZM95.3479 328.256C95.3479 329.728 96.3879 330.736 97.8759 330.736C99.4119 330.736 100.436 329.744 100.436 328.256V324H101.972V328.128C101.972 330.544 100.356 332.16 97.9399 332.16C95.4439 332.16 93.8279 330.544 93.8279 328.128V324H95.3479V328.256ZM104.817 327.888V332H103.297V328.08C103.297 325.488 104.945 323.872 107.489 323.872V325.344C105.889 325.344 104.817 326.32 104.817 327.888ZM107.842 331.216C107.842 330.64 108.242 330.272 108.866 330.272C109.474 330.272 109.89 330.64 109.89 331.216C109.89 332.256 109.058 333.232 108.146 333.664L107.826 333.2C108.162 332.96 108.418 332.496 108.434 332.096C108.066 331.968 107.842 331.648 107.842 331.216ZM118.709 332.16C116.501 332.16 115.109 330.832 115.109 328.128V324H116.629V328.256C116.629 330.016 117.589 330.736 118.725 330.736C120.245 330.736 120.997 329.664 120.997 328.256V324H122.533V328.256C122.533 329.664 123.285 330.736 124.805 330.736C125.957 330.736 126.901 330.016 126.901 328.256V324H128.437V328.128C128.437 330.832 127.029 332.16 124.837 332.16C122.981 332.16 121.845 330.976 121.845 329.648H121.685C121.685 330.976 120.549 332.16 118.709 332.16ZM131.27 327.872V332H129.75V320H131.27V325.696H131.43C131.43 324.832 132.358 323.84 134.166 323.84C136.422 323.84 137.734 325.296 137.734 327.536V332H136.198V327.584C136.198 326.112 135.366 325.264 133.91 325.264C132.182 325.264 131.27 326.384 131.27 327.872ZM147.318 328.176H140.582C140.614 329.696 141.67 330.768 143.302 330.768C144.598 330.768 145.478 330.064 145.766 328.976H147.318C146.966 330.976 145.478 332.16 143.27 332.16C140.742 332.16 139.062 330.496 139.062 328C139.062 325.504 140.742 323.84 143.27 323.84C145.686 323.84 147.334 325.312 147.318 327.728V328.176ZM140.694 327.008H145.734C145.494 325.84 144.598 325.136 143.286 325.136C141.974 325.136 141.014 325.92 140.694 327.008ZM150.16 327.744V332H148.64V327.872C148.64 325.456 150.256 323.84 152.752 323.84C155.168 323.84 156.784 325.456 156.784 327.872V332H155.248V327.744C155.248 326.256 154.224 325.264 152.688 325.264C151.2 325.264 150.16 326.272 150.16 327.744ZM162.015 328C162.015 325.504 163.695 323.84 166.223 323.84C168.751 323.84 170.431 325.504 170.431 328C170.431 330.496 168.751 332.16 166.223 332.16C163.695 332.16 162.015 330.496 162.015 328ZM163.535 328C163.535 329.632 164.607 330.736 166.223 330.736C167.839 330.736 168.911 329.632 168.911 328C168.911 326.368 167.839 325.264 166.223 325.264C164.607 325.264 163.535 326.368 163.535 328ZM173.27 328.256C173.27 329.728 174.31 330.736 175.798 330.736C177.334 330.736 178.358 329.744 178.358 328.256V324H179.894V328.128C179.894 330.544 178.278 332.16 175.862 332.16C173.366 332.16 171.75 330.544 171.75 328.128V324H173.27V328.256ZM182.739 327.888V332H181.219V328.08C181.219 325.488 182.867 323.872 185.411 323.872V325.344C183.811 325.344 182.739 326.32 182.739 327.888ZM198.978 328.096C198.978 330.544 197.394 332.16 195.09 332.16C193.202 332.16 192.242 331.216 192.242 330.576V330.432L192.082 330.416V336H190.562V328C190.562 325.504 192.242 323.84 194.77 323.84C197.314 323.84 198.978 325.504 198.978 328.096ZM197.458 328C197.458 326.368 196.37 325.264 194.77 325.264C193.122 325.264 192.082 326.32 192.082 328C192.082 329.616 192.834 330.736 194.818 330.736C196.466 330.736 197.458 329.68 197.458 328ZM200.25 328C200.25 325.504 201.93 323.84 204.458 323.84C206.986 323.84 208.666 325.504 208.666 328C208.666 330.496 206.986 332.16 204.458 332.16C201.93 332.16 200.25 330.496 200.25 328ZM201.77 328C201.77 329.632 202.842 330.736 204.458 330.736C206.074 330.736 207.146 329.632 207.146 328C207.146 326.368 206.074 325.264 204.458 325.264C202.842 325.264 201.77 326.368 201.77 328ZM213.584 332.16C211.376 332.16 209.984 330.832 209.984 328.128V324H211.504V328.256C211.504 330.016 212.464 330.736 213.6 330.736C215.12 330.736 215.872 329.664 215.872 328.256V324H217.408V328.256C217.408 329.664 218.16 330.736 219.68 330.736C220.832 330.736 221.776 330.016 221.776 328.256V324H223.312V328.128C223.312 330.832 221.904 332.16 219.712 332.16C217.856 332.16 216.72 330.976 216.72 329.648H216.56C216.56 330.976 215.424 332.16 213.584 332.16ZM232.881 328.176H226.145C226.177 329.696 227.233 330.768 228.865 330.768C230.161 330.768 231.041 330.064 231.329 328.976H232.881C232.529 330.976 231.041 332.16 228.833 332.16C226.305 332.16 224.625 330.496 224.625 328C224.625 325.504 226.305 323.84 228.833 323.84C231.249 323.84 232.897 325.312 232.881 327.728V328.176ZM226.257 327.008H231.297C231.057 325.84 230.161 325.136 228.849 325.136C227.537 325.136 226.577 325.92 226.257 327.008ZM235.723 327.888V332H234.203V328.08C234.203 325.488 235.851 323.872 238.395 323.872V325.344C236.795 325.344 235.723 326.32 235.723 327.888ZM243.547 328C243.547 325.504 245.227 323.84 247.755 323.84C250.283 323.84 251.963 325.504 251.963 328C251.963 330.496 250.283 332.16 247.755 332.16C245.227 332.16 243.547 330.496 243.547 328ZM245.067 328C245.067 329.632 246.139 330.736 247.755 330.736C249.371 330.736 250.443 329.632 250.443 328C250.443 326.368 249.371 325.264 247.755 325.264C246.139 325.264 245.067 326.368 245.067 328ZM259.244 320V321.424H257.916C256.3 321.424 255.452 322.256 255.452 323.84V324H258.364V325.312H255.452V332H253.932V325.312H252.748V324H253.932C253.964 321.488 255.356 320 257.916 320H259.244ZM35.6369 356C35.6369 357.632 36.7089 358.736 38.3249 358.736C39.6529 358.736 40.5169 358 40.8209 356.88H42.3729C42.0209 358.88 40.5329 360.16 38.3249 360.16C35.7969 360.16 34.1169 358.496 34.1169 356C34.1169 353.504 35.7969 351.84 38.3249 351.84C40.5329 351.84 42.0209 353.12 42.3729 355.12H40.8209C40.5169 354 39.6529 353.264 38.3249 353.264C36.7089 353.264 35.6369 354.368 35.6369 356ZM45.2151 355.872V360H43.6951V348H45.2151V353.696H45.3751C45.3751 352.832 46.3031 351.84 48.1111 351.84C50.3671 351.84 51.6791 353.296 51.6791 355.536V360H50.1431V355.584C50.1431 354.112 49.3111 353.264 47.8551 353.264C46.1271 353.264 45.2151 354.384 45.2151 355.872ZM53.0076 356C53.0076 353.504 54.6876 351.84 57.2156 351.84C59.7436 351.84 61.4236 353.504 61.4236 356C61.4236 358.496 59.7436 360.16 57.2156 360.16C54.6876 360.16 53.0076 358.496 53.0076 356ZM54.5276 356C54.5276 357.632 55.5996 358.736 57.2156 358.736C58.8316 358.736 59.9036 357.632 59.9036 356C59.9036 354.368 58.8316 353.264 57.2156 353.264C55.5996 353.264 54.5276 354.368 54.5276 356ZM62.7419 349.52C62.7419 348.992 63.1099 348.64 63.6539 348.64C64.2139 348.64 64.5819 348.992 64.5819 349.52C64.5819 350.048 64.2139 350.4 63.6539 350.4C63.1099 350.4 62.7419 350.048 62.7419 349.52ZM62.9019 360V352H64.4219V360H62.9019ZM67.4182 356C67.4182 357.632 68.4902 358.736 70.1062 358.736C71.4342 358.736 72.2982 358 72.6022 356.88H74.1542C73.8022 358.88 72.3142 360.16 70.1062 360.16C67.5782 360.16 65.8982 358.496 65.8982 356C65.8982 353.504 67.5782 351.84 70.1062 351.84C72.3142 351.84 73.8022 353.12 74.1542 355.12H72.6022C72.2982 354 71.4342 353.264 70.1062 353.264C68.4902 353.264 67.4182 354.368 67.4182 356ZM83.6698 356.176H76.9338C76.9658 357.696 78.0218 358.768 79.6538 358.768C80.9498 358.768 81.8298 358.064 82.1178 356.976H83.6698C83.3178 358.976 81.8298 360.16 79.6218 360.16C77.0938 360.16 75.4138 358.496 75.4138 356C75.4138 353.504 77.0938 351.84 79.6218 351.84C82.0378 351.84 83.6858 353.312 83.6698 355.728V356.176ZM77.0458 355.008H82.0858C81.8458 353.84 80.9498 353.136 79.6378 353.136C78.3258 353.136 77.3658 353.92 77.0458 355.008ZM88.8982 349.52C88.8982 348.992 89.2662 348.64 89.8102 348.64C90.3702 348.64 90.7382 348.992 90.7382 349.52C90.7382 350.048 90.3702 350.4 89.8102 350.4C89.2662 350.4 88.8982 350.048 88.8982 349.52ZM89.0582 360V352H90.5782V360H89.0582ZM92.0224 354.176C92.0224 352.592 93.2704 351.824 95.6544 351.824C96.8384 351.824 97.7824 351.952 98.6464 352.272V353.696C98.0864 353.488 96.9024 353.136 95.4944 353.136C94.1824 353.136 93.5424 353.456 93.5424 354.064C93.5424 355.68 98.9824 354.784 98.9824 357.664C98.9824 359.232 97.7504 360.176 95.3504 360.176C94.1664 360.176 93.2224 360.048 92.3584 359.728V358.304C92.9184 358.512 94.1184 358.864 95.5104 358.864C96.8224 358.864 97.4464 358.384 97.4464 357.776C97.4464 356.176 92.0224 357.056 92.0224 354.176ZM105.668 356.256C105.668 357.728 106.708 358.736 108.196 358.736C109.732 358.736 110.756 357.744 110.756 356.256V352H112.292V356.128C112.292 358.544 110.676 360.16 108.26 360.16C105.764 360.16 104.148 358.544 104.148 356.128V352H105.668V356.256ZM115.137 355.744V360H113.617V355.872C113.617 353.456 115.233 351.84 117.729 351.84C120.145 351.84 121.761 353.456 121.761 355.872V360H120.225V355.744C120.225 354.256 119.201 353.264 117.665 353.264C116.177 353.264 115.137 354.272 115.137 355.744ZM127.566 360C124.334 360 123.054 358.64 123.054 355.6V350.336H124.574V352.096H127.566V353.456H124.574V355.824C124.574 357.792 125.31 358.544 127.566 358.544V360ZM130.324 355.888V360H128.804V356.08C128.804 353.488 130.452 351.872 132.996 351.872V353.344C131.396 353.344 130.324 354.32 130.324 355.888ZM133.601 356.096C133.601 353.504 135.265 351.84 137.809 351.84C140.337 351.84 142.017 353.504 142.017 356V360H140.497V358.416L140.337 358.432V358.576C140.337 359.216 139.377 360.16 137.489 360.16C135.185 360.16 133.601 358.544 133.601 356.096ZM135.121 356C135.121 357.68 136.113 358.736 137.761 358.736C139.745 358.736 140.481 357.616 140.481 356C140.481 354.32 139.457 353.264 137.809 353.264C136.193 353.264 135.121 354.368 135.121 356ZM153.079 351.84C155.271 351.84 156.679 353.168 156.679 355.872V360H155.143V355.744C155.143 353.984 154.199 353.264 153.047 353.264C151.527 353.264 150.775 354.32 150.775 355.744V360H149.239V355.744C149.239 354.32 148.487 353.264 146.967 353.264C145.831 353.264 144.871 353.984 144.871 355.744V360H143.351V355.872C143.351 353.168 144.743 351.84 146.951 351.84C148.791 351.84 149.943 353.024 149.927 354.352H150.087C150.087 353.024 151.223 351.84 153.079 351.84ZM167.72 351.84C169.912 351.84 171.32 353.168 171.32 355.872V360H169.784V355.744C169.784 353.984 168.84 353.264 167.688 353.264C166.168 353.264 165.416 354.32 165.416 355.744V360H163.88V355.744C163.88 354.32 163.128 353.264 161.608 353.264C160.472 353.264 159.512 353.984 159.512 355.744V360H157.992V355.872C157.992 353.168 159.384 351.84 161.592 351.84C163.432 351.84 164.584 353.024 164.568 354.352H164.728C164.728 353.024 165.864 351.84 167.72 351.84ZM180.889 356.176H174.153C174.185 357.696 175.241 358.768 176.873 358.768C178.169 358.768 179.049 358.064 179.337 356.976H180.889C180.537 358.976 179.049 360.16 176.841 360.16C174.313 360.16 172.633 358.496 172.633 356C172.633 353.504 174.313 351.84 176.841 351.84C179.257 351.84 180.905 353.312 180.889 355.728V356.176ZM174.265 355.008H179.305C179.065 353.84 178.169 353.136 176.857 353.136C175.545 353.136 174.585 353.92 174.265 355.008ZM182.211 360V348H183.731V360H182.211ZM193.31 356.176H186.574C186.606 357.696 187.662 358.768 189.294 358.768C190.59 358.768 191.47 358.064 191.758 356.976H193.31C192.958 358.976 191.47 360.16 189.262 360.16C186.734 360.16 185.054 358.496 185.054 356C185.054 353.504 186.734 351.84 189.262 351.84C191.678 351.84 193.326 353.312 193.31 355.728V356.176ZM186.686 355.008H191.726C191.486 353.84 190.59 353.136 189.278 353.136C187.966 353.136 187.006 353.92 186.686 355.008ZM194.57 355.888C194.57 353.456 196.154 351.84 198.458 351.84C200.346 351.84 201.306 352.768 201.306 353.424V353.568H201.466V348H202.986V356C202.986 358.496 201.306 360.16 198.778 360.16C196.234 360.16 194.57 358.496 194.57 355.888ZM196.09 356C196.09 357.632 197.162 358.736 198.778 358.736C200.426 358.736 201.45 357.68 201.45 356C201.45 354.368 200.714 353.264 198.73 353.264C197.082 353.264 196.09 354.304 196.09 356ZM208.226 356.096C208.226 353.504 209.89 351.84 212.434 351.84C214.962 351.84 216.642 353.504 216.642 356V360H215.122V358.416L214.962 358.432V358.576C214.962 359.216 214.002 360.16 212.114 360.16C209.81 360.16 208.226 358.544 208.226 356.096ZM209.746 356C209.746 357.68 210.738 358.736 212.386 358.736C214.37 358.736 215.106 357.616 215.106 356C215.106 354.32 214.082 353.264 212.434 353.264C210.818 353.264 209.746 354.368 209.746 356ZM219.496 355.744V360H217.976V355.872C217.976 353.456 219.592 351.84 222.088 351.84C224.504 351.84 226.12 353.456 226.12 355.872V360H224.584V355.744C224.584 354.256 223.56 353.264 222.024 353.264C220.536 353.264 219.496 354.272 219.496 355.744ZM227.445 355.888C227.445 353.456 229.029 351.84 231.333 351.84C233.221 351.84 234.181 352.768 234.181 353.424V353.568H234.341V348H235.861V356C235.861 358.496 234.181 360.16 231.653 360.16C229.109 360.16 227.445 358.496 227.445 355.888ZM228.965 356C228.965 357.632 230.037 358.736 231.653 358.736C233.301 358.736 234.325 357.68 234.325 356C234.325 354.368 233.589 353.264 231.605 353.264C229.957 353.264 228.965 354.304 228.965 356Z" fill="white"/>
<path d="M51.223 292.82H50.983V289.7H51.223C52.823 289.7 53.963 288.74 53.963 287.34C53.963 285.94 52.883 285 51.283 285C49.683 285 48.603 285.94 48.603 287.34V296H45.203V287.34C45.203 284.02 47.643 281.8 51.283 281.8C54.943 281.8 57.363 284.02 57.363 287.04C57.363 290.42 54.723 291.3 53.803 291.3V291.5C54.723 291.5 55.763 292.2 56.203 292.9L58.183 296H54.283L52.783 293.68C52.443 293.16 51.823 292.82 51.223 292.82ZM68.3741 291.68H61.4541C61.5541 292.46 62.2341 293.14 63.4541 293.14C64.2141 293.14 64.6741 292.9 64.8741 292.56H68.3741C67.9341 295.06 66.0741 296.2 63.3141 296.2C60.1541 296.2 58.0541 294.12 58.0541 291C58.0541 287.88 60.1541 285.8 63.3141 285.8C66.0741 285.8 68.3741 287.56 68.3741 290.94V291.68ZM61.5541 289.74H64.8141C64.8141 289.04 64.2341 288.4 63.3941 288.4C62.4341 288.4 61.7941 289.14 61.5541 289.74ZM69.519 291.22C69.519 287.68 71.619 285.8 74.779 285.8C77.939 285.8 80.039 287.88 80.039 291V301H76.639V293.84H76.459V294.04C76.459 295.18 75.419 296.2 73.659 296.2C71.139 296.2 69.519 294.26 69.519 291.22ZM72.919 291C72.919 292.18 73.659 293 74.779 293C75.899 293 76.639 292.18 76.639 291C76.639 289.82 75.899 289 74.779 289C73.659 289 72.919 289.82 72.919 291ZM84.5791 291.32C84.5791 292.32 85.2591 293 86.2591 293C87.2791 293 87.9591 292.32 87.9591 291.32V286H91.3591V291.16C91.3591 294.18 89.3391 296.2 86.3191 296.2C83.1991 296.2 81.1791 294.18 81.1791 291.16V286H84.5791V291.32ZM102.827 291.68H95.9073C96.0073 292.46 96.6873 293.14 97.9073 293.14C98.6673 293.14 99.1273 292.9 99.3273 292.56H102.827C102.387 295.06 100.527 296.2 97.7673 296.2C94.6073 296.2 92.5073 294.12 92.5073 291C92.5073 287.88 94.6073 285.8 97.7673 285.8C100.527 285.8 102.827 287.56 102.827 290.94V291.68ZM96.0073 289.74H99.2673C99.2673 289.04 98.6873 288.4 97.8473 288.4C96.8873 288.4 96.2473 289.14 96.0073 289.74ZM103.913 289.06C103.913 286.8 105.673 285.78 108.453 285.78C109.933 285.78 111.113 285.94 112.193 286.34V289.24C111.493 289 110.013 288.5 108.273 288.5C107.573 288.5 107.333 288.66 107.333 288.92C107.333 290.08 112.613 289.32 112.613 292.92C112.613 295.2 110.853 296.22 108.073 296.22C106.593 296.22 105.413 296.06 104.333 295.64V292.74C105.033 293 106.513 293.5 108.253 293.5C108.953 293.5 109.213 293.32 109.213 293.08C109.213 291.92 103.913 292.66 103.913 289.06ZM119.88 296C115.44 296 113.66 293.38 113.66 288.56V283.92H117.06V286.12H119.88V289.12H117.06C117.06 291.42 117.72 292.6 119.88 292.6V296ZM136.524 282V296H133.124V292.8H128.544V296H125.144V291C125.144 285.14 128.364 282 134.344 282H136.524ZM128.624 289.7H133.124V285.2H132.884C130.584 285.2 128.964 286.94 128.624 289.7ZM145.302 287.68V296H141.902V287.64C141.902 283.82 144.322 281.8 147.842 281.8C150.322 281.8 152.282 283.1 152.282 285.32H152.482C152.482 283.1 154.482 281.8 157.022 281.8C160.442 281.8 162.862 283.82 162.862 287.64V296H159.462V287.68C159.462 285.88 158.182 285 156.762 285C155.322 285 154.082 285.88 154.082 287.68V296H150.682V287.68C150.682 285.88 149.402 285 147.982 285C146.542 285 145.302 285.88 145.302 287.68ZM174.331 291.68H167.411C167.511 292.46 168.191 293.14 169.411 293.14C170.171 293.14 170.631 292.9 170.831 292.56H174.331C173.891 295.06 172.031 296.2 169.271 296.2C166.111 296.2 164.011 294.12 164.011 291C164.011 287.88 166.111 285.8 169.271 285.8C172.031 285.8 174.331 287.56 174.331 290.94V291.68ZM167.511 289.74H170.771C170.771 289.04 170.191 288.4 169.351 288.4C168.391 288.4 167.751 289.14 167.511 289.74ZM185.796 291.68H178.876C178.976 292.46 179.656 293.14 180.876 293.14C181.636 293.14 182.096 292.9 182.296 292.56H185.796C185.356 295.06 183.496 296.2 180.736 296.2C177.576 296.2 175.476 294.12 175.476 291C175.476 287.88 177.576 285.8 180.736 285.8C183.496 285.8 185.796 287.56 185.796 290.94V291.68ZM178.976 289.74H182.236C182.236 289.04 181.656 288.4 180.816 288.4C179.856 288.4 179.216 289.14 178.976 289.74ZM193.161 296C188.721 296 186.941 293.38 186.941 288.56V283.92H190.341V286.12H193.161V289.12H190.341C190.341 291.42 191.001 292.6 193.161 292.6V296ZM194.187 283.48C194.187 282.46 194.947 281.78 196.087 281.78C197.227 281.78 197.987 282.46 197.987 283.48C197.987 284.5 197.227 285.18 196.087 285.18C194.947 285.18 194.187 284.5 194.187 283.48ZM194.387 296V286H197.787V296H194.387ZM202.509 290.68V296H199.109V290.84C199.109 287.82 201.129 285.8 204.249 285.8C207.269 285.8 209.289 287.82 209.289 290.84V296H205.889V290.68C205.889 289.68 205.209 289 204.189 289C203.189 289 202.509 289.68 202.509 290.68ZM218.017 284.56C218.017 283.54 218.777 282.86 219.917 282.86C221.057 282.86 221.817 283.54 221.817 284.56C221.817 285.58 221.057 286.26 219.917 286.26C218.777 286.26 218.017 285.58 218.017 284.56ZM210.437 290.4C210.437 287.64 212.417 285.8 215.397 285.8C218.377 285.8 220.357 287.64 220.357 290.28C220.357 292.74 218.657 293.66 217.877 293.66V293.86C218.937 293.86 220.457 294.7 220.457 296.82C220.457 299.5 218.477 301.2 215.497 301.2C212.517 301.2 210.537 299.32 210.537 296.5H213.937C213.937 297.4 214.557 298 215.497 298C216.437 298 217.057 297.4 217.057 296.5C217.057 295.6 216.557 295 215.397 295C212.417 295 210.437 293.16 210.437 290.4ZM213.837 290.4C213.837 291.24 214.457 291.8 215.397 291.8C216.737 291.8 216.957 291.24 216.957 290.4C216.957 289.56 216.337 289 215.397 289C214.457 289 213.837 289.56 213.837 290.4Z" fill="white"/>
<path d="M207.417 210C191.101 210 175.853 207.091 161.673 201.274C147.687 195.457 136.129 187.41 127 177.133L157.302 149.211C164.878 157.355 172.162 162.978 179.155 166.08C186.342 169.183 195.568 170.734 206.835 170.734C214.216 170.734 220.626 169.765 226.065 167.825C231.698 165.693 235.971 162.784 238.885 159.1C241.993 155.222 243.547 150.762 243.547 145.72C243.547 141.26 242.381 137.479 240.05 134.377C237.914 131.274 234.806 128.85 230.727 127.105C226.842 125.36 222.18 124.488 216.741 124.488H190.518V87.5485H212.079C220.432 87.5485 226.939 85.6094 231.601 81.7313C236.263 77.6593 238.594 72.036 238.594 64.8615C238.594 60.0138 237.137 55.7479 234.223 52.0637C231.504 48.1856 227.716 45.18 222.86 43.0471C218.198 40.9141 212.759 39.8476 206.543 39.8476C196.637 39.8476 188.187 41.5928 181.194 45.0831C174.396 48.3795 167.014 54.3906 159.05 63.1163L128.457 35.4848C138.169 24.4321 150.018 15.8033 164.004 9.59833C178.183 3.19944 192.946 0 208.291 0C223.248 0 236.36 2.52077 247.626 7.56232C258.892 12.41 267.73 19.2936 274.14 28.2133C280.55 36.9391 283.755 47.1191 283.755 58.7535C283.755 69.8061 280.162 79.5014 272.975 87.8393C265.788 96.1773 256.464 101.994 245.004 105.291C258.406 107.812 269.09 113.047 277.054 120.997C285.018 128.753 289 138.255 289 149.501C289 161.136 285.504 171.51 278.511 180.623C271.518 189.737 261.903 196.911 249.665 202.147C237.428 207.382 223.345 210 207.417 210Z" fill="white" fill-opacity="0.2"/>
<g filter="url(#filter0_d_206_120)">
<circle cx="137" cy="202" r="50" fill="#02FFC3"/>
</g>
<g clip-path="url(#clip0_206_120)">
<path d="M154.138 209.526C154.772 208.838 155.125 207.936 155.125 207C155.125 204.932 153.443 203.25 151.375 203.25C149.307 203.25 147.625 204.932 147.625 207C147.625 207.974 148.001 208.859 148.612 209.526C147.014 209.663 145.75 210.992 145.75 212.625V216.375C145.75 216.541 145.816 216.7 145.933 216.817C146.05 216.934 146.209 217 146.375 217H156.375C156.541 217 156.7 216.934 156.817 216.817C156.934 216.7 157 216.541 157 216.375V212.625C157 210.992 155.736 209.663 154.138 209.526ZM151.375 204.5C152.754 204.5 153.875 205.621 153.875 207C153.875 208.379 152.754 209.5 151.375 209.5C149.996 209.5 148.875 208.379 148.875 207C148.875 205.621 149.996 204.5 151.375 204.5ZM155.75 215.75H154.5V214.188C154.5 214.022 154.434 213.863 154.317 213.746C154.2 213.628 154.041 213.563 153.875 213.563C153.709 213.563 153.55 213.628 153.433 213.746C153.316 213.863 153.25 214.022 153.25 214.188V215.75H149.5V214.188C149.5 214.022 149.434 213.863 149.317 213.746C149.2 213.628 149.041 213.563 148.875 213.563C148.709 213.563 148.55 213.628 148.433 213.746C148.316 213.863 148.25 214.022 148.25 214.188V215.75H147V212.625C147 211.591 147.841 210.75 148.875 210.75H153.875C154.909 210.75 155.75 211.591 155.75 212.625V215.75ZM125.388 209.526C126.022 208.838 126.375 207.936 126.375 207C126.375 204.932 124.693 203.25 122.625 203.25C120.557 203.25 118.875 204.932 118.875 207C118.875 207.974 119.251 208.859 119.862 209.526C118.264 209.663 117 210.992 117 212.625V216.375C117 216.541 117.066 216.7 117.183 216.817C117.3 216.934 117.459 217 117.625 217H127.625C127.791 217 127.95 216.934 128.067 216.817C128.184 216.7 128.25 216.541 128.25 216.375V212.625C128.25 210.992 126.986 209.663 125.388 209.526ZM122.625 204.5C124.004 204.5 125.125 205.621 125.125 207C125.125 208.379 124.004 209.5 122.625 209.5C121.246 209.5 120.125 208.379 120.125 207C120.125 205.621 121.246 204.5 122.625 204.5ZM127 215.75H125.75V214.188C125.75 214.022 125.684 213.863 125.567 213.746C125.45 213.628 125.291 213.563 125.125 213.563C124.959 213.563 124.8 213.628 124.683 213.746C124.566 213.863 124.5 214.022 124.5 214.188V215.75H120.75V214.188C120.75 214.022 120.684 213.863 120.567 213.746C120.45 213.628 120.291 213.563 120.125 213.563C119.959 213.563 119.8 213.628 119.683 213.746C119.566 213.863 119.5 214.022 119.5 214.188V215.75H118.25V212.625C118.25 211.591 119.091 210.75 120.125 210.75H125.125C126.159 210.75 127 211.591 127 212.625V215.75ZM140.125 213.25H140.056C140.473 212.844 140.805 212.358 141.032 211.821C141.258 211.284 141.375 210.708 141.375 210.125C141.375 207.713 139.412 205.75 137 205.75C134.588 205.75 132.625 207.713 132.625 210.125C132.625 211.349 133.131 212.455 133.944 213.25H133.875C132.152 213.25 130.75 214.652 130.75 216.375V221.375C130.75 221.541 130.816 221.7 130.933 221.817C131.05 221.934 131.209 222 131.375 222H142.625C142.791 222 142.95 221.934 143.067 221.817C143.184 221.7 143.25 221.541 143.25 221.375V216.375C143.25 214.652 141.848 213.25 140.125 213.25ZM133.875 210.125C133.875 208.402 135.277 207 137 207C138.723 207 140.125 208.402 140.125 210.125C140.125 211.848 138.723 213.25 137 213.25C135.277 213.25 133.875 211.848 133.875 210.125ZM142 220.75H140.125V218.875C140.125 218.709 140.059 218.55 139.942 218.433C139.825 218.316 139.666 218.25 139.5 218.25C139.334 218.25 139.175 218.316 139.058 218.433C138.941 218.55 138.875 218.709 138.875 218.875V220.75H135.125V218.875C135.125 218.709 135.059 218.55 134.942 218.433C134.825 218.316 134.666 218.25 134.5 218.25C134.334 218.25 134.175 218.316 134.058 218.433C133.941 218.55 133.875 218.709 133.875 218.875V220.75H132V216.375C132 215.341 132.841 214.5 133.875 214.5H140.125C141.159 214.5 142 215.341 142 216.375V220.75ZM137 188.363C134.994 188.363 133.363 189.994 133.363 192C133.363 194.006 134.994 195.638 137 195.638C139.006 195.638 140.637 194.006 140.637 192C140.637 189.994 139.006 188.363 137 188.363ZM137 194.388C135.684 194.388 134.613 193.317 134.613 192C134.613 190.683 135.684 189.613 137 189.613C138.316 189.613 139.387 190.683 139.387 192C139.387 193.317 138.316 194.388 137 194.388Z" fill="black"/>
<path d="M143.857 190.044L142.714 189.833C142.67 189.718 142.623 189.604 142.572 189.492L143.232 188.535C143.376 188.324 143.378 188.046 143.236 187.833C142.69 187.014 141.987 186.31 141.167 185.764C141.064 185.694 140.941 185.657 140.816 185.658C140.691 185.659 140.569 185.698 140.466 185.769L139.509 186.427C139.397 186.377 139.283 186.33 139.168 186.286L138.956 185.144C138.934 185.021 138.874 184.907 138.787 184.818C138.699 184.729 138.586 184.669 138.464 184.644C137.497 184.451 136.503 184.451 135.536 184.644C135.414 184.669 135.301 184.729 135.213 184.818C135.126 184.907 135.066 185.021 135.044 185.144L134.832 186.286C134.717 186.33 134.604 186.377 134.492 186.427L133.534 185.769C133.431 185.698 133.31 185.659 133.185 185.659C133.059 185.658 132.937 185.694 132.833 185.764C132.013 186.31 131.31 187.013 130.764 187.833C130.694 187.937 130.657 188.06 130.658 188.185C130.659 188.31 130.697 188.432 130.768 188.535L131.427 189.492C131.377 189.605 131.33 189.718 131.286 189.833L130.143 190.044C130.02 190.067 129.907 190.126 129.818 190.214C129.729 190.302 129.668 190.415 129.644 190.537C129.451 191.503 129.451 192.498 129.644 193.464C129.693 193.714 129.892 193.91 130.143 193.957L131.286 194.168C131.329 194.283 131.376 194.397 131.427 194.509L130.768 195.466C130.698 195.569 130.659 195.691 130.659 195.816C130.658 195.942 130.694 196.064 130.764 196.168C131.31 196.988 132.014 197.691 132.833 198.237C132.937 198.307 133.059 198.344 133.185 198.343C133.31 198.342 133.431 198.304 133.534 198.232L134.492 197.574C134.604 197.624 134.717 197.671 134.832 197.715L135.044 198.857C135.066 198.98 135.126 199.094 135.213 199.183C135.301 199.272 135.414 199.332 135.536 199.357C136.503 199.549 137.497 199.549 138.464 199.357C138.586 199.332 138.699 199.272 138.787 199.183C138.874 199.094 138.934 198.98 138.956 198.857L139.167 197.715C139.282 197.671 139.396 197.624 139.508 197.574L140.466 198.232C140.569 198.303 140.69 198.342 140.815 198.343C140.94 198.343 141.063 198.307 141.167 198.237C141.987 197.691 142.69 196.988 143.236 196.168C143.305 196.064 143.342 195.942 143.341 195.816C143.34 195.691 143.302 195.569 143.231 195.466L142.572 194.509C142.622 194.396 142.669 194.283 142.713 194.168L143.856 193.957C143.979 193.934 144.093 193.875 144.182 193.787C144.271 193.699 144.331 193.586 144.356 193.464C144.549 192.498 144.549 191.503 144.356 190.537C144.332 190.415 144.271 190.302 144.182 190.214C144.093 190.126 143.98 190.067 143.857 190.044ZM143.198 192.806L142.128 193.004C142.016 193.024 141.912 193.075 141.827 193.151C141.741 193.227 141.679 193.325 141.645 193.434C141.556 193.723 141.44 194.003 141.298 194.27C141.19 194.476 141.204 194.724 141.336 194.916L141.952 195.812C141.624 196.241 141.24 196.624 140.812 196.952L139.915 196.336C139.821 196.271 139.711 196.234 139.598 196.227C139.484 196.22 139.37 196.245 139.269 196.298C139.002 196.439 138.722 196.555 138.434 196.644C138.325 196.678 138.227 196.741 138.151 196.826C138.075 196.912 138.024 197.016 138.004 197.128L137.807 198.197C137.271 198.267 136.729 198.267 136.193 198.197L135.996 197.128C135.975 197.016 135.924 196.911 135.848 196.826C135.773 196.741 135.675 196.678 135.566 196.644C135.277 196.555 134.997 196.439 134.73 196.298C134.629 196.245 134.516 196.22 134.402 196.227C134.288 196.234 134.178 196.271 134.084 196.336L133.187 196.952C132.759 196.624 132.376 196.241 132.047 195.812L132.664 194.916C132.796 194.724 132.809 194.476 132.702 194.27C132.56 194.003 132.444 193.723 132.355 193.434C132.321 193.325 132.259 193.227 132.173 193.151C132.088 193.075 131.984 193.024 131.872 193.004L130.802 192.806C130.732 192.271 130.732 191.729 130.802 191.194L131.872 190.996C131.984 190.975 132.088 190.924 132.173 190.849C132.259 190.773 132.321 190.675 132.355 190.566C132.444 190.277 132.56 189.997 132.702 189.73C132.81 189.524 132.796 189.276 132.664 189.084L132.047 188.187C132.376 187.759 132.759 187.376 133.187 187.047L134.084 187.664C134.276 187.796 134.524 187.809 134.73 187.702C134.997 187.561 135.277 187.445 135.566 187.356C135.787 187.287 135.954 187.101 135.996 186.872L136.193 185.802C136.729 185.732 137.271 185.732 137.807 185.802L138.004 186.872C138.024 186.984 138.075 187.088 138.151 187.174C138.227 187.259 138.325 187.322 138.434 187.356C138.722 187.445 139.003 187.561 139.269 187.702C139.37 187.755 139.484 187.78 139.598 187.774C139.711 187.767 139.821 187.729 139.915 187.664L140.812 187.047C141.241 187.376 141.624 187.759 141.953 188.187L141.336 189.084C141.272 189.178 141.234 189.288 141.228 189.402C141.221 189.516 141.246 189.629 141.299 189.73C141.439 189.996 141.556 190.277 141.646 190.566C141.714 190.788 141.9 190.954 142.129 190.996L143.199 191.194C143.268 191.729 143.268 192.271 143.198 192.806Z" fill="black"/>
<path d="M146.021 204.438C146.237 204.334 146.375 204.115 146.375 203.875V202H147.625C148.314 202 148.875 201.439 148.875 200.75V183.25C148.875 182.561 148.314 182 147.625 182H126.375C125.686 182 125.125 182.561 125.125 183.25V200.75C125.125 201.439 125.686 202 126.375 202H127.625V203.875C127.625 203.993 127.659 204.108 127.722 204.207C127.784 204.307 127.874 204.386 127.98 204.437C128.086 204.488 128.204 204.508 128.321 204.495C128.438 204.482 128.549 204.436 128.641 204.362L131.594 202H134.812L136.5 204.25C136.736 204.565 137.264 204.565 137.5 204.25L139.188 202H142.406L145.359 204.363C145.452 204.436 145.562 204.482 145.68 204.496C145.797 204.509 145.915 204.489 146.021 204.438ZM145.125 201.375V202.574L143.016 200.887C142.905 200.798 142.767 200.75 142.625 200.75H138.875C138.778 200.75 138.682 200.773 138.595 200.816C138.509 200.859 138.433 200.922 138.375 201L137 202.833L135.625 201C135.567 200.922 135.491 200.859 135.405 200.816C135.318 200.773 135.222 200.75 135.125 200.75H131.375C131.233 200.75 131.095 200.798 130.984 200.887L128.875 202.574V201.375C128.875 201.209 128.809 201.05 128.692 200.933C128.575 200.816 128.416 200.75 128.25 200.75H126.375V183.25H147.625V200.75H145.75C145.584 200.75 145.425 200.816 145.308 200.933C145.191 201.05 145.125 201.209 145.125 201.375Z" fill="black"/>
</g>
<line x1="187.239" y1="201.561" x2="387.239" y2="310.561" stroke="#219BE4" stroke-dasharray="2 2"/>
<defs>
<filter id="filter0_d_206_120" x="62" y="131" width="150" height="150" filterUnits="userSpaceOnUse" color-interpolation-filters="sRGB">
<feFlood flood-opacity="0" result="BackgroundImageFix"/>
<feColorMatrix in="SourceAlpha" type="matrix" values="0 0 0 0 0 0 0 0 0 0 0 0 0 0 0 0 0 0 127 0" result="hardAlpha"/>
<feOffset dy="4"/>
<feGaussianBlur stdDeviation="12.5"/>
<feComposite in2="hardAlpha" operator="out"/>
<feColorMatrix type="matrix" values="0 0 0 0 0 0 0 0 0 0 0 0 0 0 0 0 0 0 0.08 0"/>
<feBlend mode="normal" in2="BackgroundImageFix" result="effect1_dropShadow_206_120"/>
<feBlend mode="normal" in="SourceGraphic" in2="effect1_dropShadow_206_120" result="shape"/>
</filter>
<clipPath id="clip0_206_120">
<rect width="40" height="40" fill="white" transform="translate(117 182)"/>
</clipPath>
</defs>
</svg>
