<svg width="65" height="37" viewBox="0 0 65 37" fill="none" xmlns="http://www.w3.org/2000/svg">
<path d="M16.0081 8.89402C14.2884 8.42748 12.4592 8.58446 10.8442 9.33716C9.22912 10.0899 7.93243 11.3898 7.18361 13.0067C6.43479 14.6237 6.28214 16.4535 6.75266 18.1723C7.22319 19.891 8.28655 21.3879 9.75454 22.3978C9.72785 22.4778 9.71084 22.5607 9.70386 22.6448V26.958C9.70399 27.1288 9.74467 27.2971 9.82256 27.4491C9.90044 27.6011 10.0133 27.7324 10.1519 27.8322C10.2904 27.932 10.4507 27.9975 10.6195 28.0232C10.7883 28.049 10.9608 28.0343 11.1228 27.9803L14.0166 27.0163L16.9105 27.9803C17.0203 28.0175 17.1354 28.0364 17.2512 28.0364C17.5372 28.0364 17.8114 27.9228 18.0136 27.7205C18.2158 27.5183 18.3294 27.244 18.3294 26.958V22.6448C18.3228 22.5608 18.3062 22.4779 18.2798 22.3978C19.4665 21.5838 20.3958 20.4474 20.9581 19.1226C21.5204 17.7979 21.6923 16.34 21.4535 14.9208C21.2147 13.5015 20.5753 12.1802 19.6105 11.1124C18.6457 10.0446 17.3958 9.27489 16.0081 8.89402ZM14.3574 24.8532C14.1363 24.7788 13.897 24.7788 13.6759 24.8532L11.8603 25.4613V23.3996C11.9163 23.4158 11.9681 23.4384 12.0252 23.4535C12.6783 23.6323 13.3524 23.7229 14.0296 23.7231C14.756 23.7202 15.4781 23.6112 16.173 23.3996V25.4613L14.3574 24.8532ZM19.2157 17.5928C18.9514 18.5625 18.4214 19.4389 17.6855 20.1233C16.9496 20.8076 16.0371 21.2727 15.0509 21.4659C14.0648 21.6591 13.0443 21.5728 12.1045 21.2167C11.1648 20.8607 10.3433 20.249 9.73276 19.4508C9.12219 18.6526 8.74685 17.6995 8.6491 16.6993C8.55135 15.6991 8.73508 14.6914 9.17956 13.7901C9.62404 12.8887 10.3116 12.1295 11.1646 11.5982C12.0176 11.0669 13.0021 10.7847 14.0069 10.7832C14.4907 10.7838 14.9723 10.849 15.4388 10.9773C16.8169 11.3555 17.9886 12.2654 18.6962 13.5071C19.4038 14.7488 19.5895 16.2207 19.2125 17.5993L19.2157 17.5928Z" fill="#02FFC3"/>
<path d="M14.8705 13.0541C14.4607 12.9419 14.0329 12.9116 13.6114 12.9648C13.1899 13.018 12.783 13.1537 12.414 13.3642C11.6687 13.7893 11.1227 14.4931 10.8962 15.3207C10.6698 16.1484 10.7813 17.0321 11.2063 17.7775C11.6314 18.5229 12.3351 19.0689 13.1626 19.2954C13.4437 19.3722 13.7338 19.411 14.0252 19.4108C14.8088 19.4106 15.5658 19.1258 16.1554 18.6095C16.7449 18.0931 17.127 17.3803 17.2306 16.6034C17.3341 15.8265 17.1522 15.0384 16.7185 14.3856C16.2848 13.7328 15.6289 13.2596 14.8726 13.0541H14.8705ZM15.0559 16.4594C14.9727 16.7261 14.7893 16.95 14.5443 17.0841C14.2993 17.2182 14.0118 17.252 13.7424 17.1783C13.473 17.1047 13.2427 16.9294 13.0999 16.6893C12.9572 16.4492 12.9132 16.163 12.9772 15.8911C13.0393 15.663 13.1747 15.4617 13.3625 15.3181C13.5504 15.1745 13.7801 15.0966 14.0165 15.0964C14.1138 15.0965 14.2106 15.1096 14.3044 15.1352C14.58 15.2109 14.8143 15.3928 14.9558 15.6411C15.0973 15.8894 15.1345 16.1837 15.0592 16.4594H15.0559Z" fill="#02FFC3"/>
<path d="M8.62563 34.5062H6.46924V36.6629H8.62563V34.5062Z" fill="#02FFC3"/>
<path d="M12.9383 34.5062H10.7819V36.6629H12.9383V34.5062Z" fill="#02FFC3"/>
<path d="M17.2511 34.5062H15.0947V36.6629H17.2511V34.5062Z" fill="#02FFC3"/>
<path d="M30.1894 34.5062H19.4075V36.6629H30.1894V34.5062Z" fill="#02FFC3"/>
<path d="M36.6586 0H34.5022V2.15664H36.6586V0Z" fill="#02FFC3"/>
<path d="M40.9715 0H38.8151V2.15664H40.9715V0Z" fill="#02FFC3"/>
<path d="M45.2842 0H43.1278V2.15664H45.2842V0Z" fill="#02FFC3"/>
<path d="M58.2226 0H47.4407V2.15664H58.2226V0Z" fill="#02FFC3"/>
<path d="M64.4018 15.4976C63.7444 12.3115 61.9995 9.45323 59.466 7.4127C56.9325 5.37217 53.7683 4.27643 50.5157 4.31328H14.0166C10.2991 4.31328 6.73397 5.79019 4.10535 8.4191C1.47674 11.048 0 14.6136 0 18.3314C0 22.0493 1.47674 25.6149 4.10535 28.2438C6.73397 30.8727 10.2991 32.3496 14.0166 32.3496H50.5308C50.5696 32.3496 50.6084 32.3496 50.6472 32.3496C51.6086 32.3492 52.5674 32.2506 53.5087 32.0552C57.1486 31.3028 60.3405 29.1353 62.3827 26.0294C64.4248 22.9236 65.1499 19.1337 64.3985 15.4933L64.4018 15.4976ZM59.6458 10.5772L55.1562 17.4062L52.4521 15.6281L57.1962 8.42276C58.1078 9.02503 58.9321 9.75 59.6458 10.5772ZM51.9766 6.54325C53.1138 6.66746 54.2265 6.95812 55.2791 7.4059L50.6504 14.443L47.9485 12.6659L51.9766 6.54325ZM48.1339 20.5765C48.0928 20.5276 48.0473 20.4825 47.9981 20.4417C47.9408 20.412 47.8809 20.3878 47.8191 20.3695L47.6132 15.0275L53.1206 18.6549L48.1339 20.5765ZM2.15639 18.3314C2.15639 15.9855 2.85198 13.6922 4.15519 11.7415C5.4584 9.79092 7.31071 8.27059 9.47787 7.37282C11.645 6.47505 14.0297 6.24016 16.3304 6.69784C18.631 7.15551 20.7443 8.28521 22.403 9.94408C24.0616 11.6029 25.1912 13.7165 25.6488 16.0174C26.1065 18.3183 25.8716 20.7032 24.9739 22.8707C24.0763 25.0381 22.5561 26.8906 20.6057 28.1939C18.6553 29.4973 16.3623 30.193 14.0166 30.193C10.8722 30.1893 7.85766 28.9384 5.63425 26.7147C3.41084 24.491 2.1601 21.4762 2.15639 18.3314ZM21.4561 30.193C23.4696 28.9371 25.1302 27.1892 26.2815 25.114C27.4329 23.0388 28.037 20.7047 28.037 18.3314C28.037 15.9582 27.4329 13.624 26.2815 11.5489C25.1302 9.47368 23.4696 7.72581 21.4561 6.46992H43.2195C41.2325 7.71761 39.5906 9.44443 38.4446 11.4919C37.2986 13.5394 36.6851 15.8419 36.6604 18.1882C36.6357 20.5346 37.2006 22.8495 38.3033 24.9207C39.406 26.9918 41.0112 28.7528 42.9715 30.042C43.0535 30.0959 43.1376 30.1412 43.2195 30.193H21.4561ZM60.5839 24.8499C59.7316 26.1543 58.629 27.2765 57.3399 28.1517C56.0508 29.0268 54.6009 29.6375 53.0742 29.9482C52.2849 30.1106 51.4811 30.1926 50.6752 30.193H50.6515C47.7167 30.1868 44.8884 29.0926 42.7135 27.122C40.5385 25.1513 39.1713 22.4442 38.8763 19.5239C38.5813 16.6036 39.3793 13.6777 41.1161 11.3117C42.853 8.94578 45.4052 7.30787 48.2795 6.7147C48.6515 6.63706 49.0245 6.58314 49.3965 6.54217L45.5538 12.3813C45.5473 12.391 45.5473 12.4028 45.5419 12.4125C45.4766 12.5165 45.4299 12.6311 45.4039 12.7511C45.4039 12.7781 45.4039 12.804 45.3964 12.8309C45.3849 12.8917 45.3788 12.9534 45.3781 13.0153L45.722 21.9395L44.7257 23.4491C44.6451 23.5673 44.5887 23.7004 44.56 23.8406C44.5312 23.9808 44.5307 24.1253 44.5584 24.2657C44.5861 24.4061 44.6414 24.5396 44.7212 24.6584C44.801 24.7772 44.9036 24.879 45.0231 24.9577C45.1426 25.0364 45.2766 25.0905 45.4172 25.117C45.5579 25.1434 45.7024 25.1415 45.8423 25.1115C45.9822 25.0815 46.1147 25.0239 46.2322 24.9422C46.3496 24.8604 46.4496 24.7561 46.5263 24.6353L47.5226 23.1257L55.8506 19.9058C55.9076 19.8807 55.9621 19.8504 56.0134 19.8152C56.036 19.8012 56.0608 19.7926 56.0824 19.7764C56.1825 19.7051 56.2696 19.6172 56.3401 19.5165C56.3466 19.5079 56.3573 19.5025 56.3627 19.4928L60.9806 12.4697C62.0631 14.3691 62.5987 16.531 62.5283 18.7161C62.4579 20.9012 61.7842 23.0241 60.5817 24.8499H60.5839Z" fill="#02FFC3"/>
</svg>
