<svg width="48" height="62" viewBox="0 0 48 62" fill="none" xmlns="http://www.w3.org/2000/svg">
<path d="M27.8248 54.4549C29.9074 54.4549 31.5953 56.1438 31.5953 58.2275C31.5953 60.3112 29.9074 62 27.8248 62C25.7452 62 24.0573 60.3112 24.0573 58.2275C24.0573 56.1438 25.7452 54.4549 27.8248 54.4549ZM3.53431 58.2275C3.53431 60.3112 5.21072 62 7.29036 62C9.37293 62 11.0609 60.3112 11.0609 58.2275C11.0609 56.1438 9.37293 54.4549 7.29036 54.4549C5.21072 54.4549 3.53431 56.1438 3.53431 58.2275ZM32.1008 43.5663L29.7626 51.6702C29.5474 52.3881 28.8805 52.8992 28.1209 52.8992H7.98827H5.83081C5.15751 52.8992 4.61176 52.353 4.61176 51.6794V49.4828V42.3459L0.0662676 26.5097C-0.191331 25.5975 0.323462 24.66 1.23933 24.3897C2.1383 24.1448 3.08382 24.66 3.34142 25.5721C3.34142 25.5721 7.2245 39.0731 7.8745 41.345H7.98827V41.3915H29.2098L35.7222 20.4877C35.8825 19.9767 36.2625 19.584 36.7604 19.3939L45.6914 16.0155C46.5693 15.6904 47.5486 16.1296 47.8862 17.008C47.9662 17.2106 48 17.4218 48 17.6161C48 18.3001 47.5738 18.9547 46.8941 19.2123C46.8941 19.2123 40.0315 21.801 38.7273 22.2867C38.2797 23.7521 32.236 43.1483 32.1008 43.5663ZM28.1967 44.8036H7.98827V49.4828H26.8336C27.1287 48.4861 27.7367 46.4126 28.1967 44.8036ZM14.2094 31.3491C14.2094 31.505 14.345 31.6407 14.5008 31.6407H22.4557C22.6116 31.6407 22.74 31.505 22.74 31.3491V30.9666C22.74 30.8107 22.6116 30.69 22.4557 30.69H14.5008C14.345 30.69 14.2094 30.8107 14.2094 30.9666V31.3491ZM14.5008 29.7393H22.4557C22.6116 29.7393 22.74 29.6108 22.74 29.4549V29.0724C22.74 28.9165 22.6116 28.7887 22.4557 28.7887H14.5008C14.345 28.7887 14.2094 28.9165 14.2094 29.0724V29.4549C14.2094 29.6108 14.345 29.7393 14.5008 29.7393ZM14.18 32.6957C14.9961 34.2732 16.642 35.3719 18.5399 35.3719C20.4378 35.3719 22.0837 34.2629 22.8999 32.6854C22.9196 32.6472 22.892 32.5707 22.8491 32.5707H14.2307C14.1877 32.5707 14.1601 32.6575 14.18 32.6957ZM22.9 27.528C22.0703 27.528 21.2533 27.5063 20.6342 27.5063C20.2878 27.5063 19.9415 27.4912 19.5952 27.4914C19.249 27.4917 18.9028 27.528 18.5567 27.528H18.5389C18.1977 27.528 17.8566 27.528 17.5155 27.528C17.1702 27.528 16.825 27.528 16.4798 27.528C15.8501 27.528 15.0195 27.528 14.1783 27.528H14.1746C14.0645 27.528 14.0343 27.4753 13.9806 27.4071C13.4196 26.6935 12.8452 25.9374 12.2898 25.2393C11.8517 24.6886 11.3987 24.1192 10.9553 23.5578C10.4096 22.8668 9.9607 22.1168 9.62105 21.3286C9.29487 20.5715 9.06758 19.7753 8.94549 18.962C8.70977 17.3916 8.86974 15.7614 9.40813 14.2477C9.94769 12.7308 10.8559 11.3625 12.0346 10.291C12.645 9.73602 13.3264 9.26095 14.0599 8.87909C14.8236 8.48152 15.648 8.18291 16.5102 7.99152C17.1717 7.84479 17.851 7.77032 18.5292 7.77032C20.6816 7.77032 22.8186 8.51967 24.5464 9.88023C25.4063 10.5574 26.1374 11.3611 26.7195 12.2692C27.3229 13.2105 27.7486 14.2405 27.985 15.3264C28.3179 16.8564 28.3244 18.3341 28.0041 19.7145C27.6835 21.0963 27.0266 22.4246 26.0518 23.6541C25.7303 24.0596 25.4082 24.4731 25.0862 24.8782C24.4386 25.6929 23.769 26.552 23.1146 27.3842C23.0393 27.48 23 27.528 22.9039 27.528H22.9ZM22.6311 25.9487C22.9353 25.5615 23.2499 25.1246 23.5541 24.7466C24.0943 24.0757 24.6529 23.3818 25.1782 22.678C27.1869 19.9863 27.5401 17.0992 26.2278 14.0942C24.8693 10.9833 21.9349 9.05221 18.5698 9.05221C16.748 9.05221 14.99 9.63989 13.4859 10.7461C9.9028 13.3815 9.04307 18.6707 11.6084 22.2891C12.1814 23.0973 12.8124 23.8883 13.4226 24.6419C13.7714 25.0727 14.132 25.5417 14.4764 25.9858C14.6581 26.2202 14.8942 26.2673 15.0211 26.2673H15.0274C15.5476 26.2673 16.1121 26.2673 16.8037 26.2673C17.2059 26.2673 17.6082 26.2673 18.0105 26.2673H18.5352C18.8128 26.2673 19.0904 26.2673 19.368 26.2673C19.6455 26.2673 19.923 26.2673 20.2004 26.2673C20.7044 26.2673 21.3692 26.2673 22.0424 26.2673H22.0476C22.2061 26.2673 22.4392 26.1929 22.6311 25.9487ZM18.3198 4.80832V0.561802C18.3198 0.252039 18.1544 0 17.8447 0C17.5351 0 17.3697 0.252039 17.3697 0.561802V4.80832C17.3697 5.11808 17.5351 5.37012 17.8447 5.37012C18.1544 5.37012 18.3198 5.11808 18.3198 4.80832ZM11.7482 7.35954C11.8458 7.35954 11.9426 7.33345 12.028 7.28405C12.2961 7.12924 12.3884 6.78492 12.2335 6.51663L10.1114 2.83903C10.0114 2.66571 9.82474 2.55798 9.62428 2.55798C9.52665 2.55798 9.42987 2.58407 9.34444 2.63342C9.0763 2.78832 8.98407 3.1326 9.13894 3.40089L11.261 7.07843C11.361 7.25186 11.5476 7.35954 11.7482 7.35954ZM7.40096 12.1667C7.60142 12.1667 7.78806 12.059 7.88811 11.8856C7.9631 11.7557 7.98302 11.6043 7.94419 11.4593C7.90541 11.3144 7.81247 11.1932 7.68261 11.1182L4.0071 8.99494C3.92167 8.94559 3.82489 8.9195 3.72721 8.9195C3.52675 8.9195 3.34005 9.02723 3.24 9.20055C3.08523 9.46884 3.17742 9.81317 3.44555 9.96802L7.12107 12.0913C7.2065 12.1406 7.30332 12.1667 7.40096 12.1667ZM1.79668 17.422C1.48709 17.422 1.23519 17.5876 1.23519 17.8973C1.23519 18.2071 1.48709 18.3727 1.79668 18.3727H6.04085C6.35049 18.3727 6.60239 18.2071 6.60239 17.8973C6.60239 17.5876 6.35049 17.422 6.04085 17.422H1.79668ZM31.039 17.112H35.2831C35.5927 17.112 35.8446 16.9464 35.8446 16.6367C35.8446 16.3269 35.5927 16.1614 35.2831 16.1614H31.039C30.7293 16.1614 30.4775 16.3269 30.4775 16.6367C30.4775 16.9464 30.7293 17.112 31.039 17.112ZM33.2687 8.54006C33.3076 8.39509 33.2876 8.24372 33.2126 8.11373C33.1126 7.94036 32.9259 7.83263 32.7255 7.83263C32.6278 7.83263 32.531 7.85877 32.4456 7.90807L28.7701 10.0313C28.502 10.1862 28.4097 10.5305 28.5646 10.7988C28.6646 10.9721 28.8512 11.0799 29.0517 11.0799C29.1494 11.0799 29.2462 11.0537 29.3316 11.0044L33.0071 8.8812C33.137 8.80617 33.2299 8.68497 33.2687 8.54006ZM24.2454 6.73204C24.4459 6.73204 24.6325 6.62431 24.7326 6.45098L26.8547 2.77339C27.0094 2.50515 26.9172 2.16082 26.6491 2.00597C26.5637 1.95662 26.4669 1.93048 26.3692 1.93048C26.1688 1.93048 25.9821 2.03821 25.8821 2.21158L23.7601 5.88918C23.6052 6.15742 23.6974 6.5017 23.9656 6.6566C24.0509 6.70595 24.1478 6.73204 24.2454 6.73204ZM17.9346 14.26C18.0946 14.26 18.2795 14.2716 18.4868 14.2716C18.9387 14.2716 19.3086 14.4078 19.5953 14.6079C19.8263 14.8288 20.0187 15.161 20.1739 15.5671L20.2152 15.5606L21.9084 14.9307C21.5357 13.7606 20.8199 13.0572 19.6444 12.8145C19.6038 12.8057 19.5798 12.8005 19.5798 12.7931V11.4287H17.6795V12.7992C17.6795 12.8053 17.5838 12.8114 17.552 12.8189C17.201 12.8921 16.8751 13.0005 16.6074 13.1443C16.3147 13.3008 16.0644 13.4988 15.8712 13.7381C15.4363 14.2764 15.2149 14.8824 15.2149 15.5556C15.2149 16.068 15.3342 16.5195 15.5767 16.9059C15.8207 17.2916 16.1368 17.5913 16.5263 17.8048C16.9166 18.0211 17.4575 18.2373 18.1499 18.457C18.9203 18.7058 19.4179 18.9111 19.6422 19.0738C19.8651 19.2345 19.9762 19.4738 19.9762 19.7884C19.9762 20.0914 19.865 20.3842 19.6421 20.5998C19.516 20.7205 19.35 20.894 19.1447 20.894C18.9848 20.894 18.7998 20.9211 18.5925 20.9211C18.1399 20.9211 17.7707 20.8042 17.484 20.6042C17.253 20.3832 17.0606 20.0607 16.9055 19.6546L16.8642 19.6659L15.171 20.2982C15.5436 21.4683 16.3494 22.173 17.5249 22.4156C17.5655 22.4244 17.6795 22.4309 17.6795 22.4383V23.746H19.5798V22.4322C19.5798 22.4261 19.5854 22.42 19.6174 22.4125C19.9683 22.3393 20.2492 22.2308 20.5169 22.0871C20.8096 21.9306 21.0375 21.7326 21.2306 21.4933C21.6649 20.955 21.8757 20.3489 21.8757 19.6758C21.8757 19.1633 21.7507 18.7118 21.5075 18.3254C21.2643 17.9397 20.9453 17.6401 20.5558 17.4266C20.1655 17.2103 19.6233 16.994 18.9308 16.7744C18.1605 16.5256 17.6621 16.3202 17.4378 16.1575C17.2148 15.9969 17.1028 15.7576 17.1028 15.443C17.1028 15.14 17.2145 14.8085 17.4374 14.5929C17.5634 14.4722 17.7293 14.5907 17.9346 14.26Z" fill="#01FFC3"/>
</svg>
