<svg width="60" height="57" viewBox="0 0 60 57" fill="none" xmlns="http://www.w3.org/2000/svg">
<path d="M55.9726 0H4.02669C1.80722 0 0 1.80381 0 4.0191V42.8796C0 45.0949 1.80722 46.8987 4.02669 46.8987H23.8555V54.8354H18.4338C17.8352 54.8354 17.3495 55.3202 17.3495 55.9177C17.3495 56.5152 17.8352 57 18.4338 57H41.5662C42.1648 57 42.6505 56.5152 42.6505 55.9177C42.6505 55.3202 42.1648 54.8354 41.5662 54.8354H36.1445V46.8987H55.9733C58.1928 46.8987 60 45.0949 60 42.8796V4.0191C60 1.80381 58.1921 0 55.9726 0ZM55.9726 44.7344H4.02669C2.99882 44.7344 2.16866 43.9058 2.16866 42.8799V36.7977H11.2047C11.8034 36.7977 12.2891 36.3129 12.2891 35.7154C12.2891 35.1179 11.8034 34.6331 11.2047 34.6331H2.16866V4.01888C2.16866 2.99295 2.99882 2.16435 4.02669 2.16435H55.9726C57.0005 2.16435 57.8306 2.99295 57.8306 4.01888V34.6331H48.7945C48.1959 34.6331 47.7102 35.1179 47.7102 35.7154C47.7102 36.3129 48.1959 36.7977 48.7945 36.7977H57.8306V42.8799C57.8306 43.9058 57.0005 44.7344 55.9726 44.7344ZM41.4953 8.1395C40.7357 7.38132 39.5074 7.38132 38.7478 8.1395L30.2112 16.66L22.2935 8.76001C21.7598 8.22732 20.8844 8.22732 20.3479 8.76001L15.9965 13.1032C15.4628 13.6359 15.4628 14.5096 15.9965 15.0451L17.4055 16.4515L18.3826 15.4763C18.809 15.0507 19.4952 15.0507 19.9159 15.4763C20.3338 15.9019 20.3423 16.5868 19.9159 17.0067L18.9388 17.9819L21.0199 20.0591L21.997 19.0839C22.4234 18.6583 23.1096 18.6583 23.5303 19.0839C23.9482 19.5095 23.9567 20.1944 23.5303 20.6143L22.5533 21.5895L23.9115 22.9452L16.2221 30.6229C16.0188 30.8259 15.9031 31.0993 15.9031 31.3867V35.7159C15.9031 36.3134 16.3887 36.7982 16.9874 36.7982H21.3247C21.6127 36.7982 21.8895 36.6826 22.09 36.4797L29.7872 28.7969L31.1455 30.1526L32.1225 29.1774C32.5489 28.7518 33.2351 28.7518 33.6558 29.1774C34.0738 29.6029 34.0822 30.2879 33.6558 30.7078L32.6788 31.683L34.7599 33.7602L35.737 32.785C36.1633 32.3594 36.8496 32.3594 37.2703 32.785C37.6882 33.2106 37.6967 33.8955 37.2703 34.3154L36.2932 35.2906L37.7023 36.697C37.9705 36.9647 38.3235 37.1 38.6708 37.1C39.0181 37.1 39.3711 36.9619 39.6393 36.697L43.9907 32.3538C44.5244 31.8211 44.5244 30.9474 43.9907 30.4119L36.0787 22.5199L44.6153 13.9994C45.3749 13.2412 45.3749 12.0152 44.6153 11.257L41.4953 8.1395ZM20.8786 34.6331H18.0718V31.8344L35.7825 14.1571L38.5865 16.9558L20.8786 34.6331Z" fill="#02FFC3"/>
</svg>
