<svg width="54" height="58" viewBox="0 0 54 58" fill="none" xmlns="http://www.w3.org/2000/svg">
<path fill-rule="evenodd" clip-rule="evenodd" d="M25.0017 41.6697L25.6397 42.3087C25.9953 42.6675 25.9953 43.2516 25.6397 43.6104L23.7231 45.5276C23.3675 45.8864 22.7845 45.8864 22.4262 45.5276L21.0326 44.129C19.754 44.9933 18.2976 45.6114 16.7288 45.9178V47.8926C16.7288 48.3981 16.3183 48.8093 15.8111 48.8093H13.1049C12.6002 48.8093 12.1871 48.3981 12.1871 47.8926V45.9178C10.6183 45.6114 9.16189 44.9933 7.88331 44.1316L6.48967 45.5276C6.13146 45.8864 5.54838 45.8864 5.19278 45.5276L3.27621 43.6104C2.92061 43.2516 2.92061 42.6675 3.27621 42.3087L4.67246 40.9128C3.81223 39.632 3.19516 38.1732 2.88924 36.6017H0.917758C0.413122 36.6017 0 36.1905 0 35.6824V32.9717C0 32.4662 0.413122 32.0524 0.917758 32.0524H2.88662C3.19516 30.4809 3.81223 29.0221 4.67246 27.7414L3.27621 26.3454C2.92061 25.9866 2.92061 25.4051 3.27621 25.0463L5.19278 23.1265C5.54838 22.7703 6.13146 22.7703 6.48967 23.1265L7.88331 24.5251C8.25721 24.2737 8.64418 24.0432 9.04423 23.8363C9.02854 24.7425 9.08345 25.6435 9.20634 26.5366C6.71454 28.2259 5.07512 31.0859 5.07512 34.3284C5.07512 39.5194 9.27432 43.7283 14.4593 43.7283C17.0949 43.7283 19.4769 42.6387 21.1816 40.8839C22.2667 41.2375 23.3937 41.4863 24.5468 41.6225C24.6984 41.6409 24.8501 41.6566 25.0017 41.6697ZM16.8674 27.2621L18.2009 27.1311C18.2819 27.5764 18.4414 27.9037 18.6846 28.1133C18.9304 28.3228 19.2572 28.4276 19.673 28.4276C20.1096 28.4276 20.4391 28.3333 20.6613 28.1473C20.8836 27.9614 20.996 27.744 20.996 27.4952C20.996 27.3328 20.9489 27.1992 20.8548 27.084C20.7633 26.974 20.5986 26.8744 20.3659 26.7933C20.2064 26.7356 19.8455 26.6387 19.2781 26.4973C18.5486 26.314 18.0388 26.0887 17.7433 25.8242C17.3302 25.4497 17.1236 24.9939 17.1236 24.457C17.1236 24.1113 17.2204 23.7865 17.4139 23.4854C17.61 23.1842 17.8897 22.9563 18.2558 22.7965C18.6245 22.6394 19.0637 22.5608 19.5841 22.5608C20.4286 22.5608 21.0666 22.7494 21.4928 23.1265C21.9216 23.5037 22.1439 24.0039 22.1674 24.6325L20.7973 24.6797C20.7398 24.3313 20.6143 24.0799 20.4234 23.9254C20.2351 23.7735 19.9475 23.6975 19.5658 23.6975C19.1736 23.6975 18.865 23.7787 18.6428 23.9437C18.499 24.0485 18.4258 24.1873 18.4258 24.3654C18.4258 24.5251 18.4937 24.6639 18.6297 24.7766C18.8023 24.9232 19.218 25.0751 19.8821 25.2323C20.5437 25.3894 21.0326 25.5518 21.349 25.7194C21.668 25.8871 21.9164 26.1175 22.0968 26.4083C22.2746 26.699 22.3661 27.0604 22.3661 27.4873C22.3661 27.8749 22.2589 28.239 22.0419 28.5769C21.8275 28.9173 21.5242 29.1688 21.1293 29.3338C20.7371 29.4988 20.2456 29.58 19.6573 29.58C18.8023 29.58 18.146 29.3835 17.6884 28.9881C17.2308 28.5926 16.9589 28.019 16.8674 27.2621ZM35.5128 41.172L36.9875 40.0065L34.8356 37.2696C31.7633 39.2051 28.2099 39.9332 24.7952 39.5273C20.8626 39.0611 17.1079 37.0915 14.4645 33.7286C11.821 30.3683 10.7882 26.2511 11.2536 22.312C11.7217 18.3755 13.6879 14.6145 17.0426 11.9666C17.5132 11.5973 17.9943 11.2568 18.4911 10.9504C18.6245 11.9326 18.9225 12.865 19.3618 13.7109C19.1605 13.8524 18.9592 13.999 18.7631 14.1535C16.0124 16.3274 14.3991 19.4101 14.0148 22.642C13.633 25.8713 14.4802 29.2473 16.6504 32.0052C18.818 34.7631 21.8981 36.3791 25.122 36.7615C28.3485 37.1439 31.7189 36.2953 34.4721 34.1241C37.2228 31.9502 38.8361 28.8676 39.2178 25.6356C39.6022 22.4063 38.755 19.0303 36.5848 16.2724C35.8998 15.4002 35.1206 14.6407 34.276 14.0016C34.7493 13.1688 35.084 12.2521 35.2539 11.2752C36.556 12.1552 37.7457 13.2473 38.7707 14.549C41.4142 17.9093 42.447 22.0265 41.9815 25.9656C41.5763 29.3862 40.0362 32.6757 37.4398 35.2162L39.5917 37.9532L41.0664 36.7877L53.2456 52.2717C54.4484 53.8013 54.1843 56.0406 52.6573 57.2454H52.6547C51.1277 58.4502 48.8948 58.183 47.692 56.6535L35.5128 41.172ZM29.6716 14.3395V17.7155C29.6716 18.2262 29.2558 18.6427 28.746 18.6427H25.0488C24.5389 18.6427 24.1232 18.2262 24.1232 17.7155V14.3395C21.396 13.2395 19.4716 10.5628 19.4716 7.43821C19.4716 3.33148 22.7975 0 26.8974 0C30.9998 0 34.3231 3.33148 34.3231 7.43821C34.3231 10.5628 32.3987 13.2395 29.6716 14.3395ZM25.6841 20.9972H28.1106C28.3721 20.9972 28.5865 20.7825 28.5865 20.5205V19.5017H25.2083V20.5205C25.2083 20.7825 25.4227 20.9972 25.6841 20.9972ZM29.0414 7.4094L27.3994 6.30676L31.5018 3.33148L23.9401 6.20462L25.6475 7.26535L22.2955 10.3297L29.0414 7.4094ZM23.527 29.4569V22.6839H28.5342V23.5901H24.9677V23.8285H24.8971V25.3318H28.2779V26.479H24.8971V28.3123H28.6649V29.4569H23.527ZM29.5434 26.1123C29.5434 25.4209 29.648 24.842 29.8546 24.3706C30.0062 24.0249 30.218 23.7158 30.4821 23.4408C30.7488 23.1658 31.039 22.9642 31.3554 22.8306C31.779 22.6499 32.2653 22.5608 32.817 22.5608C33.8132 22.5608 34.6107 22.8725 35.2095 23.4906C35.8082 24.1139 36.1063 24.9756 36.1063 26.0809C36.1063 27.1756 35.8109 28.0347 35.2173 28.6528C34.6238 29.2709 33.8289 29.58 32.8353 29.58C31.8287 29.58 31.0286 29.2735 30.435 28.658C29.8415 28.0426 29.5434 27.194 29.5434 26.1123ZM30.9501 26.0652C30.9501 26.8352 31.1279 27.4166 31.4835 27.8147C31.8365 28.2102 32.2863 28.4066 32.8327 28.4066C33.3792 28.4066 33.8237 28.2102 34.1767 27.8173C34.5244 27.4245 34.6996 26.8352 34.6996 26.0468C34.6996 25.2689 34.5297 24.6901 34.1898 24.3077C33.8472 23.9254 33.3975 23.7342 32.8327 23.7342C32.2679 23.7342 31.813 23.928 31.4679 24.3156C31.1227 24.7032 30.9501 25.2847 30.9501 26.0652Z" fill="#02FFC3"/>
</svg>
