<svg width="52" height="59" viewBox="0 0 52 59" fill="none" xmlns="http://www.w3.org/2000/svg">
<path fill-rule="evenodd" clip-rule="evenodd" d="M34.8416 11.2979C34.8732 11.32 34.9072 11.3372 34.9436 11.3544L35.3834 11.6002C35.6579 11.7526 36.0029 11.7625 36.2969 11.5929C36.8216 11.2929 37.4193 11.0422 37.9975 10.8775C38.3012 10.7914 38.5538 10.5555 38.6486 10.226L39.2487 8.12415H40.8448L41.4352 10.1916C41.5153 10.5137 41.7583 10.7816 42.096 10.8775C42.6013 11.0201 43.3107 11.3003 43.7602 11.5708C44.0396 11.7478 44.4015 11.7699 44.7101 11.5978L46.605 10.5383L47.7299 11.6765L46.6828 13.594C46.5322 13.8742 46.5224 14.2209 46.6901 14.5184C46.9865 15.0494 47.2343 15.6541 47.397 16.2417C47.4821 16.5489 47.7153 16.8046 48.0409 16.9005L50.118 17.5077V19.1228L48.0748 19.7202C47.7566 19.8013 47.4918 20.0472 47.397 20.3889C47.2561 20.9002 46.9792 21.618 46.7119 22.0728C46.537 22.3556 46.5151 22.7218 46.6852 23.0365L47.7323 24.954L46.6074 26.0922L44.7124 25.0327C44.4379 24.8802 44.0929 24.8704 43.7989 25.04C43.2742 25.34 42.6765 25.5907 42.0983 25.7554C41.7946 25.8414 41.542 26.0774 41.4472 26.4069L40.8471 28.5087H39.251L38.6606 26.4412C38.5805 26.1192 38.3375 25.8512 37.9998 25.7554C37.4945 25.6128 36.7851 25.3326 36.3356 25.0621C36.0563 24.8851 35.6943 24.863 35.3833 25.0351L34.9436 25.2809C34.9096 25.2981 34.8756 25.3178 34.8416 25.3375L33.4883 26.0922L32.3635 24.9539L33.4106 23.0364C33.5612 22.7562 33.5709 22.4095 33.4033 22.1121C33.2551 21.8466 33.1191 21.5639 33 21.2713C32.8786 20.9788 32.7789 20.6838 32.6988 20.3913C32.6137 20.084 32.3805 19.8283 32.0549 19.7324L29.9778 19.1252V17.5101L32.021 16.9127C32.3392 16.8316 32.604 16.5858 32.6988 16.2441C32.8397 15.7327 33.1166 15.0149 33.3839 14.5601C33.5588 14.2774 33.5807 13.9111 33.4106 13.5965L32.3635 11.6789L33.4884 10.5407L34.8416 11.2979ZM23.4035 21.7901C23.9234 21.7901 24.3437 21.3648 24.3437 20.8387C24.3437 20.3127 23.9234 19.8874 23.4035 19.8874L12.7528 19.8849C12.2329 19.8849 11.8126 20.3102 11.8126 20.8363C11.8126 21.3624 12.2329 21.7876 12.7528 21.7876L23.4035 21.7901ZM9.30042 21.7901C9.82032 21.7901 10.2406 21.3648 10.2406 20.8387C10.2406 20.3127 9.82031 19.8874 9.30042 19.8874H7.72368C7.20377 19.8874 6.78349 20.3127 6.78349 20.8387C6.78349 21.3648 7.20378 21.7901 7.72368 21.7901H9.30042ZM23.4035 16.8931C23.9234 16.8931 24.3437 16.4678 24.3437 15.9418C24.3437 15.4157 23.9234 14.9904 23.4035 14.9904H12.7528C12.2329 14.9904 11.8126 15.4157 11.8126 15.9418C11.8126 16.4679 12.2329 16.8931 12.7528 16.8931H23.4035ZM9.30042 16.8931C9.82032 16.8931 10.2406 16.4678 10.2406 15.9418C10.2406 15.4157 9.82031 14.9904 9.30042 14.9904H7.72368C7.20377 14.9904 6.78349 15.4157 6.78349 15.9418C6.78349 16.4679 7.20378 16.8931 7.72368 16.8931H9.30042ZM12.1623 32.9241C12.5559 32.5824 12.6021 31.9851 12.2644 31.5844C11.9267 31.1861 11.3363 31.1394 10.9427 31.4811L4.41238 37.1107C3.9678 37.4966 3.98237 38.1874 4.42453 38.5636L10.9425 44.1833C11.336 44.525 11.9288 44.4783 12.2641 44.0801C12.6018 43.6818 12.5556 43.082 12.162 42.7403L6.46987 37.831L12.1623 32.9241ZM25.3418 31.4811C24.9483 31.1394 24.3555 31.1861 24.0202 31.5843C23.6825 31.9826 23.7287 32.5824 24.1223 32.9241L29.8144 37.8334L24.1223 42.7427C23.7287 43.0844 23.6825 43.6818 24.0202 44.0825C24.3579 44.4808 24.9483 44.5275 25.3418 44.1858L31.9742 38.4505C32.3119 38.0522 32.2657 37.4524 31.8722 37.1107L25.3418 31.4811ZM19.4431 44.6109C19.6108 45.1074 20.1428 45.3729 20.6336 45.2058C21.1243 45.0362 21.3867 44.4978 21.2215 44.0012L16.8436 31.0558C16.676 30.5592 16.1439 30.2937 15.6532 30.4609C15.1624 30.6305 14.9001 31.1689 15.0652 31.6655L19.4431 44.6109ZM35.0401 18.3167C35.0401 21.1167 37.2825 23.3858 40.0496 23.3858C42.8168 23.3858 45.0592 21.1167 45.0592 18.3167C45.0592 15.5167 42.8168 13.2476 40.0496 13.2476C37.2825 13.2501 35.0401 15.5191 35.0401 18.3167ZM37.8364 20.5562C39.0584 21.7927 41.0384 21.7927 42.2605 20.5562C44.2259 18.5674 42.8265 15.1528 40.0472 15.1528C37.2704 15.1528 35.871 18.5675 37.8364 20.5562ZM36.2864 9.50388V4.33894C36.2864 1.94942 34.3574 0 31.9985 0H4.28796C1.92652 0 0 1.95194 0 4.33894V54.6611C0 57.0506 1.92658 59 4.28796 59H31.9985C34.3599 59 36.2864 57.0481 36.2864 54.6611V27.1328L36.9909 27.4278L37.6469 29.7263C37.766 30.1417 38.1401 30.4121 38.5458 30.4097V30.4121H41.5486C42.0053 30.4121 42.3868 30.0827 42.4718 29.6451L43.1059 27.4253L44.2501 26.9459L46.3224 28.1037C46.6965 28.3127 47.1508 28.234 47.4375 27.9439H47.44L49.5633 25.7953C49.8816 25.4733 49.9253 24.9816 49.6921 24.6129L48.577 22.5675L49.0507 21.4097L51.3222 20.7459C51.7328 20.6255 51.9976 20.2469 51.9976 19.8364H52V16.7979C52 16.3357 51.6744 15.9497 51.242 15.8637L49.0506 15.2221L48.5769 14.0642L49.7211 11.9673C49.9276 11.5887 49.8499 11.129 49.5632 10.8389H49.5657L47.4423 8.69029C47.124 8.36825 46.6381 8.32647 46.2737 8.56001L44.2549 9.6884L43.1106 9.20902L42.4546 6.91051C42.3356 6.49504 41.9615 6.22711 41.5558 6.22711V6.22466H38.553C38.0962 6.22466 37.7148 6.55408 37.6298 6.99169L36.9957 9.20908L36.2864 9.50388ZM34.406 27.752L33.8278 28.0741C33.4634 28.3076 32.9775 28.2634 32.6593 27.9438L30.5359 25.7952C30.2492 25.5051 30.1715 25.0454 30.378 24.6668L31.5222 22.5698L31.0485 21.412L28.8547 20.7704C28.4223 20.6843 28.0967 20.2984 28.0967 19.8362V16.7977H28.0991C28.0991 16.3872 28.3664 16.0061 28.7745 15.8881L31.046 15.2244L31.5198 14.0665L30.4046 12.0212C30.1738 11.6525 30.2176 11.1608 30.5334 10.8387L32.6567 8.69014C32.9434 8.40006 33.3977 8.32139 33.7719 8.53035L34.4035 8.88189V4.33641C34.4035 2.99907 33.3176 1.90019 31.9959 1.90019L4.28792 1.90265C2.9663 1.90265 1.88033 3.00153 1.88033 4.33886V54.661C1.88033 55.9983 2.9663 57.0972 4.28792 57.0972H31.9984C33.32 57.0972 34.406 55.9983 34.406 54.661L34.4036 27.752L34.406 27.752ZM16.0999 8.91105C15.3686 8.91105 14.7054 8.60867 14.2244 8.12193C12.5456 6.42323 13.7579 3.53711 16.0999 3.53711H20.1838C20.9151 3.53711 21.5783 3.83948 22.0593 4.32623C23.738 6.02492 22.5258 8.91105 20.1838 8.91105H16.0999ZM20.1838 7.00587H16.0999C15.427 7.00587 15.0576 6.1725 15.5533 5.67099C15.6942 5.5284 15.8885 5.4399 16.0999 5.4399H20.1838C20.8567 5.4399 21.226 6.27326 20.7304 6.77478C20.5895 6.91736 20.3976 7.00587 20.1838 7.00587ZM11.4232 52.6646H24.8626C25.3825 52.6646 25.8028 53.0899 25.8028 53.616C25.8028 54.1421 25.3825 54.5674 24.8626 54.5674H11.4232C10.9033 54.5674 10.483 54.1421 10.483 53.616C10.483 53.0899 10.9033 52.6646 11.4232 52.6646Z" fill="#02FFC3"/>
</svg>
