<svg width="55" height="50" viewBox="0 0 55 50" fill="none" xmlns="http://www.w3.org/2000/svg">
<path d="M47.9658 50H7.03657C3.15614 50 0.00239888 46.8366 0.00239888 42.9495L0 7.05046C0 3.16105 3.15614 0 7.03417 0H47.9658C51.8463 0 55 3.16345 55 7.05046V42.9471C55 46.8365 51.8439 49.9975 47.9658 49.9975L47.9658 50ZM7.03657 3.84615C5.27382 3.84615 3.83967 5.28363 3.83967 7.05046V42.9471C3.83967 44.7139 5.27382 46.1514 7.03657 46.1514H47.9682C49.731 46.1514 51.1651 44.7139 51.1651 42.9471V7.05046C51.1651 5.28363 49.731 3.84615 47.9682 3.84615H7.03657ZM47.3279 12.1803C47.3279 11.1178 46.4693 10.2572 45.4092 10.2572H9.59311C8.53304 10.2572 7.67448 11.1178 7.67448 12.1803C7.67448 13.2428 8.53304 14.1034 9.59311 14.1034H45.4068C46.4668 14.1034 47.3254 13.2428 47.3254 12.1803H47.3279ZM38.3966 37.3126L42.3993 33.3006C44.1453 31.5506 44.1453 28.7069 42.3993 26.9548L38.3966 22.9428C37.6459 22.1903 36.4324 22.1903 35.6841 22.9428C34.9358 23.6952 34.9334 24.9115 35.6841 25.6615L39.6868 29.6735C39.8499 29.837 39.8739 30.0269 39.8739 30.1279C39.8739 30.2288 39.8499 30.4187 39.6868 30.5822L35.6841 34.5942C34.9334 35.3466 34.9334 36.5629 35.6841 37.313C36.0582 37.688 36.5474 37.8755 37.0415 37.8755C37.5331 37.8755 38.0224 37.688 38.3989 37.313L38.3966 37.3126ZM19.3207 37.3126C20.0714 36.5602 20.0714 35.3439 19.3207 34.5938L15.318 30.5818C15.1549 30.4184 15.1309 30.2285 15.1309 30.1275C15.1309 30.0266 15.1549 29.8367 15.318 29.6732L19.3207 25.6612C20.0714 24.9088 20.0714 23.6925 19.3207 22.9424C18.57 22.1924 17.3565 22.19 16.6082 22.9424L12.6055 26.9544C10.8595 28.7045 10.8595 31.5481 12.6055 33.3003L16.6082 37.3123C16.9824 37.6873 17.4716 37.8748 17.9657 37.8748C18.4573 37.8748 18.9466 37.6873 19.3231 37.3123L19.3207 37.3126ZM25.3932 41.5626L33.2188 20.0118C33.5809 19.0118 33.0653 17.9084 32.0724 17.5455C31.0723 17.1897 29.9762 17.6969 29.6117 18.6945L21.7862 40.2453C21.424 41.2453 21.9397 42.3487 22.9326 42.7116C23.1508 42.7886 23.3714 42.827 23.5897 42.827C24.3739 42.827 25.1078 42.3438 25.3932 41.5626Z" fill="#02FFC3"/>
</svg>
